/* XPM */
static const char * xfbd_icon_xpm[] = {
"50 50 15 1",
" 	c None",
".	c #DFDFDF",
"+	c #B6B6B6",
"@	c #616161",
"#	c #183C59",
"$	c #595959",
"%	c #FFFFFF",
"&	c #A2A2A2",
"*	c #BEBEBE",
"=	c #FF6145",
"-	c #FF00FF",
";	c #797979",
">	c #FFFF00",
",	c #0000FF",
"'	c #00FF00",
"..................................................",
".++++++++++++++++++++++++++++++++++++++++++++++++@",
".++++++++++++++++++++++++++++++++++++++++++++++++@",
".++++++++++++++++++++++++++++++++++++++++++++++++@",
".++++++++++++++++++++++++++++++++++++++++++++++++@",
".++++++#$$$$$$$$$$$$$$$$$$$$$$$$$$$$$$$$$$$++++++@",
".++++++#%%%%%%%%%%%%%%%%%%%%%%%%%%%%%%%%%%%++++++@",
".++++++#%&&&&&&&&&&&&&&&&&&&&&&&&&&%%%%%%#%++++++@",
".++++++#%&&&&&&&&&&&&&&&&&&&&&&&%%%******%%%+++++@",
".++++++#%&&%%%%%%%%%%%%%%%%%%%%%******===***%%%++@",
".++++++#%&&%&&&&&&&&&&#%&&&&%%*******=====*****%+@",
".++++++#%&&%&&&&&&&&&&#%&&&%***---***=====*****#+@",
".++++++#%&&%&&&&&&&&&&#%&&%***-----***===*****#&+@",
".%%%%%%%%&&%&&%%%%%%&&#%&%****-----**********#&&+@",
".&&&&&&&&#&%&&%&&&&;&&#%%******---**********#&&++@",
".&&&&&&&&&#%&&;;;;;;&&#%%******************#&&+++@",
".######&&&#%&&&&&&&&&&#%%**>>>*************%%%%%+@",
".++++++%&&#%&&&&&&&&&&#%%*>>>>>********,,,*****#+@",
".++++++%&&#%###########%%*>>>>>**'''**,,,,,****#+@",
".++++++%&&#%************%**>>>**'''''*,,,,,***##+@",
".++++++%&&#%&&&&&&&&&&&&;##*****'''''**,,,***##&+@",
".+%%%%%%%%%%%%%%%&&&&&&&&;###****'''********##&&+@",
".+%**************#&&&&&&&&;;###&**********##&&&++@",
".+%*%%%&%%%&%%%&&#$&&&&&&&&&;;############&&&++++@",
".+%*%%%$%%%$%%%$&#$;&&%%%%%%%%%%%%%;;;;;;#&&+++++@",
".+%*%%%$%%%$%%%$&#$;&&%%%%%%%%%%%%%#;;;;&#%++++++@",
".+%*%%%$%%%$%%%$&#$;&&%%###%%%###%%#;&&&&#%++++++@",
".+%*%%%$%%%$%%%$&#$;&&%%#;;%%%#;;%%#;&&&&#%++++++@",
".+%;;;;;;;;;;;;;&#$;&&###;&%%%#&&###;&&&&#%++++++@",
".+%*************&#$;&&&;;;&%%%#&&&;;;&&&&#%++++++@",
".+%*%*%*%*%*%*%*&#$;&&&&&&&%%%#&%%%%%%%%&#%++++++@",
".+%%%%%%%%%%%%%%&#$;&&&&&&&%%%#&%##%%##%;#%++++++@",
".+%%%%%%%%%%%%%%&#$;&&&&&&&%%%#&%#;%%#;%;#%++++++@",
".+%*%*%*%*%*%*%*&#$;#######%%%#####%%#####%++++++@",
".+%*************&#$&%%%%%%%%%%#%%%%%%#%%%%%++++++@",
".+%*************&#$&+++++++%%%#&+++%%#&++++++++++@",
".+%*&*&*&*&*&*&*&#$&+++++++%%%#&+++%%#&++++++++++@",
".+%&&&&&&&&&&&&&&#$&+++++%%%%%%%+++%%#&+%%%%%++++@",
".+%&&&&&&&&&&&&&&#$&+++++%%%%%%%#++%%#&+%#%#%#+++@",
".+%;&;&;&;&;&;&;&#$&++++++#######&+%%#&+##%###&++@",
".+%;;;;;;;;;;;;;;#$&+++++++&&&&&&&%%%%#&++%#&&&++@",
".+%;;;;;;;;;;;;;;#$&+++++++++++++++####&++%#&++++@",
".+%;;;;;;;;;;;;;;#$&++++++++++++++++&&&&++%#&++++@",
".++###############$&+++++++++++++++++++++%%%#++++@",
".+++$$$$$$$$$$$$$$&&++++++++++++++++++++++###&+++@",
".++++&&&&&&&&&&&&&&++++++++++++++++++++++++&&&+++@",
".++++++++++++++++++++++++++++++++++++++++++++++++@",
".++++++++++++++++++++++++++++++++++++++++++++++++@",
".++++++++++++++++++++++++++++++++++++++++++++++++@",
"@@@@@@@@@@@@@@@@@@@@@@@@@@@@@@@@@@@@@@@@@@@@@@@@@@"};
