/* XPM */
static const char * xfmouse_icon_xpm[] = {
"50 50 8 1",
" 	c None",
".	c #DFDFDF",
"+	c #B6B6B6",
"@	c #616161",
"#	c #A4A4A4",
"$	c #6F6F6F",
"%	c #494949",
"&	c #E3E3E3",
"..................................................",
".++++++++++++++++++++++++++++++++++++++++++++++++@",
".++++++++++++++++++++++++++++++++++++++++++++++++@",
".++@@@@@@@@@@@@@@@@@@@@@@@@@@@@@@@@@@@@@@@@@@@+++@",
".++@...........................................++@",
".++@.+++++++++++++++++#$$%%%%%%%$$#######++++@.++@",
".++@.+++++++++++++#$%%%%%$$##++++++++++++++++@.++@",
".++@.++++++++++#$%%%%##++++++++++++++++++++++@.++@",
".++@.++++++++#%%%$#++++++++++++++++++++++++++@.++@",
".++@.+++++++%%%#+++++++++++++++++++++++++++++@.++@",
".++@.+++++#$%$+++++++++++++++++++++++++++++++@.++@",
".++@.+++++$$#++++++++++++++++++++++++++++++++@.++@",
".++@.+++++%%+++++++++++++++++++++++++++++++++@.++@",
".++@.+++++$%++++++#$$$$$$#+++++++++++++++++++@.++@",
".++@.+++++#$%###$%%#&&&&#%%$#++++++++++++++++@.++@",
".++@.++++++#%%%$#&#$$&#$$#&&$$#++++++++++++++@.++@",
".++@.+++++#$%$%#&&&&$%$#&&&&&&$$+++++++++++++@.++@",
".++@.++++%$&&&&$$#&$$#&&&&&&&&&#$++++++++++++@.++@",
".++@.+++#%%#&&&&#%$#&&&&&&&&&&&&&%+++++++++++@.++@",
".++@.++++%$%#&#$$#&&&&&&&&&&&&&&&&$#+++++++++@.++@",
".++@.++++$&$%%$#&&&&&&&&&&&&&&&&&&&$+++++++++@.++@",
".++@.+++#$&&#$$#&&&&&&&&&&&&&&&&&&&#$++++++++@.++@",
".++@.+++##&&&&&#$&&&&&&&&&&&&&&&&&&&##+++++++@.++@",
".++@.++++$&&&&&&#$#&&&&&&&&&&&&&&&&&&%+++++++@.++@",
".++@.++++$&&&&&&&&$#&&&&&&&&&&&&&&&&&##++++++@.++@",
".++@.++++#$&&&&&&&&$&&&&&&&&&&&&&&&&&&%++++++@.++@",
".++@.+++++$#&&&&&&&#$&&&&&&&&&&&&&&&&&##+++++@.++@",
".++@.++++++%&&&&&&&&$&&&&&&&&&&&&&&&&&#$+++++@.++@",
".++@.++++++#$&&&&&&&##&&&&&&&&&&&&&&&&&$+++++@.++@",
".++@.+++++++##&&&&&&&%&&&&&&&&&&&&&&&&&$#++++@.++@",
".++@.++++++++%&&&&&&&$&&&&&&&&&&&&&&&&&##++++@.++@",
".++@.++++++++#$&&&&&&##&&&&&&&&&&&&&&&&&$++++@.++@",
".++@.+++++++++$#&&&&&#$&&&&&&&&&&&&&&&&&$++++@.++@",
".++@.++++++++++$#&&&&&$&&&&&&&&&&&&&&&&&$++++@.++@",
".++@.+++++++++++$&&&&&$&&&&&&&&&&&&&&&&&$++++@.++@",
".++@.+++++++++++#$&&&&$&&&&&&&&&&&&&&&&&%++++@.++@",
".++@.++++++++++++$#&&&$&&&&&&&&&&&&&&&&##++++@.++@",
".++@.+++++++++++++%&&&$&&&&&&&&&&&&&&&&$+++++@.++@",
".++@.+++++++++++++#$&&$#&&&&&&&&&&&&&&#$+++++@.++@",
".++@.++++++++++++++$#&&$&&&&&&&&&&&&&#$++++++@.++@",
".++@.+++++++++++++++$$###&&&&&&&&&&&#$+++++++@.++@",
".++@.+++++++++++++++++$$$$&&&&&&&&#%#++++++++@.++@",
".++@.++++++++++++++++++#$%%$###$$%#++++++++++@.++@",
".++@.+++++++++++++++++++++######+++++++++++++@.++@",
".++@.++++++++++++++++++++++++++++++++++++++++@.++@",
".++@.@@@@@@@@@@@@@@@@@@@@@@@@@@@@@@@@@@@@@@@@@.++@",
".+++...........................................++@",
".++++++++++++++++++++++++++++++++++++++++++++++++@",
".++++++++++++++++++++++++++++++++++++++++++++++++@",
"@@@@@@@@@@@@@@@@@@@@@@@@@@@@@@@@@@@@@@@@@@@@@@@@@@"};
