/* XPM */
static char *magick[] = {
/* columns rows colors chars-per-pixel */
"100 100 71 1",
"  c #d6d6cecebdbd",
". c #fffff7f7efef",
"X c #f7f7e7e7e7e7",
"o c #d6d6d6d6c6c6",
"O c #f7f7efefd6d6",
"+ c #e7e7dededede",
"@ c #e7e7e7e7dede",
"# c #dedececec6c6",
"$ c #cecec6c6cece",
"% c #cecececebdbd",
"& c #f7f7f7f7efef",
"* c #efefe7e7e7e7",
"= c #e7e7d6d6cece",
"- c #efefefefd6d6",
"; c #d6d6c6c6bdbd",
": c #ffffefefefef",
"> c #dedededecece",
", c #fffff7f7dede",
"< c #d6d6cecec6c6",
"1 c #f7f7e7e7d6d6",
"2 c #ffffffffe7e7",
"3 c #efefdedec6c6",
"4 c #d6d6ceced6d6",
"5 c #cecebdbdbdbd",
"6 c #cecec6c6bdbd",
"7 c #efefdeded6d6",
"8 c #f7f7f7f7dede",
"9 c #cecececec6c6",
"0 c #efefe7e7d6d6",
"q c #e7e7dedec6c6",
"w c #c6c6b5b5adad",
"e c #deded6d6cece",
"r c #ffffefefdede",
"t c #d6d6c6c6c6c6",
"y c #fffff7f7e7e7",
"u c #c6c6bdbdbdbd",
"i c #f7f7efefcece",
"p c #e7e7deded6d6",
"a c #e7e7e7e7d6d6",
"s c #deded6d6dede",
"d c #fffff7f7f7f7",
"f c #f7f7efefdede",
"g c #cecec6c6c6c6",
"h c #f7f7f7f7e7e7",
"j c #e7e7d6d6c6c6",
"k c #efefefefcece",
"l c #dedecececece",
"z c #deded6d6bdbd",
"x c #d6d6c6c6b5b5",
"c c #ffffefefe7e7",
"v c #e7e7d6d6d6d6",
"b c #efefefefdede",
"n c #dedededed6d6",
"m c #d6d6cececece",
"M c #f7f7e7e7dede",
"N c #cecebdbdb5b5",
"B c #ffffffffefef",
"V c #cecec6c6b5b5",
"C c #f7f7efefe7e7",
"Z c #efefdedecece",
"A c #f7f7f7f7d6d6",
"S c #efefe7e7cece",
"D c #dedececebdbd",
"F c #deded6d6c6c6",
"G c #efefdededede",
"H c #efefe7e7dede",
"J c #c6c6bdbdb5b5",
"K c #e7e7dedecece",
"L c #e7e7e7e7cece",
"P c #deded6d6d6d6",
"I c #d6d6c6c6cece",
/* pixels */
"jjjjFFjjFFj<;;;6;6VJJ;Kyp0HH+lgu6V66VVFfyyy2yfOOppKp11r,yy2hhOP 6;g6g6gIe+pO0jF 66666g IFlFFeeePFFFF",
"KKKKKKKKK=FFF<<<<<;VJV jO0H+PeIg6;;;V6jfyyy2yfOO0LKZ1rOyyy2hhfP g; gggggp+pHpKj 666g lFFeeevn+ppp7pp",
"SSSSZSpSKKpKKKjjjF 66V6g6g6N66;g<FF ;;>OCyy2y,OO0jjp11r,yyyhhfP<;F F<<g;gg;66VVV6;;oFFPpPKppppZOpSSZ",
"OOOOOOZOZOpSpKpKPjFo<;66JJJN6 lFjjnFF;jfyy22yOOO0nKZ11r,yyyhhfPFFFFjPFl g;uNJ6V;;FFjPpZZpZO0OOffOZOO",
"AOAOOOAO-O-ZO-O-pKPFeFI6I l FFjj@pppFojfyyy2yhOO0jjpZ1r,yyyhhhp<jjnpppFlFI gg<FPjjLKkO-O-OpOOOOOffff",
",A,AfAOfAOOO0O--HpKFel gg IFFFjL0HHpjFPyfy22yrOO@jPS11rryyyh2f+<jLOOpjeFI gg lePSSpkZOZOOOOOOy,yfhhC",
"y,y,y,yyfhffhO0O0PFl g g<<jPKOpO0OHOjFp,Cy22y,O0pLKKZ1Oryyyhhh+FjpOHKF <<<FFe+pHSOSOOOOfff,,y,y,hhhh",
"yyyyyyyyyyy8yhhOeFI66gg<FPjpKKSKfHf0Pjny,y22yOOOpLF7Z1rrhyyh2C+FPOO0F g; <Fe+p0+OKOpOOOy,,,y,yyyBBBB",
"yy22222BB2hB.h0nlI    jFpK-pOfy,fhBcjPOOC22hyCOOpjFKS1Z,f22hhy0e0HHF;6;oFjPZOOHZOOC,yyyyyh22B2222yyy",
"22h2hhBhBhh.B.HeI IlFFjPkZOOOffCChBCjnrfhh22yOOp-FFjZZrOO2Bhhhfee+p<; FFjnOpOfOffyCyyyyy22h2hhyy,h,,",
"yfhchcCh.h:..CnI IoFjnOOOOOffyhchB.fPp,yyh2hyOOZpFFjKZOrO22h2.C+llF <FjnOpOOOfyyych2.2hBhchhhhhhC,hf",
"fffhcChc.h.CHs g IFPpOZOOOfyhhh.hBhfpZyyyhhy,O0-jF;jKZOOfy22.2Heg  lFPpKOOOOfyyyh2..2.hhhhhchhcCOO0O",
"FejPjpppHCHHlg;gFFjKOpOOffyhhBBB.BhHpOyhhhyyOOppLo;jKSZrOh22.h+<<  FjpSOOpOyfhh2.BhBhhch.hCOHHpFpepe",
";  <F<jFFepFg; FFjp-ZfOOfCyhB.BhhhCpZhCy2hy,OO-Kjo;F3ZZOOh2hh0F<llFPpZ-ZOf,Ohh.BhhhhcCHHO+pjPKFFg<g<",
"pSZZZZZZ<D<;;;FpKkSOOfhChhh.BhhyChHKHC,hh2C,OOpKj%; KZZr0hhO@Fl jFj-O-kr,,yh.B.:hyCrOpZpF; FjpppSZZZ",
"11OOZOpO;;; ;jFpSSOOOyyhh..BhhCrOCpjOCyy2hyrOOpKF%xjjSZOffba> FeFjpOOpO,yy2BB..:yrOO0pKjF%;FKOOZOZOZ",
"OK-pO0+jF ;; jKKZO0fhhh.BBhhcCCC+lF+Ofhyy,fOOpK3FI FFepOpOpKFFFF+pO0fCyf2hh.B.hCO0pPKjjFF;  Fj00OZOO",
"-SZO00PjI; oFKSO0HfchhB.hh.hCOpjelFHChyyy8fAZOKjeI IFjj-Z-KjFFePpO0fffch..2hhhCrppKKKKjjF;  ;jp-SZOS",
"ZO-pOPj><F Fj-ZOfffhh.BBhhhCHpF<llpChhy2y8fOOpKjFI6 l>jnpKjF FPZHpffchhhhB.hcHHpKjjpKp-pjF;;%jLpSZOZ",
"-pOZ0PF<<<FjpOOOfChh.Bh.BcfpFFFFe7Mhhhyyy8f0-pKjI 6g;F>jjFFF<jpO0Ofchhhh.hhCHpKpp-pOOHZOnjF%  jjZOS1",
"pOpOPjF  lFnpOOfhhh.BhhhhCpF<FFepHchhyyy8ff-pKjF;66V FFP FFFFLpOfHchh.2hhhCHKjpp,OyOfO00Zpj   F>KS7Z",
"OpOjLF  FFjpOHOyhh.BhhcCHpjjFFPK7Mhcyh22yf-Kp3F;V6;6 lFFg<FjPpOOffhh.2hhhCHKFPpOyyh2hCHOO0j>; FFKZZ1",
"pOpLF<<FFPpOpOyyh.Bh.hHHFFFFFejPHCyhyhyyf-OKKj  N;o g l gFFppkOOfch.BhhccHFFFpOcfy2BhCrO0OpjF;; KSZZ",
"ppKjF<;FjpO0OfyhhBB.hCHpFF IFFPpryhhhhy-OOpKj> ;V F< g g<ljpKOZ,ChhB.hcyf+F FpChOC2hhyrfOHppF  FKKZO",
"pKjF F FpOpOfCyh.hhcCHKj     FHyfhhB2h,rOppKjFgV>FPFg;g <F00O0f,CBB.hhCHFF g;FpHyrh2B2hCrO0pKjF <Kpp",
"pKFF;%jFpZOfCyyhB.hCOpjFFF  FPOfchhBhyrOOOKjF 66jPKFg; IFe00HOf,2.hhhhMp<; ; FFpOOyhh2hC,O0pKjF; jpK",
"j><;%Fjj--Ofyhh2hhhC0Pj>PF lP,CCy2hhy,rOHZpjog66PpKF;6 Fep0HOOyyBhchhCpj    oFFFpOfhhhyyCCOZpKFF;FjP",
"jF ; FjKOpCyyhB.chC7pjPKjPFPOyhy2h2hyrOZOKKF6666FFFFg; eppHOffh2BhCyCHKPjPFFlFFeKpryyyy2yyOO0pjF;oFF",
"FI%; jL-pO,yh2..yCHjFFFPFFpOfhhh22hy1OHZZKjF66g66gFI;;FjpOHOfhhB.hCCOFppy0Pjo<FPjpOfyy22hyCOO0njo; I",
" <;F jpOO,yy2h.hhCpF g<FFPrhhchBhhyrOZZOKj<;FIogJ6g;;oFPOpOfhhhBhcyf+j0fhCpjF FFFjpOCyh2hhyCOHKKF   ",
"  <FFLKOO,yy2.hhcHj66;FFPOyhhh.ByyffOOKZjz<;>>FIg666;ojKpOOCyh.BCyf+p0fhhhCHPjF FFj0Oyyh2hyrfOpKel  ",
"  <FjLZOO,yy2hhcHj N6;>jyCh.B.BBffffOKS3j;;FFnnII u66Fj-pOOyhhBhhCHKpfhhhhhhy0eF FFjOfyC2hyrfOpppFg ",
"  <jLpAOfh.B.hy,+eg PpHCfhh2hhyr,fApOpjF6 jnZpjFj ;V;jLOpOhr2h.hyHKpZOhBh2hhyHZpjo;>pyyyh2hyyOHZKj<g",
"g<FjKOOOCh.Bhh,OelIPHOfhhch2hhyrOO-ZpKjFFepO0pKjj 6; jLZOOOyh2hhCZKKpOCh2hhhyrOOPKFFKOCyy2hhCrO0pjlg",
"; FjKOOfhhh.2hrpFFPOfch.hh2hhy,OpOppKj>F00OHOOpKj ;; jLOOOyy2h.hrLjj-ZyyhhBhhhhCrOpFjp,yyh2hyr0Op3l;",
"; jnkZfyyh..hhZKF+Oc.hhhBBhhyrOfOpKjFFPpychCOHSKP<;;jjpOOhyy2hhhOjFF-OOfhhhB.Bhhyhrj>pryyyh2yCOHZKFl",
" IjpkOOyhhh.hCZLPOc2hh2h2hyy1OOO0pj><F0fhhy,Opk3jF;jFLK,Oyyy2hhCZjFFpOHOhhhh...BCy2HKpOOyyhhhyrOHZeF",
";FnOpOryh..hhrpKKOhhhBBBhy,OO0OKpp><<jfhB.yyOOKSjF<jjLZOy,yy2hcfnj%jpZOOCCChhh..yy2yOpOfCyy2hyOfZZpF",
";FpZOOOy2.BhCHSKOOhh222y,rOO0pKKKF  l0f:2hy,OOSSjF<jjpOOOyyy2hf0FF FPpp0fHrCCyyh2h22CpKOCyy2hhCrOZpl",
" FPOOOfy2B.hCZOpO222hhyZOOOOpOK3Fl gF+fh.2hyOAk3pF#FKKOOy,y22hH0Fg FjjnpOHOOrCyy2hhByKKOC,h22hCOOZpF",
"FepOpOyyhB.cHppOyyyy,rOOO00pKLjj  g F+Chhh22,Okk7FjFpOZf,yyyhhHPI Ig ljnpZOOOO,Oyhh2hyOH,fyhh2CrOZpp",
"FepZOOyy2.hcHpkZ,,f,OOOO0pOKKjF%F  IF0fchB22,1kk7FF=KOOOfyyyyh0nFI gglFFpppOOOOOOCyhhyOOfCyy2hyOrZZp",
"FPKOOOyyhB.CZpKOOOOOOO0OppKKjo;;F  Fe+Hhh.2hyOOk7=jjpZOOyyyyyh0j4II gg<ljnKppOpO0OfyyrfHCryy2hyrOZ0F",
"FppOOOyy2hhCppKkZOO00pppKKjFo;%;FFFFPpHChh22yOOk7jFpSOOfy,2yhO0nleII gg;FFjjLpKOpHOfCrOHOfyyh2CrOOpp",
"FPZOOOy2h.hCpKKKfO0OppKKjFo g<FFjjPjjnZCyhBhyrOO+KFKZOOyO2hyyf@FFe>Fl;;6  IFFPp0pOOfOO00ffCy2hyOrS7K",
"PpOHOyyyhhhMpjLKOpOLKjj> < g<Fe+KKKjjPOfhh.2yOOOH=FpZOOyyyyyhOPFPPpjPFF gg;IFFPpKp0HHHpprOyy2hhyOZZp",
"jnpOO,y2h.cfPjjLjKjjj>o<;  lFe+0pSKLFj0fchB.hCrOHpjpZOfy,y2yhOnFKKOppKFF g IIelsjjnKpKZpOffh2hhC11Zp",
"PpOOOyy2hhcfpjFjjFj>F;<; g<FP+0GOK-jFj0fc..2hCOOH=FpOOOyyyyyh0nFpkZfOpPjIFI IIIIoFjjKppKOfCy22hCO1Zp",
"jpSZff2B.chpjFPFsl44I  IFjjpkZ-KZOppj>P0hh2.y,OOpK3K1MOyy22hhfPFKKOKOpZpj>Fl    I4lsP++0HHChB.hy1OOK",
"jpSOAfh2Bh,OjFFtlI4IIImFPjnSpkSkpOppj>pHCh22yrOO-KjjrZryy22hfbpFKSKOpkZ-PKjFI  IgIgIlleeGfCh.2hyO1ZZ",
"jpKOOf2BBhy0F l<IgIgglFPppKpkZOKOpOPj>pHyhhBy,O-pSjjOrHyyhBhhHj pkOpOpOpOpPjF  gggggg IF+HChB.hh1OOp",
"jpkSf,hBBhy0j FtIIgggIFejPKOpOKOpOpKjPpOch22yrOO-LjjOMryf2Bhy0n;OOpOpOpO0ppFF g;gggg<lee0HCh.Bhh11ZZ",
"jpSOOf2..hCOFFeeFl g;g  FFPpO0ZOpZOPLj0Hhh.2y,O-pKjjrHOCyh22CbF;-ZOpOpOppKjF g;;  <<FjPp0HChB.hy1OOp",
"jpSSf,hBhcy-jFpv+eel  g;  jnpp-pZ00pjP0fch2ByrOO-KjjOMryy2Bhfbe;-ZOp-KpKjjo     <FlFPpppZfChBhhy1iZp",
"jpSOOf2.2hyOFj+pHppj>lo;  IFFppppOppPK0fch2hy,O-pSjjrZrCy22hCfPFp-pOpKKKFF;   FFFjjpSpKpOOhhhhhC1OZp",
"jpKkO,hB.hyOFjp7HZ00Pj>F<   <FPpZ-ppKp0fchB2yrOO-LjjOrHyyhBhhfPFKpZpZpKjo;% <FFPK-OOOOpOpCyh2hCC1kHK",
"FKKkOfh2.hyfpjPHOOHO0ppKFFl g;FjpKpKjp0fhhhhy,O-KjFKZrryfh22hfpFpZpKjF  ; FjjnpSZppOOOpK,OyhhhyCO1Zp",
"jjKkO,h.BhyOpjpMfHOHOZOpPjFF  IFjjj>PpHfh.h2y,OKO>jjZZCryh2hhh0Fppj>FF%F FFjnSpZO-OOOOOpOCyh2hyC11Hp",
"FjKkOOhhB.yf-j0XrOfOfOfOpppjF  <FoFFFpHChhhhyrOS-F KZrOCyyB2hhHjj>F < FFjFjnkZOO0fOCyfHp,OyhhyyrO1Zp",
"FFKSOOh.BhyfOjHcyyyfCCCCOHppPFF ;;;;FnOch.2hyOOSpj 3pZrrhy2B.hHpF   ;FFFjnKOOOOOffhhyCOpOyyh2y,OOOpK",
"FFKSOOhhB.y,OpHM2hhhy,C,HOOpKjjF;%;%j0fh.hhhyOOKSF jKZOrf2B2hhHP< g; FjnpOOOOfy,Ch..hCHZyfyyyy,OOZp=",
"<j3K-OfhBhyyOpHHhhhhhyyCrOOHOppjF;%FF0ch.BhyrO-SKF jKSHrfh2hBhHj    FepZOHOOyy,yh...cfHHCyyyy,OOHSp=",
"<jjS-OfhB.yyyK7HChh.2hhyyCOOHOKKLFFFPOChBhhyrOpkL  j37Zr0h22hCp< IFFe00OOOfy,yy,.d..CH00CyyyyyfOZZpF",
"<jjKSOhhBh22CZ+pHCy2BB2hhyrOO0OKpjj>pHyh.BhyOOOKKz;z=SZOfhhBhfP;o<Fep0Hfffy,y,yyBd.:fH+HCyyyy,fAZOFF",
"l4P0O-OO,hBhhCZPZCyhhh.BBhChhf0OZKjj-Oyy22yOOHSSFF lj000+C2hHj;  jjpOZyOfyyh2.2hh2hfnpHCCy2h,rk1Op=F",
"I4PpOZA1,yBhcCOPppOchhh.BhhB.hHfZSjKOhyhyyffOZZSel  enHHHCCOjF;%jLjK-OfCyyyh.hhhhyOnppOchhhh,rO1ZpFj",
"I4FPpOOf,y2.hcf0FjPOchhh.hB.BhcfZpKKOyhyyyffOOpKF ggFpZOfHpjo;FjLKKOp,yyhh2hhhhhCOPj>0f.h.h2C111Hpjt",
"gIlPKOOOfyBh.hc0FFFe0CCyhhh.Bhcfp3KOOyyyyhffOpK3 g;6<j000Pj;;%jnOpO-rfyy2hBh.hcCKLF>j0Ch.Bhh,rOk7K<;",
"gg eKpOOOy2hhBhCPF; F0fHhhhhhBhcKpSOfyyyy8fO-pKjg;66 Fn+jF;6%jpOOOOOfyy2hh.hhCHpjFo>nfhhB.hyrOZZpF<;",
"ggIFjK-Zfyh2.BhcOe   epHChh.B.hCKZOOyyyyy8f-ZKK#;666;IjPF ;oFj-HOrfyyyyhhhhcCpKFF%FjfChh.ByCrOZZpl<;",
"g5 l>jpOOyyyhB.hc0Fg;FFFHCyhhhCppZOCyyyy8fOO0KF<66666 FF; oFjnZOffyyy2hhhhCHpjFF FnnfhhhBhyrOZOKFlt;",
"ggg<FPKKOOhyhBBhhfe<;;o<FpCCCCZFpZyyyyy,ffO0pKj 6u6;6  Fg;FFjpOOffy2h2hh.hHpFFlFmFj0bhhBBhC1rZp3llgg",
"g <lFjp-pOCyhhh.Bc0jo lFFFHrCOPjffCh22yyOOOppjo wJFe  g ;oFppO0ffCy2BhhCCH=FFeePj@@Ohhh2hyrOOHS3l tg",
" IF lFPpOpyryhhBhhCpF FFFFpppHppffhh2hy,OO0pKF g66PP; 6  <jpOpOfyyyhhhhCHpFFeeepnp0hyhhhyyOrHZKjIlt<",
"F l IFPpZOOC,y.BchhfPFlFFFFFjnOHCh..2hrrOHZpjmg6F 0p;66;FFPOpOCyyhhhhhcHFFFlle+p00hhh2h2yOrOZZjF<<<<",
"FFFIoljP-pOOfC2.h.hCOPjol   FpOch..Bhy1O11pKF;g6 I0P;;6 FPpOOfCyy2hhchCp<l  IjP0Hfh.B.yyrOOpZjj;<lFF",
"PjPFgIFPKpOOOChBBhhhhCjF6;6FPOCh.d..yC1SOSKjo6gu66PP;   PKOffCyyh.BhCCZFl I lnp0CC.B2hy,OOZOjjF;jFvv",
"pppFl lFjpKOOOhhBhch.hOe ;oF0fhcdB.hCrZZZSFF gggJJjP F FPpOfCyyyhhhhCZpePFFlmF0*c&hBhh,OO0OjjF<FFFp7",
"OppPF4 lFjp-ZOChh.h.BhcHjFFe0ChhddhcOHOSSjj; g 9uVej IFepZffyCyyBhcCHFepOHneP+f:...2hyOOOppjF<F#Kp7Z",
"OpHPFlI F>KpOOfCchBBhhhhHpFPpyhhddhCHZZ13jF;  $4;6PF  FPppfyC,yhBhCrplFHccH+p0:d..2hyOOZOOKj ;jFp7ZO",
"ZrZZK<;;FjjZZHrOyyy2BhyOfO0njjpOy,fO,O0PF<;oFFF; g;l<FFKkZff,yyy..c0FF0hhhCOKjjny2hhCHHO0pjFFFjjKZOZ",
"HZOHKjz;;FjjpZHZhOhy22hyyhO-L>j>OkOOOppjF  IFPFFIg;<j<jLSOffyyyyhcbvepf.hhCOZ-pKZOCrrO0HjjF%;FjLKZZO",
"ZO0ppKj< <FFppOHO0hhy22h2yh0pnFFzj-ZOPjj   FjLjF<t;<<jFpOOOyyyy2hHPjj0hBBhhchCHpjPKpO00pjo;; j>jpOpO",
"HpHZOpjFF<;FFZ0H0O0hyy22hyhfhOaL jLLpKjm IFPppKjFt;<#jLZOOhyyyy2fpj>PyhBB.hhhhCHpKjj>jpKjF;%jLjpOpOZ",
"HHHHHHpF<<;<FPpK00OOfhyh2hyyyhOOpqFFppj FFjpOOKKjl;<j>KOOh,y222yOLjj-rhCh.ddB.cc,0pj>jFFF;%;Fp-pZOpO",
"0+ZHppje<;;; lFFp00bOfyy222h2yyfypjjppPFPp-OO-pKj<;<jj-OOOyy22yhKKKpOOffChBdB:..yOOOpLF< VV FjppSpSp",
"PppjeFeF<<< IF<FPp-0O0hyh2B2hhyyyyO000PpOOOfOOKSj<;jjpOOOfyy2hhCppZO0HfHCChh.B.BCyhhCZpKF F; FjFjjjj",
"PjPFl IFFeeeFFeejLp00ffyOhhB2h22yhhc0+pHCCyCOOK3P<;FppOOOfyy2hhfpKO000HfCrfcBBd.yyyyyrfyZOjjF;%%j>FF",
"PnpP0@p0HfCCfnPFFFjpOOOHOfCyh2hh2hhcf00fhhhy,OSkKF<jKOZfOy22hhc0FPppjPHOHOffhh2B222hhyyOhyhO0pZppLjn",
"OHffbHfCCh...c00>jjnK00OfOfCyyhhBhhhcHfChh2yr-kSpj<jKZOfhy2hhhh0eFFePKpHHHffCyyyhhh2h2yhyyCy,yy,ObO0",
"ChChchhhh.BBB.hhHpKjjPpZfOHrOCyyh2h2hCChh.hh,OZOpj;KKOOOOy2hBhC0eelFFPKPZO0HOOOCyyyh2h2hhyyyyyyyhhhh",
"hhhh.....B.B..BhCrpLjjKpOHHOOOCryyyhBCChch2hyOOpSFjjpZOOyy2hhhfn+eeelFFFppppOOOOfCyyh2h2hhhyyyyyhh2h",
"2h2.222B2h2hhhhhyrOpKjjLpZOHOfOOrO,yyOCych.2yOOOZKjjpOOfyy2h.h*n+HppF <FjPKpZOHfOCryyyhhhhyyyhhh2..2",
"BBBBBBBBBBhhhyyCrOOHpKj>jjnZHHHZO-OOfHHCChB.hCOHZKjj-ZOfyy2hhhHPpHHpF<<FFFFjp000OHOOCryryyyy222B.2BB",
"22h2hh2hyyyyfhOOHOHZZKjF;jjjKKZOOKOOpZOfch.BhCrOHKjjpOOOy2hh.hHeKKOpKjF  <FFeP++pZOOOfOffCryyhh2h..2",
"yfhC,fhOOO0O0O000HZZpKjF;; FjjpZOSKOOp0fch.BhcfHZKjKkZO,y2hhh:HPjLjKpjF    IFFFepppHOHfOfOfOfrffCyhh",
"OO,1OO1,OOOHOHOZH+pPjFI g; g<FPpPpppZpKOfh22yOrOZSjPAO-yh.BhyO+<Pj0PpPFFI gg 4leFKKKKZOH1rOOrOO1rOCr",
"1i1Oi11OZZZZZKpSPPFeFI  g g IFFej>jnZKjffyy2yOOOZKjPOO-,h.BhC1p<FFPjPFl gI IIIFljFjjKKKSSZZOZOZ1OH1O",
"ZOZZZZZZHZ0ppKFFFll gg I I g gI omFFFFFffyyyyfOOZSjPAO-yh.BhrZpt<Flo< gg6glFIII I<<#Fv==ppp7pZOpZZZZ",
"pSpppKpppp=FFljl I gu66gFl gg;6g6o; F#FHyhyyyfOOZSjPOO-,h.Bc,ZP;<; g;666ugFveIg g;t<<#FF===KKpZZZZZp"
};
