/* XPM */
static char * BlueStripes_xpm[] = {
"9 9 2 1",
".	c #434574",
"+	c #4A4F7F",
".........",
"+++++++++",
".........",
".........",
"+++++++++",
".........",
".........",
"+++++++++",
"........."};
