/* XPM */
static char *magick[] = {
/* columns rows colors chars-per-pixel */
"96 96 58 1",
"  c #7b7b31313939",
". c #5a5a21212929",
"X c #adad5a5a4a4a",
"o c #424208081818",
"O c #6b6b21212121",
"+ c #424210102121",
"@ c #9c9c52524242",
"# c #313100001010",
"$ c #a5a55a5a4a4a",
"% c #848431313131",
"& c #94944a4a3939",
"* c #737329292929",
"= c #424210101010",
"- c #9c9c4a4a4242",
"; c #212100000000",
": c #393908081818",
"> c #a5a552524a4a",
", c #8c8c39393939",
"< c #6b6b29292929",
"1 c #8c8c42423939",
"2 c #949442423939",
"3 c #b5b563635252",
"4 c #5a5a18182121",
"5 c #7b7b31313131",
"6 c #5a5a21212121",
"7 c #4a4a18181818",
"8 c #424208081010",
"9 c #848439393939",
"0 c #9c9c42424242",
"q c #636329292929",
"w c #848442423939",
"e c #adad5a5a5252",
"r c #525210101818",
"t c #393910101010",
"y c #adad63635252",
"u c #313100000808",
"i c #181800000000",
"p c #525218182121",
"a c #737331313131",
"s c #9c9c52524a4a",
"d c #a5a55a5a5252",
"f c #4a4a10101818",
"g c #292900000808",
"h c #101000000000",
"j c #4a4a18182121",
"k c #636321212929",
"l c #393908081010",
"z c #8c8c42424242",
"x c #7b7b39393939",
"c c #424210101818",
"v c #9c9c4a4a4a4a",
"b c #212100000808",
"n c #080800000000",
"m c #313108081010",
"M c #4a4a10102121",
"N c #6b6b29293131",
"B c #848439393131",
"V c #94944a4a4a4a",
/* pixels */
"e$V, N6jft#gb;;iihhhnnnnnnnnnnnnnnnnnnnnnnnnnnnnnnnnnnnnnnnnnnnnnnnnnnnnnnnnnhhhhii;gmoM.q wV>e3",
"edsV9a.6f=mgb;;iihhhnnnnnnnnnnnnnnnnnnnnnnnnnnnnnnnnnnnnnnnnnnnnnnnnnnnnnnnnnhnhhiibg#=+6.Nxz@$e",
"e$s0, q67c=ggb;ihihnhnnnnnnnnnnnnnnnnnnnnnnnnnnnnnnnnnnnnnnnnnnnnnnnnnnnnnnnnhhhhiibbg:=MpqaBzs>",
"@ss0z <q77:mg;;iihhhnnnnnnnnnnnnnnnnnnnnnnnnnnnnnnnnnnnnnnnnnnnnnnnnnnnnnnnnhhhhiii;ggm:c7.qaBzV",
"&&2V, <Op7omgg;;hhhhnnnnnnnnnnnnnnnnnnnnnnnnnnnnnnnnnnnnnnnnnnnnnnnnnnnnnnhhhhhihiib;gg#=op6qa9z",
"Bzz9B Nqppcmmg;;hihnhnnnnnnnnnnnnnnnnnnnnnnnnnnnnnnnnnnnnnnnnnnnnnnnnnnnnhnhhhiiiii;bgggm=c66qa ",
"Naa  a<qppc:ggb;ihhhnnnnnnnnnnnnnnnnnnnnnnnnnnnnnnnnnnnnnnnnnnnnnnnnnnnnhnhhhihiiiib;bgggm:op4kN",
"qq*NaNq667o=#g;;hhhhnnnnnnnnnnnnnnnnnnnnnnnnnnnnnnnnnnnnnnnnnnnnnnnnnnnhhhhhiiiiiii;b;gbgg=:M74k",
"p66q666647o=#ggbiihhhnnnnnnnnnnnnnnnnnnnnnnnnnnnnnnnnnnnnnnnnnnnnnnnnnhnihiiiiiiibib;b;bggg#=:MM",
"77pp666p7Mc=#ggb;hihhnnnnnnnnnnnnnnnnnnnnnnnnnnnnnnnnnnnnnnnnnnnnnnnnhnhhiiii;ibi;bib;b;ggggm:oc",
"==c777M7Moo:#ggbiihhhnhnnnnnnnnnnnnnnnnnnnnnnnnnnnnnnnnnnnnnnnnnnnnnnnhhiiiibib;bb;b;b;bggggg#::",
":=moccoocc=m#gbgiihhhnnnnnnnnnnnnnnnnnnnnnnnnnnnnnnnnnnnnnnnnnnnnnnnnhhhhiibbbbg;bb;b;b;b;bbggg#",
"g#m::=::=:mm#gbb;hihhnhnnnnnnnnnnnnnnnnnnnnnnnnnnnnnnnnnnnnnnnnnnnnnhnhhiiib;gggbbbb;bi;bi;;gbgg",
"bggggm#m####ggbbiihhhnnnnnnnnnnnnnnnnnnnnnnnnnnnnnnnnnnnnnnnnnnnnnnnhhhhiiibbgggggbbb;;iibib;;gg",
"bbbbgbgg#ugggg;;iihhhnhnnnnnnnnnnnnnnnnnnhnhhnhhnhhnhhnhnnnnnnnnnnnhnhhhiib;bggggggbb;iiiiiib;;;",
"bbbbbgggggggg;b;ihihnhnnnnhnnnhnnnnnnnnnhnhnhhnhhnhhnhhnnnnnnnnnnnnnhhhhiiibggg#gggbb;;iiiiiiibi",
"iii;;i;i;;;;iiiihhhhnnhnnnnnhnhhhhnhnnnnhhnhhhhhhhhhhhhhhhnnnnnnnnnnhhhhiiib;ggggggbb;;iiiiiiihi",
"iiiiiiii;iiiiiiihhhnhnnnnnnnhnnhhhhnhhhnhnhhhhhhhihihihihhhhnnnnnnnnnhhhhiibgggggggbb;iiihhhhhih",
"ihhihiiiiiiiiiihhhnhnnnnnnnnhnhnhhhhhhhhhhhhihiiiiiiiiiihhhhhhnnnnhnhhhhiiiibbbgggbb;;iihhhihhhh",
"hhhhhhihiiihhhhhhhnhnnnnnnnnhnhhhhhhhhhiiiiiiiii;ii;ii;iiiihhhhhhhnhhhhhhiiib;gbbbb;iiiihhhhhhhh",
"hnhnhhhhhhhhhhhhnhnnnnnnnnnnhnnhhhhiiiiiii;i;b;bbbbbbbbb;iiiihhhhhhhhhhhhiiiibi;;;i;ihhhhhnhnhnn",
"nnnnnhnhnhnhnnnnhnnnnnnnnnnnhnhnhihiiibbibbbb;bbbbbbbbbbbbbbiiiiiihihhhhhhiiiiibibiihhhhnnnnnnnn",
"nnnnnnnnhnnnnnhnnnnnnnnnnnnnhnhhhhii;b;;bbbbggggggbggbggbbb;;i;iiiiihhhhhhhihiiiiiihhhhnnnnnnnnn",
"nnnnnnnnnnnnnnnnnnnnnnnnnnnnhnnhhiii;;bggggggggggggggggggbbb;;i;iiihihhhhhhhihihiihhhhnhnnnnnnnn",
"nnnnnnnnnnnnnnnnnnnnnnnnnnnhnihiii;bbgggggg#gmgmg#gg#gggg#gggggb;;i;iiihhhihhhhhhhhhnnnnnnnnnnnn",
"nnnnnnnnnnnnnnnnnnnnnnnnnnnnhhihi;ibggggg####mm###u#gu##gg#gggbbbb;iiiiihhhhihhhhhhnnnnnnnnnnnnn",
"nnnnnnnnnnnnnnnnnnnnnnnnnnnhhhiiibb;ggggm##:m:########g###g#gggggbb;biiiihihhhhhhhnhnnnnnnnnnnnn",
"nnnnnnnnnnnnnnnnnnnnnnnnnnhhhihib;bggggmm:l::l:l=m########m##ggggggb;iiiihihhhhhnhnnnnnnnnnnnnnn",
"nnnnnnnnnnnnnnnnnnnnnnnnhhhhihii;b;gggm#:l:t:=m:m:#m####mm#mm##gggggbbbiiiihhhnhhnnnnnnnnnnnnnnn",
"nnnnnnnnnnnnnnnnnnnnnnnnhnhhiii;bggggmm:ll:=::=m:#t##m##l#t#:mm:gmggb;bbiiihhhnnnhnnnnnnnnnnnnnn",
"nnnnnnnnnnnnnnnnnnnnnnnnhhhiii;igggggm:llll=:tll#=m##u#u##l#:m:m###ggg;biiiihnnnhnnnnnnnnnnnnnnn",
"nnnnnnnnnnnnnnnnnnnnnnnnhhhiiii;gggggm::ll:=:lll#m####g###t#=m::m##ggg;;;iihhhnnnhnnnnnnnnnnnnnn",
"nnnnnnnnnnnnnnnnnnnnnhnhhhiii;bbbgggmm#:ltl#tl#l#g#ggggg#g###::m:m##gggbiiiihhhnhnnnnnnnnnnnnnnn",
"nnnnnnnnnnnnnnnnnnnnhnhnihii;;bbggg###l#tllml#u##ggggggggg#g:mm:m#l#ugbb;;iihhhhnhnnnnnnnnnnnnnn",
"nnnnnnnnnnnnnnnnnnnnnhnhhhii;;bgggg###m#t#l##u#ugggggggggggg#mm=mm###gbb;iiiihhnhnnnnnnnnnnnnnnn",
"nnnnnnnnnnnnnnnnnnnnhnhnhhiiibbbgg#gm##ml##m#ugugggggbbbggggg##mm:##uggg;;iiihhhhnhnnnnnnnnnnnnn",
"nnnnnnnnnnnnnnnnnnnnhnhhhhiii;bbggg#g####m##u#gggbbbbbbbbbbgg###m#l##ggb;i;ihihhnhnnnnnnnnnnnnnn",
"nnnnnnnnnnnnnnnnnnnnnhnhhhhii;;bgggg##m######gugbbbbb;;;;gbbgg##m###uggg;;iiihhhhhhnnnnnnnnnnnnn",
"nnnnnnnnnnnnnnnnnnnnhnhnhhhii;;;ggggg#######u#g#bbbb;;;;b;bgg##u#m#l#gbb;;;iiihhhhnhnnnnnnnnnnnn",
"nnnnnnnnnhnnnhnnnnnnhnhhnhhiii;;bggg##u#######g#bbb;;;i;ib;ggg######uggbb;;iiihhhhnnnnnnnnnnnnnn",
"nnnnnnnnhhhhhhhhhhnhnnnnhhhhiiib;;gggg##m##u#g#ubgbbb;;;b;g;ggg#u#u#ggggb;;iihhhnhnhnnnnnnnnnnnn",
"nnnnnnnhhhhhhhhhhnhnhnnnhhhhiii;;b;ggg###m###ug#gbgbbb;b;bgggg#g#u#u#gggbb;iihhhhnhnnnnnnnnnnnnn",
"nnnnnnhnhhhhhhhhhhhhnhnnhhhhhiiii;b;ggg##u#m###ugggggbbbgbbggg##u###guggbb;biihhhhnhnnnnnnnnnnnn",
"nnnnnhnhnhhhhhihhhhhhnhhnhhhhhiiii;bggggg###m###ggggggbbbbgggggg##u#ugggbbb;iihhhhhnhnnnnnnnnnnn",
"nnnnhnhnhhhhhihihihhhhhnhhhhhhhhiii;;bggg###m#m####gggggggggggg####u#ggggbb;iiihhhnhnhnnnnnnnnnn",
"hnnhnhhhhhhhihiiihhihhhhhhhhhhhhiiiib;;ggg##mt#t######g#gggggggg######gggbb;bihihhhhhnhnnnnnnnnn",
"nhnhhnhhhhhihiiihiihhihhihhhhhhhhhiiib;;gg###l:m:l:l#######g##gmml####g#bgbb;iihhhhhhhnhnhhnhhnh",
"hnhnhhhhhhhhiiiiiihiihhhhihhhhhhhhiiiib;ggg##m=:=::::l=m#####m####l#m##ggbbb;iiihhhhhnhnhnnhnnhn",
"hhnhhnhhhhihiiiiii;iiiiiihihhhhnhhnhiiibbbgg##=:t8c8==:=:t:tlm=m=:lm:##ggggb;biiihihnhnnhnhnhhnh",
"hhhhnhhnhhhhiiii;iiiiiiiihihhhhhnhhhhiiibbggg#=:==fcf=:ccc8=:=:::=m:l####gbbb;;ihihhhnhnnhnhnhhn",
"hhnhhhnhhhhihiiii;ii;iiiiiiihhhhhhhhhiiibbbgg#m===cpcppc77Mocooc=::t:=mmgggbb;biihhhhhnhhnhnhnhh",
"hhhnhhhhhhhhiiiiii;ii;i;iiiiihhhhhhhhihi;;;gg#::=cjppppp64pp77ococ=:=mm:#ggbbb;iiihhhhhnhnhnhhnh",
"hhnhhnhhnhhhhiiiiii;i;;;b;iiiiiihhhhhhihib;gggm:ccpp666666.467p77cc:=::###ggbb;;iihihhhhnhnhnhhn",
"hhhnhhnhhnhhhhiiiii;;;b;;bb;iiihihhhihhhiiibgg#:=op66.qNNN<qk.4p77oc==m:l##ggbb;iiihhhhhnhnhhnhh",
"hhnhhnhhnhhhhihiiii;b;bbg;bb;iiiiihhhhihiiib;g##=cj6.NN*a aNNNqk6jpf:o=:l##gggg;iiihhhhhnhnnhhnh",
"hhhhnhhhnhnhhhiiiii;;;bbbbb;b;iiiiihhhhhhiibbg#l=oj.q<a x xx NNN66jpcc==m:##ggbb;iiihhhhhnhnhnhn",
"hhhhhnhnhhhhhhhhhiibbbgggggggbb;iiiihihhhhiiggg#:cj.k<5 ,zz1,B9aNOpppf::=:#ugggg;biiihhhnhnhnhnh",
"ihhhhnhnhhnhhhhhiiii;gggggggggbb;biihhhhhiiibgg#=:p6.* BzVV&V&,9N<64p7cc=ml###ggb;;ihhhhhnhhhhhh",
"ihhhhhhhnhhhhhhhiiiib;ggggggggbb;biiiihihiii;gg#:cc6qN z&s@$@s&,xaq667cc:c#m#gggb;biihhhhhhnhhnh",
"ihhihhhhhhnhhhhhhiii;b;gggmggggggbb;iiihiiibbggg:=c6.a z&v$$e$@Vz <q.4jccf=m:#gggb;;iihihhhhhhhh",
"iiihhihhhnhhhhhhhihib;bggggmmg#ggg;b;iiiiii;;ggg:=c6.< BV@eyyy$Vzxaq667Mc=:=m##gbbb;iihihhhhhhih",
"iiiiihhinhhhhhhhhhiiibbbggggmm##ggggbbbib;b;bggg::c7.<5x&seyyydszzN<q6M7cc:=:###ggb;;iiihihiihih",
";iiiiiihhhnhhhhhhhhii;;gbggm##l##gggbb;bib;b;ggg::f74qa zs$yyedvz a<..p7oco=::##gbgb;iiiihiihiii",
"iiiiihiihnhhhhhhhhiiib;bbgg###ll##gggbb;b;b;gggg:mc7pON5,&v$ddsVzBN<kpp7Mcc=::##ggbb;biiiihiiihi",
";i;iiiiiiihhhhhhhhhhiii;ggggm:#:###gggbbbbbbggg#m=:76.Na9,Vvvsvzz5Nk4p7cc==m:###gggbb;;iii;iiiii",
";iiiiiiiiiihihhnhhhhiiiibgggg#l##mgggggbbbgbgg#g#=:7p.qN59,VzV,z5a<.ppff=:m:l###ggggb;;bibiiiiii",
";;;i;iiiiiiihhhhhnhhhiii;;bggg#####uggggbbgbggg##==o74.q*a  Bx 5N<.prfc=:mt#####gggbbb;bbibibiii",
";;b;i;;ibiiiihhhhhhhhhiiii;bgggg##ugggggbbbggg#g::=:7766k<NaNaN<q.r7cctm#####g#gggggggg;bb;b;bib",
"bb;;b;;;ibiiiihihhhhhhhhii;ibgggg#ggggggbbbbggggmm==:77M4q.qkqqkpp7cc#l#gugguggg#ggggggggbg;bbb;",
"bbbbbb;;bibiiiihhhhhhhhhiiib;;bgbggggbbbbbbbbgggm:m:ccffppppp66p7ffml#ggggggggggggg#ggggggggggbb",
"gggbbbbb;;ibiiiihhhhhhhhhhiiib;;bbbbbbb;;;;bbgbg####tt=ccfp7cpccctt##ggggbgbggggg#gg####gggggggg",
"ggbggbbbb;biiiiihhhhhhnhhhhiiii;;;;;;;;i;;;;bbgg#g##tl#ttc==:cf=mm#uggggbgbgbggg#g##gmg###gggggg",
"g#ggggggbbb;biiiihihhhhnhhhhhhihi;ii;ii;hiii;;;;bgggg#l#::::=m:m##ggggbg;;bbbbgggg#gm#ml########",
"##ugggggbbb;;ibiihhhhnhhhhhhhhhiiiiiiiiiiiiiii;;;ggggg#####l####ugggbb;;b;gbbgbgg#gmmm:l:t:=mmm#",
"###ggggggbbb;;iiiihihhhnhnhhhhhhiiiihiihhihiii;i;;bbgggggg#g#gggggbbb;;ib;;;bbggggmm::l==:=m=:l:",
"m:###gggggbbb;b;hiihhhhhnhnhhhhhhhhhihhihhhiiiiibb;;gbgbgggggggbbbb;;ii;ibibbbgggmm:l:=:oc:coc==",
"=m:#uggggggbb;;biiihhhhhnhnhnhhhhhhhhhhhhhhhhhiiibib;;gbbbbbbbbb;;;ii;iiiib;;ggggmm::=:cc77c7cc=",
":o=m##uggggbbb;;iiiihhhhnnnnhnhhhhhhhhhhnnhhhhihiiibib;;;;i;i;;i;iiiiiiiiiibbggg##l:==o777777Mcc",
"o:=mm##gggggbbbb;iiihhhhnnnnnhnhnhnhnhnhnnnhhhhhiiiiiibiiiiiiiiiihiiiiiiiiiibggg##t=:cpp7pppp77r",
"cc::##uggggggbbb;iiihhhhnnnnnnhnnnhnnnhnnnnnhhhhhhihii;iiiiiiiiihhhhhihihiiigggg#l:cc77Mppppppr7",
"ccll##gggggggg;b;i;ihihhhnhnhnnnhnhnhnhnnhnhhnhhihiiiiiiiiihhhhnhhhhhhhhiiib;gg##t=cc7ppp66ppppf",
"f==#m##gggggg;b;;iiihhhhnhnhnnnnnhnhnhnhnnhnhhhhhihihiiiiihihhhhhhhhhhhhhhib;gg#ml=c77p4p66666p7",
"ffmt##gggggggbbbi;iiihhhnhnnnnnnnnnnnnnnnnnhnhnhhhhiiiiiihhhhhnnhhhhhnhhhhii;bg#l==o7pp466q.6667",
"cf=#m##ggggg;b;b;iiihhhnhnnnnnnnnnnnnnnnnnnnhnhnhhhhhihihhihhnhnnhnnhnhnhhii;bgg::cf7pp64qq...67",
"7c=l#gggggg;b;biiiihhhnhnnnnnnnnnnnnnnnnnnnnnhnhhhhhhhhhhhhhnnnnnnnnnnnnnhhii;ggm==c7666qkqqk..p",
"pf=###ggbbbbb;;biiiihhhnnnnnnnnnnnnnnnnnnnnnnnhnhnhhhhhhhhhnnnnnnnnnnnnnnnhhibbg#m=cj6..q<N<qqk4",
"ppct#ggggbbbb;i;iiihhhnnnnnnnnnnnnnnnnnnnnnnnnnhnhnhhhhhhhnhnnnnnnnnnnnnnnhhiibggm=op66qNNaNNNq.",
"67c=m##gbbbb;;ibiihhhhnnnnnnnnnnnnnnnnnnnnnnnnnnnnhnhhhhhnhnnnnnnnnnnnnnnnnhii;gg#=cp6.qNaaaaNNq",
".67c=#ggggbb;iiiihihhhnhnnnnnnnnnnnnnnnnnnnnnnnnnnnnnnnnnhnnnnnnnnnnnnnnnnnnhhiibg:c7.kN*55% 5aq",
"q.7M=m#ggg;b;ibiihhhhhnnnnnnnnnnnnnnnnnnnnnnnnnnnnhnnnhnhnnnnnnnnnnnnnnnnnnnhhiibgm=c6.<a BBBB N",
"Nq.pf=m#ggg;ibiihihhhnnnnnnnnnnnnnnnnnnnnnnnnnnnnnnnnnnnnnnnnnnnnnnnnnnnnnnnnhii;b#=:pk< Bz,zzz ",
" aq47c=mggg;biiiihhhhnnnnnnnnnnnnnnnnnnnnnnnnnnnnnnnnnnnnnnnnnnnnnnnnnnnnnnnhhhi;;g#=7.q xzV&Vzz",
"B <Op7=:#gg;b;iihhhhnhnnnnnnnnnnnnnnnnnnnnnnnnnnnnnnnnnnnnnnnnnnnnnnnnnnnnnnnhhhibg#:c66a9zVs@s&",
"V,5<6pccm#gg;iiihhhhnnnnnnnnnnnnnnnnnnnnnnnnnnnnnnnnnnnnnnnnnnnnnnnnnnnnnnnnnnhhi;gg:cp6N 1V>$$v",
"@-B <6j7:m#b;bihhhhnhnnnnnnnnnnnnnnnnnnnnnnnnnnnnnnnnnnnnnnnnnnnnnnnnnnnnnnnnnnhibbgg=c6qa,&>ee$",
"X@& aq6Mo:gggiihhhhnnnnnnnnnnnnnnnnnnnnnnnnnnnnnnnnnnnnnnnnnnnnnnnnnnnnnnnnnnnnnii;b#:fpqaB&$e3y"
};
