/* XPM */
static char *magick[] = {
/* columns rows colors chars-per-pixel */
"100 100 10 1",
"  c #b0b092927878",
". c #b9b99a9a8080",
"X c #a5a586866d6d",
"o c #c8c8a9a98d8d",
"O c #c3c3a4a48888",
"+ c #adad8e8e7575",
"@ c #cbcbadad9090",
"# c #bcbc9e9e8282",
"$ c #d9d9baba9d9d",
"% c #cfcfb1b19494",
/* pixels */
"OOOOOOOOOOOOOOOOOOOOOOOOOOOOOOOOOOOOOOOOOOOOOOOOOOOOOOOOOOOOOOOOOOOOOOOOOOOOOOOOOOOOOOOOOOOOOOOOOOOO",
"#ooooooO#OoooOOoO#OoOOo@oo@o# .#Oo#..OO#..#oo#OO#OooooOOoo#### .#O#...OOOOo@@OOOOO#oooOO######O##OOO",
"#o@o@@oOOo%$%%oOOOoOO####OO##O##O@o#OO###OOoOOoo#o@oO##Oo%o###OoOO##OO#.O@%@oO#Oo#Oo@@oOO@@OoO###O#O",
"O####OoOOo@@oO@oOooOOoO##..OooOooO#O##O@@OO##OO...O..OoO##OOO%%@O#OOOoOoo@oO#oOooooOOOo#OooO...OO#OO",
"O# OO.#O###...#####.#OooOOOOooo%@##OooooOOoOoO..o####OO X+..#oo.O@oo@oo@o. ###OO##. .##o@@OoOO@%o##O",
"OoOoO. #oooO#...O##OooOooOOOO%%o#OO.oo##OOooO###oooo@oo#.##O#..#O@@@o#OO####OOO..##O#.Oo#  OOOOOO#.O",
"#OO.#oO##O@OOO#.OoOoOOOO##OooO#.#oooO###...OoOoOO@OOoO#o@oo@o.#o.#oo#O#..OO#Oo#. .@%@ooo .##OO.###OO",
"OOOOO@%@o.#.#OOo@oOo#.O#.oo##. .Oo@@O#@@oO##OOo@ooO...Oo%o#OOOO.   #oooOOOO####O#Oo@@o#OOOOoO#OO#OoO",
"@oo#.#OoO. #ooOooo@OOOOOOOO##OOOoooooOO##OoO#OOOooo#  .#oO..OoO.  .#oo##oO#O#OO@%oOoO##O@%@OOOo@@@@O",
"@oOoOO#.#O#@%@@O.###O##@@OO@ooo@o. .###O@%@oooO#O##OooOO.#@oOOO@%@oO#.OoO##ooOOooO++ #O#OO##OO@@@ooO",
".O#O@@Ooo#oooOooOO##.#OOO##OoOoO.#oO###OoO.O@OOoO##Oo@@O#Oo@o#.o%@O#Ooo@O#O@@o@@oO..OOOOO##O##O#OOoO",
".####oOo@@@#.###OOOO@@@OO##OOOOO#####OO###. ###OO#OOo@@@ooOoO##.OoO#..####O@oOooo@@O#OOO#OoOoo##OO#O",
"%oo%o.#.#oOOO@o.#OooooOO##O#.#OOo@oO#O%%oOo# O@OooOOO#.O@@O#O@%o#.o%@O#.#O##O#OOOo%o#Oo. #o#.#oO..XO",
"OOOOO###OoO#OO.##OOoOOoo##O#OoOOO@oOooooooooO#Oo..#OoO.#@oOO@@@@# O%%@oOo%@OO@# .#o@@oO.#O#OO#oo#  O",
"###.o@oOO#O#...#####.###OoO#O@ooO#OoOO..#OOOO#....ooOOOO##OO##OO##.  #OOooOO###OO#.#oOOo@ooOoo#Oo@@O",
"#.#OO###...O##OOOO# ..  #oOOooOOO# #...#OOooOOOOOO##..oO..@@#..OoO# + #O######OooO##OOo%@oooOo#.#ooO",
"#OoO##OO#.OoOo%%@@O#OooO#o@OOOO#Oo..O##@O###oOooOoooo#### .##..#OooO@o@@O..#OOo@@@ooOOooO##@%o#.#OOO",
"@oO##ooO#oooO..Ooo@oOO@%@oOO###O#O@@OOoOOO  #o#OoooooooO#.  .#o@oOOOoo..##O#..OOOO#O#. .#OOO###OoOOO",
"OOOOOoooooOOoo####OoO##Oo##OO#.OOOoooOo##ooO...#o@@##ooO..OO@oOOo@oOOOo##OoO..  #.#ooO#..OO# .OoOOOO",
".OooOOooo@oooOoOOOOoo@#.###O#...OO#O@%o##O@@O#o%@OO#.#OOo@@@oooO.#OOOOooo@o@@o...#OOooo##O##.O@oO##O",
"oOoo#####.#.  O@oooo@oo#.OOOO#Oo#....OoO#OO#OOO#oo##O##oo@%oOOO..OoOOO#Oo##O@%%O.oo#+ oooOOo@@%@OOOO",
"OOOooo###..OooOOo#.OoO#o@@@OOooooooooO.#o@oOO@@#+++.O.+.#OO#o%O.##ooOOOo#.#. #ooO#ooO##oo###oO.#Oo@O",
"##OOO#.#o@@@%@OO#...#..OoooOO@@@o@@oO#Ooo##O@oO#. #OOOO#oo###OOoo#..###  Oo@o##o@O#O@@OOoOO##O..#OoO",
"OO####o@%%@oOOoO..O#..#Oo#...@%@OOO.#o@oO.##. +.Oo@@o@$%OOO. +.o@oO#OO###OO@%O.OoO##@%oO#OooOO##OO#O",
"O@O##o@@o.  +.OOOOOOOo%@##OOO##.#..OO#.#OOoO###.#oooO@oo# OoO..OO#.oOo@%@O##OooOO. .OO# .#OooOOOOO.O",
"OO..#O#.  .#.  .#o@oOoO# #Oo@O  ##o%@oOO###o@oooOO##Oo# #o@@oooOooOOo@%%ooo. O@oooo# .Oo@@@%@O#OOOOO",
"..##O. .OOOooO##.O@@Oo##OOOOoOOOooooOOoooO#o@@@%@OOoo##OOO#.#Oo@o@@..##OooOOO##OOOo@oOoooOO#OOooO##O",
"###O#.##o@@oo@@@@oOO#.Oo%oOO##OO#O. ...#Ooo#..OoOOoo#..o@O#.OoOooOO#.#.###.#O#Oooo@ooOOoO#...O@@O##O",
"%ooOO%@OOOoooooOO#. #. #O@%o.##o@o. .###ooOO###..#.OoO#.#Oo@@O. .#OoO#.+ #O#.#O.#OOOooOO. . +.OOOOoO",
"@@%@@o@@o#..OO#O#..##....OoOO@@oOOO##OooooOOoo#OoO##ooooooo@O.#.#O@@oOOooOoO.O.  ...###..##.oO..o%%O",
"#oooO.#o##.#.#OOOOo@ooO.## .#Oooooo@@O###OoOOO##OOo#.ooo@OOO##@@O#.#@oo@@@oO##OOo@O.....#O#o@o##@oOO",
"#O#.....#O@@oOOOOo@oO@@o@O.O##.OOOoooO##.#OO#OoOOO##..##.++.o@@@@oO#OooOOo##ooooo@@o#O@OOo@@ooo@#  O",
"oOOOOoO.#@@@@oOOooOo%@%%oOOo@oo..OOOOo@ooOOOOooo@oO###oo..#..ooO#OO##OOOoOOo@%%@#.#oOOoo@@oO#OoO  #O",
"o##ooooOO#.#OO#ooooOO##. #o@@##OOooooOOO@@O##OOOOOooooO##o%@O.#...###.#oOOo@@oooO#OOoooo@@oo@oO##OoO",
"OoO#OOooOO##o@O####O#  #oOooOO#OoO### ...OoO.#OO##O@o#..##oooo##OOoO#.#########o@o##oOOO#Ooo#OOOoOOO",
"##Oo@oOOo#.#Oooo##Oo@oOOooo##OOOO##OOO##. #o@OOoooO#oO##OO##.#ooOOooOoO####OO.   #O#o@oOooOOOO#O@@oO",
".OOOoo# .#OO X+.#O#.#OOOO#.  .O#.#@%%%OOO##oooo#.##O%@oOooO..#oooO.#o@@##.  ... .O%o######.###..Oo#O",
"#.#####. O@o#. .#O.  #O@@oOOOOooo@# #OOo@@O .OO#OOOOOo@@o@@@@OO#oooo@O#OOoo.  Oo# ###OO#. #..OO# .OO",
"oOO#..OoO##O@%@@oOOOO##Oo@@o###oO#OOO###OoO###OOoooO.#o@@oO##O#.#ooO.#OooooOOoOOO. #O###  Ooo@@oOoOO",
"o@oO..O@@o.#Oo@oooo@oOOO# .##OOO#.o@oO##OOooOooO#ooO#ooO#.  .#O#...   #oO#o@@%@@@@OooOOoO##OooOOooOO",
"oO.O@ooo@#..#oo#Oo@@%@o#..#O%@oOooO.OooO##ooOO.#OOooO# ++#OO@oO@oOOo@oO.#Oo%%@O@%@@OOoOo@@O.###.+.oO",
"O##o@@@oOOOOooOO#.###O#.O@@@@ooo@@# .Ooo#.####o@#+.OO###oo@@oooOo%@@%@Oo@oOO#####o@oO##Oo@@O #o@@oOO",
"#######OOOoooOooO.  .Oooo@oO##OoOOoO#OO#O#.#oOoO.  #OOO@@ooOOOO#OoOo@OO@oO#. #o###o@oooOOo@@o.Oo@O#O",
"#OOO#...  #O..ooO##OOOOO%o####OoO.O@@oooo@oo@@OO@@#.#oooOOooooOOOooO#OoO   #oo#OoO....OO#.#@%o#. OOO",
"#o@OO@@oo@oO#OOOoo@oO#..##.  oo##OoOOoOooo@@# .O@%@#O@o  O##O.#O#.##.OO#Ooo#OO#..# .OOOO +.OOOOoO.#O",
"@O#O@@@o@%@#.#OOooOoooooOoO### +#@O..OooooOOO#O#.##Oo#.OoO. .#O#O#.OO# .%@oO#o@o..o@o@@OOO#..#oooO#O",
"##### .##O@oOO@@O##o@o#...#oo..###.O##OO..  .o@O#.#OO.OooOooOO###O#Oo#...Oo@o.#oooo#OooOo@oOO@oO#ooO",
"#O#.  .#..#o@O####ooOOO.O##ooo@@o#OooO..#OoO##OooOOoO#Oo#.OOOOo@O##OOO#. .#Oo. O%@OOOO##OOOOOO#ooOoO",
"oooO#OOO#+X#o# .Oooo#O@o#OoO#OoOOOOOOO.  .@@oO##.#O#.#Oo@@o@%%@OO#OO#oOOO#  .OOOOoooO####.OOO..OoooO",
"O@%%%oooo#.#OO.#OO +OOO@O.OooO#O#OoO#O@oO  #Oo@#.#O#OOO#O@%oOO#  #@@@ooo@@ooOo@o#.. +#o@@oOOOOOooooO",
"OOo@@oOOoooO###..##.   O@OO@@o#.#o@o#Oo@%@ +.oO#oo@%%ooO..##.  #OOo@O#Oo##Ooo#####    #Oo@oo@@o.#ooO",
"OOOO#.O#O@o##o@o##o@##.#Ooooo###oo######O@@o@o#O@@OOOOO#...#.#o@%%o#..#O  #OoooO#Oo@@o..OoOOoo#+ ##O",
".##OoO.#oo@%@o@@@@oo%%o#.OOOoo@@OO##o@@O#O%@o#o%@o#. .#  #OOo@o@oO#.#OoOO@@O.O@oo@@$$%@oO#.+ #..#O#O",
"oO#.#oO..o@OO#.#o@@o@@@o###..#OoO.#OOOOO##oo#OOOoo@o.#O@@o@@%%ooo..ooooo@oOO###o@@@o##ooO.#O##OoO#oO",
"O.#O#o@O##OO##.#..Oo#.OOoo#####O@oO##. .###O%o.+.OooOo@oooO#O#OOOoO#OO#o%O##OOO#OO#  .#O##Oo@o@@oOOO",
"..#OO##oo#.#ooooOo#..#OOooO##OO#O@%@ooo@oO#oo# ++##O@@O##OoO#.O#.#.#oO#O@@##..#O## #O## .#O@ooooO#.O",
"OOOOOO##OO..o@@oooO#.#OoO#OooO.+X#@@@o@ooO##.#oo..OooOO#OOo@@O.#. .OOOoO.o@O. .OoO@%@oOOooooOoO##.#O",
"oOOo@ooOooO..OOooO#OoO#..Ooo@oooOO.#Oo# .OO .O@@%o..##OooO....OOoooO##..#OO@%@O#O@o#Ooooo@o##..OOooO",
"OOOOo@@@o@ooO#OooO.#oO##..#OOo%%%O .#...#oO#..#Ooo#.##.OO.   .O##o@oo@@OOOoo%%o.#O#. .###oO#..##OoOO",
"ooO +o@o##o@oO##OOoOoooOoO#.#OooO#oo##OoooOoo#OO.#O@O....#oOo@oOOooOOoooOOooOooO..Oo##O##OOOo@@oO#OO",
"##..###. +##.. . #OooooooO##O#    ##OOo@ooo@@@ooo##oo@oOOo%@@@%ooO# .##.  O#.#oo#.#o@oo@oOOoo@oooOoO",
"#OO@o  .##. #Ooo#  #.#o@ooOO# X.OO#OOOOo@ooooooOOOO#Oooo@@OOoo#...OoO....#....ooOOoOooOoO. ##  .#oOO",
"ooooo#.O@@oOOOooO..#oOOoo@@O###.OoooooOO#.#oo@@O##OOOOooooOoO.#oOOoOoO#o@#..#OOO##OOO@oOO##O#..#.#OO",
"oOoOO@@ooooo##..Oo@oOO#. O@@ooooooooOOOO#.#O#..O@@oOOOoo@oO#.. OoO##O@oOOoOOoo###OOO#OOOOOoOoo@oOOOO",
"OO##o@@OOoOOOOOOOoOO#OO.. .o%@%%@oO##oOOOO# +++.oO#....##o#..oO#OO#Oo@@O#o@%@#  #oOO#.OoOooo@@@oOO#O",
"O#OOO. .#...Oo@@oo@@oOOoo@O##o@oOO#.####O@O##ooO#######OO##OO#oo#OOO##.OoOo@ooooO#OOO#..#OoOO@ooOO#O",
"O#OO#Ooo#.#OoooO@@ooooOOoo#..## .#OO...#Ooo@%%%@O#Oo@@oo#.##OoooooOo###.OOO##Oo@oO##OOO.o%o#OOOOOo@O",
"OoO###OoOOo@%oOOoO##OOOO#..O##O#OOoo#.#.##ooOOOooo@ooooO####OOOOoo@o##OOO@o.OOOo@oOoooooooOo#  OoOOO",
"OooOO# .##o@ooOO#OoOOOoooOOoOOOoo#Oo@@@@# . .#.##o@O  ####O@o#  .o@oOOo@..###O@oo@@@@@Oo#  .... #OoO",
"OoO@%@oooOOOOO#.#OoO#OOOOOooo##OOOoOo%%oo#.OO####. .####O#OooOOoo#..#OooO  .#O#.#o@Oo@oOO#OOOO#.##OO",
"#OOOOOOo##OO##..###OOOO#Ooo#.##OOooOOO##o%%%o##..OOOOOOOooo##O@%%o#Oo%oOoo#.O#  ##oO#OoOooooOO@@###O",
"#.###oO#..#O###.  #OOOOoooO#.Oo@@O..##.#o@@OOO#OOo@@OOO##@@oO@%OO#.o@oO###O%%O..##    O%@O#OoOooOOOO",
"#.  OOoooO#...@@oO##.#OOO##oo@@ooO####OO#.#. #@@@o.#oO#.#Oo@oO.#. .O# ++ .#OOooOOO###...## +..#OO#oO",
"Oooo..Ooo@@OOo@%%@oOO##O.  #ooO###OoOO#OoO#O@oo@oOOOoO#..#OO#..OO....#OoOoO..O@%%%oOOo.XX.o#O%@OoooO",
"o%%@O...#OooOoOOoOo@ooOoOOooO..OOO@%@o#OooOOoOOOOOOOOo@%oO##OO..#Oo..o@%$%@oOOo@oOOooOOO###o%@OO@oOO",
"@@@OO####O#...#.#..#OOOOooOOoo#.#OOo@oO#OO#..OoO##OOo%%%%O..#O#.#o@@OOoooO@oOooo# #oo@%%@@oooO##oO#O",
"#  .OooooO+ O#.O@@o#####oooooO#.#oOOOO@O##  O@oo@oooooOO@@#OOOooo@@%oO. X ####O. .O##O@@o@%o. ..#O#O",
".  #@@@@@@@oo@@Oooo@oO#.#O@o#O@@O##  .#O.#ooooO.#O..#. ..o%%%@o@oO#.#. + #### ..Oooooo.#O#O%@oOOoo@O",
"O##OoO#OooOOOOo###.o@@o@@oO##O@@oOOO..#OOO@%o##. .#..    .#O@%@@@ooOoooooo@oO##oO##ooO##OOOOOOoooO#O",
"ooOOoo#.#. .###O##.#OOO#O. #OOOO##OooOOoOOOoO..oO###.#O#.++  .####Oo@@o@%@o@@O#OO##. .O#OoO  OooO. O",
"oOOO#oO. .O##OO##.O##....Oo@o.+.# O@%@oo# ####o%@oO##o@@o### .. #O  ##O@%oOOO.+.o@o. .#oOOO##OOO#..O",
"###. #@@OO@oOO .#o%%OOOOooO#..##..OOoo#.OoOOOOOOOOO##@@@%$%@O#OOoOoo###O##ooOo@oOooo@@o####oO### OoO",
"#ooooOO@@oOoOoo#ooO#OOooOOO..##OooO#OOooooo@@o#..Oo@OooooooooO#O  OOO##  . .O@%@O.O@@O# +#Oo# #ooooO",
"OO@%@O.#oOOoooo@@o#.###OO#Oo@@oo@@oO..OooO##OoooO#OooO######OoO#...#oOOO####OoO#O####.  .OO@@@OO#O@O",
"O#.. #####oooo%%o#.#OOO##Oo@@@@@@O####..#OO.##O%%oOOoO#O@OOo@@@o@@oO@@@@o#.##OO#o@oO#.Ooooo#O@@@oo@O",
"%o X #OO#OOo@ooo. .oOooOO@@O#O##OO#ooo###O@oooOOOOOO#OooO#OOO.#oo@%%oooOOo@oOO#OOoO#o@@%@oOO ##.OO#O",
"ooOO#OoOOoOOO.  .o@oO@@O##O#OoO#.###OooooOO@@@o.++#OOOOO####..#O#OoO.OoOOOoooO##.####ooo@@O#OO#.  +O",
"##@@O######. .. #OO.O@@o@##O##OO#OooOo@@ooO##..#.Ooo@####OOOOOoO####O#.Oo@oO#.#O#..OOooOOO###  ###OO",
". .@o.#OO# + .#OOO.oOO#Oo# ...OooOoo#.OoO#.##.#o%$%o#O@OOOo#.#OOO##O#...OO#OOOOOOO..#oo#..#O##o@oo%O",
"o@O#oooOO##..OooOOooO +  OO.#Ooo#........ .  #OOO#...###oOOO#.##OOOO##ooO.##O@@%%OOOoO#oOO#O@%%%@o@O",
"O%@oo@ooOO@%%@oOOo%@O#ooO#ooo%@Ooo##Oo..#OooO.  .  #oO.##.#o%%o#OOO#Ooo@OO###oO#OoooO#ooo@O#@%o#o@oO",
"#o%@OOooOO@%%%@oooO##OoooOooOOO##O#.o%%o#o@ooooooooooo@oOO#o%@OO#OO#OoO..OOOO##..O@O.#OOoo@@##. OoOO",
"O#OooOOOooOooooo#..##OOOOooO. .#O###O@$%oo###@%@oo%%O.####Ooo##oO##.O@o# #@o#OoO######.##.OO. #@O#.O",
"    OO#OOO#.  .OoooO###O###Ooo.#o@@oO##OooO#oo#.... .# .OOo#  .Oooo%@@oO.#OoOOo@o###oOO##..#O#ooO#oO",
"#.   #OOoooOo@@ooo##oO##OO.OoO##Oo@oo. .#Oo@o##Oo#..#OoOOo@#.#Oo##oo@o.#oO#Oo..Ooo@%@@oO#..#OO#OOO#O",
"@OOOOOOOoo##o@oO####OoooOO#OO#OOOo##O##ooOO##OOo%%oO#O@oooo@%%@OOO#....#@@#OoO X+#@@O#.OOO##O#.OO# O",
"@@@oOOO#.#O# ++ ##o@Oo@@oOOO###.#.###oo###OOoO#.O@@@%@oo@oO.#ooOo@oO..OoooO##oOOOOOOO##o@@@@@ooo##oO",
"ooOOO##.####O###Oo#OO#O##o@oOooOO##O##O#OO###OoO. #ooOOoooO.+X OoOOooooo#.#ooo%%@@. ###oooooo%%OOo@O",
"O# #OOOo@O##o@%@ooO##O...OOO%@O##OO####oO. .#O@@O##  .##.#OO#OOoo#..##OO# #Oooo##OoOOO#...O@oOoo@o#O",
"....#oooooo@ooooOOoO#oO#O##O@o@@o##OOOOOOoO@@OO##O..#oO## .o@@oOOOOoOOOO@@o#..#O#.oooooO##  . .#.#.O"
};
