/* XPM */
static char *magick[] = {
/* columns rows colors chars-per-pixel */
"128 64 25 1",
"  c #999933333333",
". c #ffff33336666",
"X c #545400000000",
"o c #000000004444",
"O c #111111111111",
"+ c Gray40",
"@ c #cccc00009999",
"# c #222222222222",
"$ c #777777777777",
"% c #646433339999",
"& c #ffff33339999",
"* c #cccc00003333",
"= c #989800006565",
"- c #656532323232",
"; c #cbcb32326565",
": c Gray20",
"> c #000022220000",
", c #444444444444",
"< c #313100006666",
"1 c #656532326565",
"2 c #323200003131",
"3 c #999933339999",
"4 c #666600003333",
"5 c #555555555555",
"6 c #989800009898",
/* pixels */
"44222O24-=4= =44;=;;155,551555+5555$1$++1+55515,51++1551,55,-,,:-::#:##:2::2#:##2,2,#OOOOOOOOOOOOOO2#<42:22#22O224==-42=414=4:4=",
"4,22244#24;4=41;;;$$$15+555555515151$+%+51555,555515,15,55,-,::,::2:###2#:##:##2,::22#OOOOOOOOOOOO#22-2:2222oO2#:4= =4=414=444=4",
"522X4#244-44-4143$$$1++15551551,,55+1$51++5515,-,1+1+5,-,-,::,,2:#:#2#####2##O2:2:<##OOOOOOOOOOOOOO#222424:22#2242==4;444=444144",
"42X2244#244-4,-$$$$+++1+55,55,,55,51+15++151,5-,,5555,-,-,,2:,2,###2##2##OO#O##2:<:#OOO2OOOOOOOOOOO222-2=,22O22X2=-=;4=4=41414=-",
"4224:4:44-2255$$$$+1+1+55,-5,5,,,,55551+155,55,,551,5,,,:,:,:2,:#:2##O##O2#O#O2:2:OOO#OOOOOOOOOOOOOO2-2=424242224-=44244=-444=;4",
"4-2442444:5551$$$+1++555555,,5,,,5515%+155151:,-5,,-,2,2,::2,:,2:2#O2##OO#OOO2O##2OO#OOOOOOOOOOOOOO224=4:42424244=4424414=4=14=1",
"544:441:5151++$+1++55155,5551,,,5,-,1++551,15,,,,-:,2,:,:-2,2:,:2#O##OO2##OO#O#O2OOOOOOOOOOOOOOOOO2O414=44=1424:44424-=4141441=4",
"4=-44,-115++++1++15155,5-5,5,555,-5551511,$5,,,:,:,2::,2,2,##,2:####O#O#2OO2O#O#OOOOOOOOOOOOOOOOOO244=444=;4=4:442422=4;4=4 ==;;",
";441,-+55+1++%++1+555,-,,5-,+15,-5,+155,5151,,2,::2:::2,2,#2,2:#2##2#O2#OO#O#O2OOOOOOOOOOOOOO22OO22454=24;==-424242-=4;4=;4=; ==",
"=-15++5++5+%%++1+5555-5,5-,5551,,,51+5,-551,,:,::2,::2,,,:2:2##:##2OO#OOOOO#2#OOO#OOOOOOOOOO222222-4=4241=;4=44244544 ===;=;==; ",
"51$+1+15515$$$1++51,55,5,,5,515555155,-,,1,,-::2::::2,::2::2#:#2#2O#OOOOOO#22222OOOOOOOOOOO224#44-4=44424=41442=-=4=-==;;=;4;4;=",
"$$5$51+51+$$$;$+115+55555-,5,5,51,51-,::,,-,,,2,::2::#:2:2###O2#:O#O#OOOOO22,=:22#O2OOOOOOOO2:4244=4442:4;===-=-=-=4=4;4= =-4-51",
"$1$5$5555++%$$$$1+55525,5,-,5,-,,1,5,::,:-,::2,:,2,2#2#:####O2#O2#O2OOOOO22,=4=:222OOOOOo2O224242=4;4224=4;4-=4= =4-4=4;4=-=,1+$",
"+$5$1+511+%$$$$$+$1,,,,,,-,,,-,,,,55,:,2:,:,:,:,:###2##22O#O#O##O#o#OO#OOO:=41=444:2OOOOO22#22224414-4244=4==4;;=4-44-=44,55++%+",
"1+$1++1+5$+$$$$%$55,-,:,2,,5-:,:-,,,-2::,2:2:2,:2##O#2##O#OO##OO#O2#2Oo2O2=41=-=122OOOOOOO2222242-==442-=-4-4;==144<-41-,11+1$++",
"+1$$$1$+$1$$$$5$15,-::,:,:,,,::,,:,-:::22:::::,2:2#2###OO##OOO2#O2#2:22#22-====-22OOOOOOO2222X22244;=2-444=4==;;414-=-1,1$+5++1+",
"1$1$1$+$1+$;$$$-5,-,,,::::,2::,2::,2,:2:#:2::,2:2#O##O2OOOOO#2>O2O2:22,425==14,24#2OOOOOOOO2X22X24144-4244;=;;=;;41451+5+55151++",
"++$1+1$1$$1$$51555,::::2::2,::2:::2,:2:##::::2::#:2##2>OOO#OOOO#O:22O22==4=;4=4222OOOOOOO2OO22224:4=44<44;=;;=;;;115$$515+55+5+1",
"$1$+5+1+$1$$1+51,5,:,:::::::::#:#::#2:#:,2:<::2##2##2#OO#OOOOOOO222#2O241=4=142424O2OOOO2O22X2X22444-=4;;=;=;;;=5;+$$1+5+1555+5+",
"1+15515+1$$1$1555,-::2:::2::2#:#2##:##:,2:::#2##2##2#O2OOOOOOOO22#42O22,4;=;4<42422OOOO2O2422224-24-44;=;;=;=1-+$$$$$$1+5,5515%5",
"5++515,1+$1$1,5,5,2,::#::,::#:2::##2#:2:::2#2#O2##2#2o#OOOOOOO#OO42#OO22==;4=42-2222OO2O2442224244-2=1=;;=;=-+$1+$1$1$$+15555%5+",
"+1515,55+%$155,-<-,:::::,#,2:####:2##2:2:2#2#O2O#2#2O#2oOOOOO2O222:OO224= ==42-4442222X24=-4442--42=44;==;;+$1+$$1$+$1+1555155+5",
"5+1,,5151+15,-,-,:,:,2::2,,:2###:2####2#2:2#O###2#2#2O2#OOOOOO2O2-22O22-4==-44=4=24-4244= ==4:424144-=-;1$++1$+$1$+++$+$155,5551",
"51,5,5,1+1,5-,,,,,:,:,:2,:2::##22##O2##:#2#O#O#2#22222#2OOOOO2O2222O22244144444=44-==4454=;4442-;4=-4511$$1$++$%$+$$%+1+55,55155",
"155,,-,,,,5,,,5,,,,21:::#,:2##2####2#O#2##O#O2#2522:2#2OOoOOO#245422#222-4=42=-=41=4;=-=414=41444=-=51$$+1$5$1$$+$+1+++1515551,+",
"5,5,,,-,,-,-,<:-,2,5,:,2,2###2#O##O#O2#OOOO2O#252<-2OOo2#2O2224<422O2224=4424-=414=;;4=4=4;41442=:15$$1+1+++1$$$$$%+51+5555115+1",
"55,,,,,,-,::,-,,2,,,:,2#2#2###O2OO##2#OO2OOOO2,2=-22Oo2#222244=-4222O24-442=4==;4=;==;414-4-44-:-5++%+$15+51++%$$%$+155155155515",
"1,-::,,5,:-,::,:,:,2,2######2##OO#2O##2O>OOOO22=:4<2O2O2O#24454=422O224==4=-4=-4= =;;=-444144-,151+$$$1555155$$$1$+155151,555%55",
",-:::,,-,:,:::::::2::2###O####2#OOO2#2OOOOOOO224=-22#22OOO22244=4222244=4444=4=4;4=;4=4444-2++$++1++$+155,5551+$+$+1555,,,5,,515",
",,:,,:-,,,2:2::22:#::###2#OOO2#OO#2#2OOOOOOOO22,4=4222O2OOX244=4422X24= 14=--=-==;4414;4-:,1+$$11+5$$1+555,,5++1$+1+51,,,,,--5,5",
"-::::-,::2::#:2::2:2O#2O#O##2#,2#OO22OOOOOOOO#2454=-422O#2222=-422244=-=44-=44= 4=-=4145515+$%$$$5+$1+555,-5515$5;$515,,-,,,5,-,",
"::,:,#:::::2:2:#2####2##O#O2O22#2OO:2#OOOOOOO2224=4=42O2X22O-44<4242=-444144=-4==-=-14+1151+1$$+1+1$$+55,,,,5551+5+15,,-,,:-,-,-",
":2::2::2#:2:O##2##2###O#2OOOO#22#O#2:2OOOOOOO22222-22#2O222424=4#22-444=-4=-4=-4-=-=-+1+5+5++$1$$++1$151,5,,51551515,,-,,:-,,,::",
"::#:::2::2:###2#2#2##O#OOOOOO2##2O224OOOOOOOX22##222O2O2424244224244424-=4-=44= =-1+$1$5+1+551$5+1+$1+5,5,,5551,,,,,,,:,,,,:2,,:",
":2:2##:#2:#2#O#2#o#O#2OO#OOO#O222#O2<2OOOOO222#2OOOX2O22242-244-2424:4;=41=4-4-=51$1+$51+5551++%++1+$555,-,551,5,,,-:,::,2::,:2:",
"2:#::2:::#2#O2#Oo#O#OOO#OOO#OOO#222:4#2OOOO22:2X2OO2O22O22-24=:442-44;=4==-42:55+$1$+1++515%+55+1++11+5,-,,51,,,2,:::::,:,:,:2,#",
"##2:2,#2###O#OO##O2###OOOOOOOO22#2#2=4O2OO2224OOOO#OOO224424=-442-=4;=4;;44:-,1+$1++$+15+5+5551+$15+$51-,,5,,5,:,::::2:2,#-#,:::",
",2:#:###2#2OOOO#2O#222#OOOO2OOO22#24-422222222#OOOOOO2O22-4=4=4=4=4;;;=;;:5555+15+$%%$+$551551+55515+1+,5,,-5,,2:::22::::::,,2:2",
"#:#,:2###2>OOOOOO#O,2,22OO2O22O2#2224=-22#224#22OOXOOO2X4=;=-414;=;;;=-=,155515+1+1$$$%51+5%1+,+155%++15,,-,,,2,::2:#:##:,,2::2:",
":2:22:2#OOOOOOO#OO2414<22O222#2O244,4:=44242O4O22XO2O2O24;41=14;=;=;=-1$$5555555++$$$$$1+5%5+5155%5551,5,5,,-:,::2:####::2:,:2::",
"2:#####2#OOOOOOOO2:22<-2#22,22224<-2244424224222X22OOO224=;4=;=;=; =5%$$15551,+51+$%+$%+1+5+555155151,515,-::,::2:#####2#::2#::#",
"##2#2#2#OOOOOOOO#2222:422#244222-4=4242=442-22422O2OXOO2-441;;;=;41$1$$1555555515$1++1$$551+51,51+51,,5,,-:,,::::###:###:2##,,2#",
"#####2#OOOOOOOOO22:2O245224=22:4==4424=-=414242422O2O2O2241*;;=1-$$$$$++51,-,551+1$+1+11+5+15515+15,5-,,-,,:,2:2:##2#OO#O##,:2:2",
"2#2#22OOOOOOOOOO2:2O2224222-4-4=4= <4=-=4144424#22X2OO2X4-4;@;$1$+$+$+1+5,5,55151$1555$+51551,515515-,,1,-,:2:::#####O#O2##2<:2#",
"#2#<##OOOOOOOOO22222O2,242-242441==414=4;==42-242-2X22O2-4=1+$1$+$%$+$155555555++1+551515,15,555155,1,5,5,:-:###:2##OOO##O#::<:2",
"2#2#2OOOOOOOOOO242:22#24222444<1=;41=414=;44-224-4222O244<5$$$$+$1$$1++555,5,151%+55,55555515551+1,1,,,2,,,22:#22####O#O##22,:2#",
"#<:2#OOOOOOOOO24,222O2244424=24=;4=44144;4=,424#444-22-:,5++$3$$+$$+$1551,55551++55155151,5,,5251,5,:,2,,<::######2OO#O2O#O#22:2",
"<-2#OOOOOOO2222-4=2OO224=4,4:4= =4444444==-444-44;422#-1++1$1$$+$$$$15515+5151+51+1,,-,5,5-,5251,,,2::::2,:2##2##2O#OOO#O##22:=,",
"-=,2OOOO2O2222#4=222O24245424=-=;42544214;=4-=4=;4-2,5551$+1+$$$$$$55+55511+1551+5,5-,,555,,,,-,5,2:,2:2,:2:###:2##OOO2>#2OO#2:=",
"2-2O#22222,22#4=2-2O2X244=4444=;4=-=4144== == = 4-,5551++51++$1$$$5$+15%%+555155155,,,,,5=,:,:,5:,::::2::::#2##2##O#O#OO2>OOOO<#",
"-2222#22#4224442-222O224=4442= =4;=4;4=4 ;=;4=-=+1555155555511$5$+1+5%+55+5155515,-,,:,,,,,,:,-,:2,,2:###2::##2##2OO#OOOOOOO#oO2",
"222:-22222222,24222X2242-=41= =41=;;;=-4=4;;;11$+5+55551515%555$+1++%+5151551515,-,:2,:,,,2,,-:225,2,2:##:#<2##22>O#OOOOOOOOOO2#",
"22:22222#22-424224222X#44=14==414;;@= =4-=;;3+$++1515+555555+5%51++1+5551,515,5,-,,:,::2,-,,:,2,:,552:#2#2#,:2###2OOOOOOOOOOOOOO",
"#22422O242-24422424#X222= ==4 =4=@&;;=4-4-1$$$$$$+5++515551551555+15555,,,5,,-,,:,:,2::,:,:,:2:#,5=<:#2#2#:2,2,O2>OOOOOOOOOOOOO2",
"22-22O2O222422424:2422O44= 41441;.&;;;=-51$$$$$1+1+15155515,55551+551,-,,55-,,,,,:,2:::2::-2::#:<51,,2###O2:2,#2OOO#OOOOOOOOOOO2",
"4:222O222242442-24222O444-=44414;@;@;=511+$1$$%$%++555555,5+1,51+515,,,-5,<,,,-::,2:#:2::2#::#2:,<52###O##O2#22#O2OOOOOOOOOOOO22",
":42222OX222422-2422O4242-444-==;=;;=$1++++1$$1$+++1+5%55155,,55551,5,,-,:,-,:,:,:2::#:###:###2:#2,2:2#O2OO2#O#o#2O2OOOOOOOOOOO22",
"4242#X2#22X22-242424242-222-4;;=;;1$1$$1+$++1++1%+$55555,55-,51555515-,:-:::,:,#2,##:2:#2#2##:#::2:2##2#O#OOOo#22#o#O2#O>OOOO224",
"2424222X224:424=44:242-2X4441== 1+$$$+1$+1+1++5$5$51515155,,55,51,5,,,:::,:,2::-:::#2####O###2:2##2#2#O#O#OOO2OO22:O2O2#OOO2224#",
"424242O22424444-=-442-2X42#4415$$$1$$1$+$+1++5%5$5%555%5,,-5,1,155,-,#::,#-:::2::2#:##O#O#O#####2##2#2#O#2OOOOO22:22O2#2OOO224:4",
"4=2-224224-=414= =4=-2422X-251$+$1$+1$+1$1$+15+1+%++155,5-,5551,,-,,:-::::,::<,:::#2###O#OO#O#2,O#2O#2O22#2Oo#2O:222222O2O224-42",
"44-2422O44=4=4;==-=-4422O::5+++$+$+1$5$$$$15551+++15551,5,5515,,,,-:,::22,:2::::2:2:##O#OO#OO2#22#O#2O2##22O#O#224422#222224=4=4",
"=-2422O44-4;4;=4-=-=;4-#-,515$+1++1+$$1$1++515551++151,55555,-,55,:::2::::2,:,2:#2:##2OOO2OO#O#O#O2OO:2,22:o2#2224,4242224424442",
"4422X24244;==;41= 6;=-,-,555+1++1++1+1$$$15%+5%515%55,55-1,-,,-,,2,22:##:#,:,2:2:#,#2#OOOOOOOO#OOOO#22,442O2O22O4,4442-244544=:4"
};
