/* XPM */
static char *magick[] = {
/* columns rows colors chars-per-pixel */
"121 51 15 1",
"  c #3a3a00007474",
". c #7a7a0000f3f3",
"X c #57570000aeae",
"o c #464600008b8b",
"O c #343400006969",
"+ c #68680000d0d0",
"@ c #63630000c5c5",
"# c #404000008080",
"$ c #80800000ffff",
"% c #74740000e7e7",
"& c #51510000a2a2",
"* c #2e2e00005d5d",
"= c #6e6e0000dcdc",
"- c #5d5d0000b9b9",
"; c #4b4b00009797",
/* pixels */
"O O   # ###o#o;o;;;&;&&&X&XXX-X-@-@-@@@+++=+===%=%.%...$.$$$$$$.$...%.%=%===+=+++@@@-@-@-X-XXX&X&&&;&;;;o;o#o### #   O O*",
"OO     #####ooo;o;;;&&&&&XXXXX-----@@@+++++=====%%%.%...$$$$$$$$...%.%%%=====+++++@@@-----XXXXX&&&&&;;;o;ooo#####     OOO",
"O O   # ###o#ooo;o;&;&&&X&XXX-X-@-@-@+@+++=+===%=%%%.%.$.$$$$$$.$.%.%%%=%===+=+++@+@-@-@-X-XXX&X&&&;&;o;ooo#o### #   O OO",
"OO     #####oooo;;;;&&&&&XXXXX---@-@@@+++++=====%%%%......$$$$......%%%%=====+++++@@@-@---XXXXX&&&&&;;;;oooo#####     OOO",
"O O   # ###o#o;o;;;&;&&&X&XXX-X---@-@@@+++=+===%=%%%...$.$$$$$$.$...%%%=%===+=+++@@@-@---X-XXX&X&&&;&;;;o;o#o### #   O O*",
"OO     #####ooo;o;;;&&&&&XXXXX-----@@@+++++=====%%%.%...$$$$$$$$...%.%%%=====+++++@@@-----XXXXX&&&&&;;;o;ooo#####     OOO",
"O O   # #o#o#ooo;o;&;&&&X&XXX-X-@-@-@+@+++=+===%=%%%.%.$.$$$$$$.$.%.%%%=%===+=+++@+@-@-@-X-XXX&X&&&;&;o;ooo#o#o# #   O OO",
"OO     ###o#oooo;;;;&&&&&XXXXX---@-@@@+++++=====%%%%......$$$$......%%%%=====+++++@@@-@---XXXXX&&&&&;;;;oooo#o###     OOO",
"O O   # ###o#o;o;;;&;&&&X&XXX-X-@-@-@@@+++=+===%=%.%...$.$$$$$$.$...%.%=%===+=+++@@@-@-@-X-XXX&X&&&;&;;;o;o#o### #   O O*",
"OO     #####ooo;o;;;&&&&&XXXXX-----@@@+++++=====%%%.%...$$$$$$$$...%.%%%=====+++++@@@-----XXXXX&&&&&;;;o;ooo#####     OOO",
"O O   # ###o#ooo;o;&;&&&X&XXX-X-@-@-@+@+++=+===%=%%%.%.$.$$$$$$.$.%.%%%=%===+=+++@+@-@-@-X-XXX&X&&&;&;o;ooo#o### #   O OO",
"OO     #####oooo;;;;&&&&&XXXXX---@-@@@+++++=====%%%%......$$$$......%%%%=====+++++@@@-@---XXXXX&&&&&;;;;oooo#####     OOO",
"O O   # ###o#o;o;;;&;&&&X&XXX-X---@-@@@+++=+===%=%%%...$.$$$$$$.$...%%%=%===+=+++@@@-@---X-XXX&X&&&;&;;;o;o#o### #   O O*",
"OO     #####ooo;o;;;&&&&&XXXXX-----@@@+++++=====%%%.%...$$$$$$$$...%.%%%=====+++++@@@-----XXXXX&&&&&;;;o;ooo#####     OOO",
"O O   # #o#o#ooo;o;&;&&&X&XXX-X-@-@-@+@+++=+===%=%%%.%.$.$$$$$$.$.%.%%%=%===+=+++@+@-@-@-X-XXX&X&&&;&;o;ooo#o#o# #   O OO",
"OO     ###o#oooo;;;;&&&&&XXXXX---@-@@@+++++=====%%%%......$$$$......%%%%=====+++++@@@-@---XXXXX&&&&&;;;;oooo#o###     OOO",
"O O   # ###o#o;o;;;&;&&&X&XXX-X-@-@-@@@+++=+===%=%.%...$.$$$$$$.$...%.%=%===+=+++@@@-@-@-X-XXX&X&&&;&;;;o;o#o### #   O O*",
"OO     #####ooo;o;;;&&&&&XXXXX-----@@@+++++=====%%%.%...$$$$$$$$...%.%%%=====+++++@@@-----XXXXX&&&&&;;;o;ooo#####     OOO",
"O O   # ###o#ooo;o;&;&&&X&XXX-X-@-@-@+@+++=+===%=%%%.%.$.$$$$$$.$.%.%%%=%===+=+++@+@-@-@-X-XXX&X&&&;&;o;ooo#o### #   O OO",
"OO     #####oooo;;;;&&&&&XXXXX---@-@@@+++++=====%%%%......$$$$......%%%%=====+++++@@@-@---XXXXX&&&&&;;;;oooo#####     OOO",
"O O   # ###o#o;o;;;&;&&&X&XXX-X---@-@@@+++=+===%=%%%...$.$$$$$$.$...%%%=%===+=+++@@@-@---X-XXX&X&&&;&;;;o;o#o### #   O O*",
"OO     #####ooo;o;;;&&&&&XXXXX-----@@@+++++=====%%%.%...$$$$$$$$...%.%%%=====+++++@@@-----XXXXX&&&&&;;;o;ooo#####     OOO",
"O O   # #o#o#ooo;o;&;&&&X&XXX-X-@-@-@+@+++=+===%=%%%.%.$.$$$$$$.$.%.%%%=%===+=+++@+@-@-@-X-XXX&X&&&;&;o;ooo#o#o# #   O OO",
"OO     ###o#oooo;;;;&&&&&XXXXX---@-@@@+++++=====%%%%......$$$$......%%%%=====+++++@@@-@---XXXXX&&&&&;;;;oooo#o###     OOO",
"O O   # ###o#o;o;;;&;&&&X&XXX-X-@-@-@@@+++=+===%=%.%...$.$$$$$$.$...%.%=%===+=+++@@@-@-@-X-XXX&X&&&;&;;;o;o#o### #   O O*",
"OO     #####ooo;o;;;&&&&&XXXXX-----@@@+++++=====%%%.%...$$$$$$$$...%.%%%=====+++++@@@-----XXXXX&&&&&;;;o;ooo#####     OOO",
"O O   # ###o#ooo;o;&;&&&X&XXX-X-@-@-@+@+++=+===%=%%%.%.$.$$$$$$.$.%.%%%=%===+=+++@+@-@-@-X-XXX&X&&&;&;o;ooo#o### #   O OO",
"OO     #####oooo;;;;&&&&&XXXXX---@-@@@+++++=====%%%%......$$$$......%%%%=====+++++@@@-@---XXXXX&&&&&;;;;oooo#####     OOO",
"O O   # ###o#o;o;;;&;&&&X&XXX-X---@-@@@+++=+===%=%%%...$.$$$$$$.$...%%%=%===+=+++@@@-@---X-XXX&X&&&;&;;;o;o#o### #   O O*",
"OO     #####ooo;o;;;&&&&&XXXXX-----@@@+++++=====%%%.%...$$$$$$$$...%.%%%=====+++++@@@-----XXXXX&&&&&;;;o;ooo#####     OOO",
"O O   # #o#o#ooo;o;&;&&&X&XXX-X-@-@-@+@+++=+===%=%%%.%.$.$$$$$$.$.%.%%%=%===+=+++@+@-@-@-X-XXX&X&&&;&;o;ooo#o#o# #   O OO",
"OO     ###o#oooo;;;;&&&&&XXXXX---@-@@@+++++=====%%%%......$$$$......%%%%=====+++++@@@-@---XXXXX&&&&&;;;;oooo#o###     OOO",
"O O   # ###o#o;o;;;&;&&&X&XXX-X-@-@-@@@+++=+===%=%.%...$.$$$$$$.$...%.%=%===+=+++@@@-@-@-X-XXX&X&&&;&;;;o;o#o### #   O O*",
"OO     #####ooo;o;;;&&&&&XXXXX-----@@@+++++=====%%%.%...$$$$$$$$...%.%%%=====+++++@@@-----XXXXX&&&&&;;;o;ooo#####     OOO",
"O O   # ###o#ooo;o;&;&&&X&XXX-X-@-@-@+@+++=+===%=%%%.%.$.$$$$$$.$.%.%%%=%===+=+++@+@-@-@-X-XXX&X&&&;&;o;ooo#o### #   O OO",
"OO     #####oooo;;;;&&&&&XXXXX---@-@@@+++++=====%%%%......$$$$......%%%%=====+++++@@@-@---XXXXX&&&&&;;;;oooo#####     OOO",
"O O   # ###o#o;o;;;&;&&&X&XXX-X---@-@@@+++=+===%=%%%...$.$$$$$$.$...%%%=%===+=+++@@@-@---X-XXX&X&&&;&;;;o;o#o### #   O O*",
"OO     #####ooo;o;;;&&&&&XXXXX-----@@@+++++=====%%%.%...$$$$$$$$...%.%%%=====+++++@@@-----XXXXX&&&&&;;;o;ooo#####     OOO",
"O O   # #o#o#ooo;o;&;&&&X&XXX-X-@-@-@+@+++=+===%=%%%.%.$.$$$$$$.$.%.%%%=%===+=+++@+@-@-@-X-XXX&X&&&;&;o;ooo#o#o# #   O OO",
"OO     ###o#oooo;;;;&&&&&XXXXX---@-@@@+++++=====%%%%......$$$$......%%%%=====+++++@@@-@---XXXXX&&&&&;;;;oooo#o###     OOO",
"O O   # ###o#o;o;;;&;&&&X&XXX-X-@-@-@@@+++=+===%=%.%...$.$$$$$$.$...%.%=%===+=+++@@@-@-@-X-XXX&X&&&;&;;;o;o#o### #   O O*",
"OO     #####ooo;o;;;&&&&&XXXXX-----@@@+++++=====%%%.%...$$$$$$$$...%.%%%=====+++++@@@-----XXXXX&&&&&;;;o;ooo#####     OOO",
"O O   # ###o#ooo;o;&;&&&X&XXX-X-@-@-@+@+++=+===%=%%%.%.$.$$$$$$.$.%.%%%=%===+=+++@+@-@-@-X-XXX&X&&&;&;o;ooo#o### #   O OO",
"OO     #####oooo;;;;&&&&&XXXXX---@-@@@+++++=====%%%%......$$$$......%%%%=====+++++@@@-@---XXXXX&&&&&;;;;oooo#####     OOO",
"O O   # ###o#o;o;;;&;&&&X&XXX-X---@-@@@+++=+===%=%%%...$.$$$$$$.$...%%%=%===+=+++@@@-@---X-XXX&X&&&;&;;;o;o#o### #   O O*",
"OO     #####ooo;o;;;&&&&&XXXXX-----@@@+++++=====%%%.%...$$$$$$$$...%.%%%=====+++++@@@-----XXXXX&&&&&;;;o;ooo#####     OOO",
"O O   # #o#o#ooo;o;&;&&&X&XXX-X-@-@-@+@+++=+===%=%%%.%.$.$$$$$$.$.%.%%%=%===+=+++@+@-@-@-X-XXX&X&&&;&;o;ooo#o#o# #   O OO",
"OO     ###o#oooo;;;;&&&&&XXXXX---@-@@@+++++=====%%%%......$$$$......%%%%=====+++++@@@-@---XXXXX&&&&&;;;;oooo#o###     OOO",
"O O   # ###o#o;o;;;&;&&&X&XXX-X-@-@-@@@+++=+===%=%.%...$.$$$$$$.$...%.%=%===+=+++@@@-@-@-X-XXX&X&&&;&;;;o;o#o### #   O O*",
"OO     #####ooo;o;;;&&&&&XXXXX-----@@@+++++=====%%%.%...$$$$$$$$...%.%%%=====+++++@@@-----XXXXX&&&&&;;;o;ooo#####     OOO",
"O O   # ###o#ooo;o;&;&&&X&XXX-X-@-@-@+@+++=+===%=%%%.%.$.$$$$$$.$.%.%%%=%===+=+++@+@-@-@-X-XXX&X&&&;&;o;ooo#o### #   O OO"
};
