/* XPM */
static char * GreyArena_xpm[] = {
"92 71 4 1",
" 	g None",
".	g #CACACA",
"+	g #C4C4C4",
"@	g #BFBFBF",
".+@...+..@...+@+.+.....+..++@..+++++...+..+++++.@+.+......++++...+@..+.+.@...+@+.+....++....",
".....@....+.++...++..++@@+..@..@..++.++.++.....++..+....@.....@@.+...@+...+.++...++..++@+++.",
"@.+++@+...++++.+.@@++++@+++.++++...+++...+++..++++.+....+.+@+..+@.+.+@....++@..+.@@++++@+++.",
"+++.+@..@@+.+..@.+++++++.++.@++..+..@@++..@+@++.++++@+..@@@@..+@+++.++..+@@.+.+@.++++++@+++.",
"+....+...++.++.+.++.+++++@@.+.+.++..+@.+@++..+++...+++....++..+@+.+..+....+.++++..+.++++....",
"@.@..+...+++.@+.+..+@@++++..+.+.@++.+..++++.+++.....+++....@@+..@.@......@@.++...+.++@.++@@+",
"@@@.+++.+@....++++..++++.++.+..++.+..+++++++++@..++++@@+@+....+.@@@+@@+.++...++@++..+@++....",
"++++.@++++.+++++++++++.+@@@.+.+@+.++.+@.+++..+++.....++++..+@++...@..@@+@+.+++.@++++++++@@@+",
".+.++@+.@@.++++.@+++++..@@+++.+...++..@@@+@++@..@+++..+@@+.....@++.+++@.+@+.+++.@+++..+.@@@+",
"++.+++@+++++++++++++..+..+.+@+@@.++++++@@+...+++.++@++..+..@+++.+@++++@@++.@+++++++@...++...",
".+@++.@@++@+++++++@++++++++.@+.+..+.++..@++..+.+.++@.+.+++..@+...++++.+@+@++++++++@@++++++++",
"++.+..+@.+.+++++++.+@@++++.@+.@+....++..++@.+++@@+.+..+@+.....+...+...++.+..++++++..@@.+.+++",
"++.++..+.++++++++@..@+...+.+++@@@@++++++@.@.++++++.++..@++.....@+++++.++++@+++++++..++++..++",
"@+.++.@@+..+++++++.....++@+.....++++++++..@.+++.+.+++...+.++.+@+@+.++.+++...+.+++++....+++++",
"++.+@.++++.+++++++++...+.+.++.....+.......+..+..@++.+.+...++++++++.+++@.@+..+++++.++....+++.",
"@@.@+..+@+++++++@.++.@..++.+++@+..+@@++@++.+.@..++@.@.+.++.+.++.+++@+..+@++++++++++@.++.++..",
"...++.++.@+.@+++++..+@+.@.@......++.@@.+...+.+.+.+++..+++++@++++.+.++.+..@+.@@+@...++@+.+++.",
".+.+...@....++...+++@@+++...+..+.++@+...+++@++.+..+.+..+++++..+...++...@....++...++++++.+++.",
"++@++++@+...@@+..@@+++.++++++.@@@++@@...++@@++.++.....+++.++@++@++++++.+@+..@@+..+@+++++++++",
"@++++@.+@+..@@+..++....+.++++.+.+.+@...+.+++++++@+++.+..++++++@+@.@.+@.++..++@...++.+..++.++",
"@.++++....+++++..++.++++++++.+....++.+@+...++++@++++++.+++.++.+.@.@++@.+...++++.+++.+.++++++",
".+@+...@.++@+..+@@+....+.@@++@.+++@++++.+++.+.++.++++..++++.++..+.@+...@++@@+@.+@@+.....++@@",
".+++...@.++++..@@+++...+.+@+.+..++++@+++@+@++.....+++++@@+++++++.+++...@.+++...+@@+.+.....+.",
"++....@@.@++@..@+@++++...@.@.+++.+.+@+.+++@+@+++.+@@++++@++@++++@+....@@.@+.@..@@@@+++.+.+++",
"..+..++.+.+@+@@.+++++.....++.@++++++..+....+..+@.+..+++++@@..++.+....+..+.+@+@@+..+++....+++",
"+.+.++.....+.@++++++++.+.+++.@..++++.++++..+.+..++...+.++.++@@+++.++.+.+...+.@+.@.+@++++.+++",
".+@..++@..++.++++.@++..+.+++...+@++@.++++++..++..@+++++@+..+@++.++++.+.@..+@.++.+++++..+++++",
"++++.+.+.++@..++@@+++..++++.+...@.+@+++++..+++++++.++++..+...+@++++..@.+.+@+..+@@++@++..++++",
"+++.+@+.++++..++..+++++.+++.+.+.+..@++++++.@+++++...+....++...+++++.+@.@++@++.+@..++++++++..",
"@++.+@.+@+..++.+..+++...+.+.+.+.++++.++++..@@++++.+++++....+++.+@++.+@+.@+...@.+........+++.",
"+.+.+@+.@+..+@.+@++++...+.+.+.+..++@.++++..++++++++..++.+++++...+.+.+++..+...+.+@@@+++..+.+.",
"+++++@+.+++...+@+.+..+.++++.++++.+++.....+++...+.++..++..+@...++.+++++++++..+..@+.....+..+++",
"+++...++@+..++..@@....+++@.++.@@.++.+@.++@+..++@+..++.++..+.+..+@+++.++++@.+++..@@+...++@+..",
".+++++...+..+...+@+.++@@++.@@@++@++++@+++@.++@+++++++.+++++.+.++..+++++..+......@@+.++@@++@@",
".++@+@+.+@@++++@++++++++.++@++++@++@.+@+.+.++++..++++++@++++++++.+++@++.+@@+++.@.@++++++++++",
"++@@@+++.+..++++.+++++..+.++..+++.++..+.++.++......++.++++++@+..+++@++++....+.++.++.++..++.+",
"+++++++++++++@@+.+++++..++.....+.+++++...++.+..+...@+..@++..++.+++++++++++++@@@+.+++++..++.+",
"..+.@+++....+...+@..+++@+.+++..+.++.+..@+@+.+.+@+..++.++@@+++++@+.+@@+++........++..+++@.+++",
"..+..+++++..++...++..+++@.@+++..++++++++++@++.+@+++++++++@+@+@.+.+..++++++..++..++..+++++++.",
"@+++..+..++....+.+++++++@+.....+++@@+...++++@+.++@+++++..@.++@..+++...+..++....+.@@.+++.@+..",
"++@@.+@+++@@+..++++..++++@.....++++@.@...+++..+...+.@.+.+..++@@.++@++.@+++@@@....++..+@++++.",
"..+++++++.......@++++++++..+.+++.+.+.++.++++.+++.....+++++++..+...++.++.+....+..@+++++++++.+",
"+..@@+++@+...@+.++..+..+@++++.+.++@+.+.+......++@+..+++++++..+..+.+@@+++++...+@.+..++..+++.+",
"+.++@++++..++@+.++.++++++...+.++++@+++++@++.+@@@..+++++++@..+++@+.++@++++...@@@.+@..+++++...",
"+@+.+++++++.+@+.++@++++.+.+..++.+++++++++++........+++++.++.+++++@+.+@+++++.+++.+@@.+++.++..",
"+@+.+@+++.+...+..++++@..@...+.+.@+..+++.++@++++...++++.+.++++..++@..@@+++++...+..+@++@+.+...",
".+..++..+.+++..+..+..++......+++....+++@..+++++..++++++.++@@++++.+...+..++.++.++..+.+++.+...",
"+@.+@+.+..++@+.+++....+++..++@+++...+...++@++..+...+++..@.++.++.++.+@+.+..+@@+.+@@....++...+",
".+@@++@@++@+@+++++....+..+@+...@.+..+..+..+..++..++++@+.@@+++++.+++@@++@++@+@++..+......++@+",
"+.@+++++.++++.+.@+.++.+.+++.+++...+++.++..++.+@+.+@++++.+....+++++@+++++.++++.++@+.+@++..+.+",
"+++.+++++@@+++@+@+.+@++++...@@++.++@+.++.++.+..++@+.++@++++..++++++++++++@+@+++@@+.+@+++++..",
"++++++++.@.+.++@++.+..++@+++@.++.++.+...+@..+..++++.+++@++@+..+..++.+.++++.+.@+@++....+@++..",
"...+.+.+++.@+@+++++...++.+.+.+++.++.....++..++.++..+@++@+@++..+.....++++++++.@+.+@+....++@+@",
"..+...@@+@+++++++++..@++...+.@...++..++.++..+++.++.+@..+.+++++++..++.++++++++@++++..+@+.....",
".+.+.++++.+.+.+.+.+.+@..+...@@+..+.++++.@++..++..+..++.+..++++++.++...+@+++...+.+.+.+@+....+",
"++++...@++@.+.++..+....@+...@.+@+++.+++.+++..@@+.@..+@.+.++++++..+++..++++@+..+@..+..+.@++..",
"+@@.@@+@.++....++.@.++@+++...+++++++++++++..+++..++.++.@..+@+..++@@.@++@.++....++.+..+@+@...",
".+..+@++.@+++++++++.++@++.+++.@...+@@++.++..++.+.+..+++++@@+.++..++.+@++.++++++@@+@.@.@+.+.+",
".....++..++++@+@@+.++.+.+.++..++..+.+++++++.@+@+.++.++++.+@..++.+....++..@++@+.+@.+++.+...++",
"+..+..+..+.+@+.+@+@@@+++..+.+++++@+++.++..++++++.+@++@++++++++@+...+..+..+++++.+@+@@@+@+...+",
"..++..++....++..+..++..++.@++++.++@+..+++....+++.++++@++++.@+..++..+..++....+...+..++..+++++",
"@++++..++.+++.+++..+++@++++..@+++++....+....+++....+.+++++++....++++..+++.+++++++..++++@+++.",
".++.++..@.+++++++..+.++++++...@@++.+........++...+..++..+@+++@@+.++++...@.+@+.+.+..+.+.++++.",
"...+@++++.++..+..+.@++..+@.@.++.@+....+.+@+...+@.+++@..++++........+@@.++.+@..+....@.@..+@++",
"..+...++++....++.+++..+++.+.@...++++..++.+.+@++.@++++...+++++++...+..+++++....+@.@.@...@..++",
"+.+..+.....++++..++...+@+.+.+.@++..+.+.+@++...+++.......+.+...+++++..+.....++@....+....+++++",
"+.+++++...+.++.+++@++++++@++@.++...++@...+++..++..+++....+++..+++++++@+...+.@+++.+@.@+@@++..",
"+.+++@..+@+.+.@+.+@.+++@.+...+.@.+.+@+.+.++@+.+.+..+++..++@++.+++..+++..+@@.+.+@.@+++++@.++.",
"+.+..+...@+++.++...+++.++@..+..+++..+@+++@.++.+.++.+.+.+..+++++++...++...+@.++++.+.+.+.+.++.",
"@++..+.+.++.+.+..+.+.@.++++.+..+@+..++++++..+++.+.+..++...++++++@++..+..+++.++...+.@+@++++@.",
"@@@+.++++++..++++++++@..+++++.+.+++...+.+++++@+....+++++++.+....+@@+.@+.+@+..++@.+..@@++..+."};
