/* XPM */
static char *magick[] = {
/* columns rows colors chars-per-pixel */
"128 128 5 1",
"  c #c0c0c0c0c0c0",
". c #0000bfbfbfbf",
"X c #808080808080",
"o c Gray100",
"O c Cyan",
/* pixels */
".O OOoOooOoOoOoOoOo oO O o OO oO O O  O OoooooOooOooO  O  OO oOooOoOoOoO  . O   O . O  .  O OO O  OoO OooOooOoOoO   O  . O. .  .",
"  .  Oo O OoooOo  O O O O Oo OOo O  O. o OOoOooooooOooO OO  OooOooooo OoO O OoOo OoO  O O  O   OoOo.o O OooO O .  O. .O . . ... ",
" .O O  O Oo OOo OO O O  . . O   .  O   OOooOooOoOoOo O O  OoOoOooOoOOOoOoOoooOooooOooO O oO oOOo O . . O  . O   O .  .  . . .   ",
"O  O OoOooOoooOoo Ooo OO . . O O OO OoO oOooOooO O O. . O  O O O oOoooooooOoOooOoOooOooooOooOooOooO O . .. . ... . .. .O OoO O O",
" O    O O oOoOoOOo OOo  O O O OoOooooOoO oO O . O   . .  O  O  O O O O.OO oO OoOooOooOoOooOooOooO oO O O  . .  O O  .   O O O O ",
". O.O. O OOoO Oo oOo OOo OoOooo oOoOooOooO O . O  OO . . O O O  O O .    ..   .o OoOooooooooOooO O.   O  O . .  O O O OO   O   .",
"oO o  O Oo O o  OO  Oo  OoooOoOoOooooOoO O  O .  Oo oO O Oo O  O   . ... .  O O O Oo OOoOOO O . O   ..  O. O O O O O O   .O  OOO",
"ooOoOo o  O ..O  ... .OO OOoooooooOoOooO  O  . OO OoOooooooOoOO OO  .   O OO O O o .O  . X . . . ..O O Oo O O O o O   OO O  O  o",
"OooOoOoOO  .  .. . ..   O  O OOO O O O  O O O O  O ooOOoOooooooO  O O.O OoooooooOO   . ....X.. . o OoooooooooOoOOo OO   O O OoOo",
"OoOoooOooOO O.  .X. X. .  . O    .    O .  O O  O oOOoOooOooOoOooO Oo OooOoOoOoOo OO. .X . . .. .Oo OoOoOooOooOoooOo OoO o O O O",
" OoooOooOooOoo O . . O . . . . ... ..O  OoOooo O oOo    OooOoOooOooo O  . O O O  O    . . X..   O  OoOooooOooOooOOo O  .o.O    O",
"ooOOoO O oOoOOoO O O  O O . . .   .   OOooOoOOoOoO ..O O .O O oO OOOo O .    O .O O O. O O   OoOooOoOooOoOooOooOoooOoOOoO oOO O ",
"O ooO oO O    O oOo O  O . O O O. O O  oO oO oO . .  . .  .  O O    . . ....  O oOoOooOooOoOoOooOoO oOoOooOooooooooooooOoOo oO O",
"oO O  O O OoOOo O oOoOO  O O  O O OoOoO O O O  O  . . . .. .. .  O O O O    ..  O ooOooOooOoO oOoO oOoOooOooOoOoOoOoOoOoooOoO O ",
"O oO O Oo  O   OO O O   . .  O O o OoOoOoOo O O  O O O .  ... . O OoO Oo O.O  ..  OOooOooOoo oO O  OOooO O O O O  OoOooOoOoooOoo",
" O  O O O O O O  O   O .. . O O oOooooO o Oo O OoOooO OoO    . O ooOoooOoO  O.  .O  O OoOoOOO O oO   .  O .   . .  O OooOooOO O ",
"  O  O   O oO  O  OO  . . O  . O O OO  OO  O oOoOoOooooOoOoOoOooOoooOoooOooOo O o O O  O o   O O  O. .. .. .. . ..   ..  O   O O",
"O. ..  OO OooOoOoOooOoO .  OO   O O  O.  OO O  O ooO OO ooOoooOoooOooOOooOooOoooOo O  O oOOoOoo OO  .  . . . . .  ...  O O O.   ",
".  .  Oo ooOoooooooooOooOoOo  .O O  O   O   . O  OO O   OOoOoOooOoOoOoooOooooooOooOooOooOooOo OOo  OO O O O O . O O O O O  O  .O",
" O . O .O OoOoOoOoOoOooOooOoOO  O Oo O O O O . .O    .O ooOoOooOoO O O . OOOoOooOooOoO O O  OOooOoOooOoO o O OoO ooooOoOooOoOO  ",
"oO O .   . . . O O OoOooO oOooOoooOOoO O  . . .  OOO oOoOooooOooOoo O O .   . . OO  O O O O   OooOoOo OoOO ooooooOoOooOoOooOooOo",
"OoO O ... ... . .     OoO O  OoO Oo Ooo O . . O O ooOooOooOoOoO O .O  . . .. . .  OO O   O O O  Ooo Oo O ooOOOoOoooooO  O O  O O",
" o O  .  ..  .  . O OOoOoO oOoooOo Ooo.O . . O O O OooOooOO Oo O  .  O  . O  O O O oO  OO O . ..  .O  O oOOo oOoooOOO oO  O OooO",
"oOooOoOoO  .. .O O OoooooooOooOoO O O O . . O     O .O O   O O  O O O .. . O  O ooOo OoO   . .. ..  OO oOo OoOoOOO   O O O  . O ",
"OoOooOoooOo O   O O OoOoOO oOoO o. oO oO . . .... .   O O.  OoOoO  O O O O  O  O.ooOoO oOO O. .. . O  OooOo O o  oO O O O O .  O",
"o O OooOoO O oOO .   O O  O. .o O OOooO oO O O   . ...    OOoooooOooooo O O. ..  .O O oO oO   . . . O O O oO .. O. O O o O  O O ",
"oOo O O O O  O  . ... .  .   O O Oo oOooOoo O  .. . . . OOoooOoOoooOoOoOoO   . ..  O oOooOooOO   O O O  O O O  .  O O  OOooO OoO",
"ooOoOoO  O .. . ..X  . .. .. . .  .O O O O.O ..  . . . O oOoOoOooOooOoOoooOoO  O O  .O OooO o OOoO o  O  O  . . .  .  OoooOooooo",
"OooO o O  .  . . ... .  O  O . ..   O .     . O O O O O O oO o O O O o OoOoOoO  O O   O OooOoOooOoOoO OO oO O . .. .. . .O OoOoO",
"O O  O. O. .. . . . . .. .... . . O. O O OO .  O OoOooooooO O O . O O O O Oo O O O . O OoOoOooOooooOoooooOoooO O  . .. .  o O Oo",
"  . .  .  O  O O .  . O .    O O O oO O  O  . .   OooOOoOOOo . . . O .   Oo O O   O O  o OoooOoooOooooOoOooOOo O O . . . ..O   .",
".. . O O O O oO O OO O  O OoO O oOoO   .. O O .OOooOoooOoooO O . .  O O.O OoO  OOooOoOO OoOoOoOoOooOoO OoO o OooOoO O . . . .O .",
" O O O  O O OooooOo O O  O Ooo O oO OO  O  O O   O oOO oOoOoO O O Oo O   oOooOo oOooO  O  O  . . O O O   OO O OooOoo OoO . .  O ",
"O oOo OOooooOoOOO oO   O. Oo OoOoO O   O  O O oOoO O  O Oo OoooooooOooOoOooOooOoOooOooO  O O . O  O .  ..  O  O O O O  O O O O  ",
"ooOo Oo  OOOoO o oOo OO  .  O O O    OO  O O oOoOo O O Oo OooOoOoOooooooooOooOoOooOoo O O O . .  O  O .O O . . . . .  O OooooooO",
"oO O O OO o ooOoOooOO  . . . O   ..O   O. . O O  O O oO  O O OoooooOoOoOO oO  . O O OO O O O O OO OoO O   O . . . . O OooOoOoOOo",
"ooO O .  O OO oooOo oO O .. . O O   OO  O O oooOo O O  O  O O OOoOooO O oO O . . . O  .     O   oooOoo OoO O O O O O O O oO Oo o",
"oOooo O O O   OO O O. O O  .  O O .O  Oo O oOOo OO O O . O O   O OoO Oo O O . . . .  . ..... OoOOoOoOoOoOoo O Ooooooo O O Oo OoO",
"ooOoOO O  . ..  O .    Oo OOoO O  O  Oo O O Oo O  O  O O O o OOoOoo Oo O O  O O O O OO O o  O Oo oOooOoooOoOooooOoOoOO o O  OoOo",
"oOoO    .. . . . O OOoOooOooO o OO  O OO O O O O O oOooooooOooooooOooO Oo O  O ooOoooooO O.  O OoOooOooOooOoOoOoooO o OO  OO O o",
".   ...  . . ..   O  OoOooO  O.   .. . .  . . O ooOooOoOoOoooOooOooOoooO OoOo OOooOoOoooO oO oO O OooOooOooO O OO  O.   O   O O ",
" ...   .. . . O OO  O . . . .. ...X.. . .... .  O O OoooooO OooOooOo OOoooOoOoooOoooooOoooOoOO    O O O. O.   .   O  OO O O  . .",
" .   O OoOoOoO O   .  O . .. X. . .   . .    OoO O Oo OOOO  O OO .  .o oOO OoOoOooOoOOooOOoO   ..O  O   .   ... .O  O  O  . . . ",
".. .. .  O  O ooOoOoO  . . .. ..  O OOoOoO OOoO O o Ooo   O  O   O .O O ooo O O O O   O  oO oOO   O  ..O .O . . . OO O  OO O ...",
"  . . ..  O oOOooOoO O O .  .  O OoooooooooooooooOoOoOoOo. O  . . .  O OO O oO   O O O OO oO   OO  O    O  O O O O oOoOo oO .  .",
" O O .  . O O ooOoooooO O O O OoooOoOoOoOoOooOoOooooooOoO O .. . O O OoooO O  O. .  . .  oOoO O  OO O OOooOoo OooooOoooOoO oO . ",
"OoOooO O . .  OOooOoOO oOo O  O OOoO O OoOooO O OoOOoO O O  O . O O O O O O . . . . O O OO oOoO O  . .  O OoOOooOoOoooOoOooOoOoO",
"ooooOoO O . O O OoOooooOooOooOooooOoo O ooO O    . oO o O oO  O  O o O O   . . . . O O OooOo O o O ... . O o oOooOooOOoooOoooooo",
"oOoOo oO O . O   O OoOooOooOoO O O .O  O. O  O.O O . O.  O  O O O OO o  O. O . . O .  . . O O O O . X . O OOoO Oo O   ..  OOOoOO",
". Oo O.   OoO OoO O O O.  O OoO O Oo  O  O OOo  O O .  .. .O O Ooo ooOOO  O O O O O ... O  O O . . . O O Ooo Oo O . O.  ..   O  ",
" O  OO oOOoooooOoooOoo  O O oOo Oo O OO OooooOoO   . ...  .   OooOOoOo   O   Oo O  .   . . .  . . . . .   O O  . . .  ..  O O  O",
" O O  OoooOoOoooOoOoOOoO O Oo O  O O O  O OO oO OO O .  .. .O oOoooOoOoOO OOo O oOoO .. . . .. O . . . ... . O O O O O  O OoOoO ",
"o O O  OO oO OOo O oooOooOo Oo O  O   O  .  O oO oO O O oO   O OO OoOoOo o  O oO O oO O O .  O  . . . . .X. . O   O O O OooOoOoo",
" O  O O  O Oo  O O O Oo O  O .. . . O. ..  O OOooOoooooOoOoOO O  OooooooOoOoOoOoOoO Oooo O OO oO O O . . . . O  OO O Oo O OooooO",
"OooOoOoOoOo O O . . O  O  OO . . ...  O O O OoooOooOoOo O .  O  Oo OoOoOoOoO . .   O  OOOoOoooOoooo O O . O OooOo o o  O OoOoOOo",
"oOooOoo O O  O . . O .O .O   O. .   Oo O oOooOoOoO oOoOo O .  O O OoOoooooO  O . .. O o ooooOoooOoOoO oO O ooOooooOoOoOoooOoOooo",
"ooOooOOo O O  O . . O  O  O O  . OO O O O oO oOoOoOo O O  O O  . . O OOOO oO  . . O  OoOoOoooooooOoOoOooOoOOooOoOooOoOoOoOoooOoo",
"O O O   O . .. . . O  Oo O Oo O O  O . . .. ..   O OOooooO O O O O  O    O. .. . .  OoOoOoOoOoOoOoOoooOooOoo OoOoOo OoOoooOoOooO",
" .  . .O  . O . O .  Oo OOoooOoO  O  O . .  .  OO OoooOoOoooooooOooO O O.   . .. O Oo Oo OoOooO O o OoOoOo OO O  O O o oOO O  O ",
"..... . .. .  O  . .O O o oOooOooO O  . . ... .  o O OooooOoOOoOooO o .  O.. .X . . O  O o O OoO O OoOoO Oo oO O  . O.O    . . .",
"X .X . . O O O O .   O OO O O oO O  O O . . .. ...  . ..O O ooOooOoOoOoO   O O O O O O  O. oOo oO OoooOooO O o O . .   O.O . . .",
" .  . .oO ooOoooOoO O .  . . O. O  O O . .   O O  O . .  .o OOo Ooo O . .O  O OoooOoooOo O O OoOoo OOooOooOooOO O. . O.   . . . ",
" O O OoOooOOooOOoO O  . . . .    . O  O OoOoOoO oO O . ..O Oo  O O O . ..  O OooOOo OOooOo Oo O O O   OooOo Oo o  . .   .. . . O",
"OoO O O O o OoooooO O . .. . OOO O OoOoO  OooO oO O  . .  O O O O O  . . O  O O o OoooOooOo O oO . .O O O OoOoOoOoO O O.  O OoOo",
"oooooO  O OooOoOOoooOoO  . .   oOoooOo oO  O oO O  O O . . O O O o O O oO Oo oOoOooOOooOooOooO  . .X . O oOooooooOoO O OO OooooO",
"oOoOO  O . .O OoooOooOoO O O OO O OOoOoO O. O. .  O . . O O oOooOO O O Ooo OOo OoOOooOooooooO OO . ...  O  OOoOoO o O    o OoOoo",
"ooOo oO . .   oOoOooooooo O O  . .    . .  O   O O.  O . O oOo O o O  .  .O   OoOo  OoOoOoOOooooO .   O . Oo oOoOoOOo O OO OoOoo",
"OoooOO O . .OO  OoOoOoOOoOoo O O  ...O O O  OoO O  OO  O  OooOooOoO O . O  OOoOooOoO ooO O oOOO oOoOoOoOoOoOoOoO oooOoO O ooOooO",
"oOoOooO O O  oO  O O O  O .O  . .    .  . O O oO O   O  O OOooOo O O . . O  oO Oo O O.  O .   oO  O O  O  O O o OO O . O OO oOoo",
"O OooOoooOooOoOoO O   .. .  .. . O... .O O O  O o O O O .   O O O   . . . OoOoo OO    O. . O O. O.   O. .  O O O  O O O    oO OO",
" Oo OoOoOooOoooO O  ..  . . O . O    .  O O  O  .O  .  O O O O  . .O O O OoO oOOo  O O  O O Oo O  .. . ....  . . . o Oo OOoOOoo ",
"O OooOoOoOoooOo O O O .O OoO O O OO O O  O O. ..  .. O. . . O .O O  O  O oOooOooO O O Oo OoooOo O   . .X .X.. . . O.ooOoO OoooOo",
"oo Oo o O OO OO    O O  O O o O O oO O Oo O  . ..  O . . .   O  O O  Oo O oOooO oO O O Oo OO oO O O O  OX .  O O O  O O oooOoOoo",
"OO. O O.    O  O.O O  O.   O..    O O  O O  O .  ..   . . .OO oOooOoOoOoOoO O OoO Oo  O  O  O O OoO OoO O O . O O  O  OoOoOoOooO",
" .  . . .. Oo Oo oOooO o OO    .OO O  O  O O . O O  OO. . O   OO Ooo O O O   . . O  .O  O  . O o OoooOoooooOoO Oo O. O O O O  ..",
". .. . .  O OooOoOooOooOO  ....   O O . O  . . . . O   OoOooOoo ooOOo O   O.. . O O O O . . . ..O O O oOoOooO ooO   O   O   .O  ",
" . . .  O  O O oOooooOo  O    O O    O . . . . . O O OooooOooOoOOo oO  OO   . .  O O  O O . . .    O O OooOooOoOoOOo OO  O.   ..",
". . . .. .. . .O  OOo OO OoOOO OoOoO O O O O O O OooOoOoOoooooOoooO O O  OO . O O O  O O . ...X.... OoOoOooOoooooooOooooOooOOO  ",
"O O O O  O  .. . O   Oo OoO o Oo O O Oo OoOoooOooooOoOoooooOoOooOOoooO  O  O O OooooO O  . . . .   O o Oo OoOoOOOoOooooOooOo   O",
" ooOooOoO O   .X. OOoO OooooOo O  O   OooooOoOoOO O O OO OooOoO ooOoO Oo Oo OoooOoOooooO O .  . ..O O O OO  O    . O OO O O OO O",
"OooooooOoo O. .  O  . ooOoO O O O  OO  O.O oO    .      . .   O .  O o OoOoooOoOoooOoO oOoO O O    . .    .  O. . . . . ..    Oo",
" OOoOoOo OOo O OO oOoO O O O . . O.  OO   O O O.. ...... . O.. . .. O.O OooOooooOoOoOooOoooooOooO O O O.. O O  . . . . . X.. O  ",
"O   O O O   OoooooOoooOooO  . . .   O   OO O O    O  O   . .   . . .   O  OoOoOOoOoOooOoooOoOooOO Oo O o O  O . . . ...X.. . . .",
" ..O oO O OoO OO OooOooO  O . . . O O O   O   ..O. .  .O. OoOOOoO  . .. OO OoOoo oO OO OoOoooO   O O oOOoO O  O ....X  .  . . O ",
"    O oO O . O  O O OoOoOo O O O O O O OO  O. . X.. .   OooOo oO O O .    O o O O  O  oO oOO oOoO  OoOooOoO O O     .. O O . O O",
"O OO OO   O O  O   O .o O O O O oOooooooooO  . .. .. O O  O OoO o O O OO O O O O O.  OO  O O OoOoOo OooOoooooO oOO O  . O O O  O",
" O  Oo  OO o O O O.  O O   OooooOoOoOoOO O  O .  O  O OoOoOooO oOOooooooooooOoO  .  O   ..   O  O oOo OoOoOoOooOooOooOoO ooO oO ",
" O O  O OoOOooOoO  O. O OO oOOoOooO oO  . .O OoOo oOoooooO O  O O OOoOoOoOoOoO O  .. ...  .O  O  OO Oo OoooOooOoooooOooOoOOooO O",
"O O O..    oOo OoOo  .   ..  oO O  O  O .   O O OOooOoOOooO O O  O oOoooOoOoooO O O O  ..   O  O  oO O  .O oO  OOoOooO  OooO O o",
" O  .  ..O O Oo O O O ... . O.o O O O O O OOoooooo OoOoo OoooO  O  O O O Oo OO oOo O  O  . O OO OoO O O.  O. O.   O OoOooOoooooO",
"O  .  ..  O  . O  . . O    O o O . . O O .o oOoO OOoOooOOoOoOooO oO O .    Oo oO oOooOo O O Oo Oo Oooo  O.   .  .O Oo OoOooOoOO ",
"oOoOoOo O  OO . .. O O OO O O O O .   O  O .O O O  O oOooooooOoO O O . ...O .O OoOooOooOoO O O oOooOoOOo  O O ..  OoOo O oOoOooo",
"oooooooooOo oO O oOooooooOoO O   . O.  . ..  . O OooOooOOoOO  . O   . .    O  O O OooO O  O   . .. O o OO O  O oOooooOo O O oOOo",
"OoOoOoOoO O O OooOoOoOoOooOo O O. .  .. .X.. O  OooOooOo O   O .  OO . ....  O   O  OoO  O  O. .  O O O  O OoOoOoOoOoOoO Oo O  O",
" Ooo O O o O OooOooooooooOo O  .  . .. . .  .  OooOo OO O  OO. O O   O O  o OO .O  O Oo O O O  ... O Oo O ooO OoOooOooO O  O  Oo",
"O  .O . ..O   O O OoOoOoO OoOoO .. O oOoO O O O O. .O   . O   O O OoOoO OOO o O  OoOooOO O  . .   . O OO OO oO o OooOo O OO . . ",
" O  ..X. .XO O . O O OoO oO oOoOoO oOooO oOo O   . .X.. .  OO oO ooOo oOo oOOooOooooOo o  . . ... O  o  O  O  OO  O  O  O  O O .",
". O. . .X. .. . . .  O oOooOooooooO O Oo O  O O. . .  . . O  oOooOO oOO OoOooOoooOoOoOO O. . O   O  OOOo O O O  O. O . O  O O O ",
" O  .X... .. . . .  O  O oOoooOoOO O O  .  O .  . .  O  OoOoOO  O   .  o O oOoOoO O .   . . .  OO  O    .   O  .  . . O oOoOoooO",
"  .O     .  ..... .. .. OO OoO O oO   .O .O . O O OoO OOoO    .. ... .O O O  O O  .. ... . O OO  OO O .. ... .. O . O OoO O O O ",
"Ooo OoOOoO O     . O  O   O O O O  OO   O  . O O oO oOooO OO . .   .  .  O O    . .X.X . O O  oO   O . .   O  O OoOooooOoO o O O",
" OOooOo OoO  . .O O O  O O O   O  O   OO  O O OooOooOo Ooo  O . ... .. O.  . O.. . . . .  OooO OoOo O . ... OO o O OoOo O  OoOo ",
"O   O  Oo  O O.  O  O O O    OO  O  .Oo oOOo OooOo OOoOooOoOooOoOoo OoO o OO O   . . . . O  O Oo O O  . .  O  oOO oOoOoO  O Oo O",
" O O .. ..O    O  O oO oOoOO   O .O OoOoOo OooO O O  oOoOooooOoooOoOooooOoooO O O . . . O O O  O O  .. . ..  O O oO O O OO O Oo ",
"O O . .    OO . O oO oO oO  OO  O oOooooooooOooO O O O   O.O oOO oOoOoOooOO oO O . . . . O O O  . .. . .  . . O O O    O  O o OO",
" O  O  OOoO oOoOoO O O O  O.  OO  . O OOoOOoooOoo O O O..   O   O  O  O O ooO o O O O OoO o O OO . .. . OOoOoOoooo O OO O  O.O  ",
"   O  O oOooOoOoo O .  O O   Oo  O O Ooo Oo OOo O. .  .  .. . ... .  .  . ..  O. .  O  O oOOoO  . .. . Oo O O oOOOO O  O  O    O",
"..O OO OooOooOoOO  . O O O OoOoOoO  OoO OoOo o.O  . .. ..  . .   . .. .. . .... .. . O oOo oO  O .   OooOoooooOooooO O  OO .O . ",
"   .    O O O    O O  O ooOoO oO oO  O O o OO   .. . .  .. . O.. .  O  . .   . .  . O O oOO oO O  .O oOooOoOoooOoOo o O   O . . ",
"...  .O .  .  OOoOoOoOoOoOoOooO OO OO   O O O O.   O O O  . .   O OO  O . ... .  O Oo O O o O . ..  O. OOoooOoOo O O.O .O  . . .",
"   O O . O OoOooOoooooooooooO Oo  O   OO  O  O oOoOooooOoO O O O O   OO O Oo OooOooooOo O OO  O O  .  O   OO O  O . . ..  .. . O",
"oOoOo OoO OoOoO oOoOoOoOoOoOoO  O  O O  .O O  OoOoooOoOoooOoO OoOoO O  O O O oOoooOoOoOo O  O  . OO O . O   . .. . . .X ..  O O ",
" OooOo O ooooooOooOoOoOoOoO o O .O  . O   O O O  O.oO oOO oO o O   . O  O o O oOoooOoO O  O  O O   O . . .. .  O O  . O  OO  OoO",
"O O.  O OoOOoOooOoOo O     O.. .   O O O O O O  O  .  .X O.  O.  OO .  O  OOoOO OOO O   OO OO O OoO O . O O OoO OooOo O O  OO   ",
"    ..   Oo oOoO O  O  .O.O    OoOOOo O O o O  OO O O.. .   O   O   O O oOooo  Oo  o  OO  oooOoooOooooOo OooooOooOoOoO O oOo  OO",
"O ..  OO O O  O O O  OO    O OO ooooOooOoOOooOoo oO    . ..O .O . OO O OooOoOoOoOoOoOO  oOoOooOoOoooOoooOooOO o.  O oO oOooOoO  ",
"O O .   O  O O     ..  O O O  oOOoOooOoooooOooOOoO O O..    O  O O  O oOOooooooooooOo OoOoOoO  OoOoOoOoOoO oO O O  O oO oOooO O ",
" OooO OO . .. ..... . . O O O O  O O OoOoOoOoOooO O .   ..O. . .  Oo O.  oOOoOoOoOooooOoOo O OO   Oo O O  O O . . OoO O O OO O O",
"OooOoOo O O  .. .  O O OoOoo O  O O O OoOoO  O O Oo O O O    O O Oo Oo  OOooOoOooooOoOoOo O     OO  O O  O O O OoOoOoooOoOoooooo",
"ooOoooOo O  .  . ..  O o  O O O O  .   O   O  OoooOoOoO  OO O OoooOooOoOo OooOoOoOooO   OoO OO O  O  O  O O   O OooooOooO O O.O ",
" OoOOo O  O O . .  O  O.O O O  O O ...  OO OOo OoOoO ooOo  O O OOooOooO Oo O  O O O O O  O O  O O  O  O O oOOo o OOOooOoo  O o O",
"OooooOoOoO O O O O . O   O O OO   .  O O Oo  OooOooooOO O O   .   Oo O oO O O  . . .  O O Oo O O O O O O  O  OoOOo  OOo OOO  OoO",
"o OOOoo O o O O O OoOo OO O     O O O O   O Oo OooOoOoo O O .O  .O  OOoO Oo O . .  O O  O o O   . . . .  .  O O oO Oo oO    OoOo",
"O o oOOo O.O ooOoooOooOoo oOOoOO OoooooOoO O OO OO OoO OoO Oo OO  O   O  O O O . O O oOO OO O .. ... . .. .. O oO O OoO O O O o.",
" OOoOo O   oOO oOOooOoooOoOooOo ooOoOOo O   O  O  O  Oo O   O   . .OO  O oO  O  . OoO o O  O . .. X ..  .O  O O oO   O O . . O o",
"O  O oOoOO O ooOo OooOoOoOooO oO.O Oo .. O O  . .  O O O  OO O.. .   oOoO OoO O .  O O O  O . . X.... .O   O ooOO  O.  X.. .  O ",
" oOooOooooOoooOooOo Ooo Oo OooO o O . O . .  .. O O OoOooOo O   . O OOo Oo O O  . O O O oOo O . .    .  OoOoooOoooO  O.. X.. O O",
"O oOoooOoOooOoooOoOO O O OO O OoO  O O  O OoO  O O oo O O Oo OoOoO oOoOo O  O O O .  O O O O OoO O. . OooOooOoooOO O    ..  OO O"
};
