/* XPM */
static char * XfceDefault_xpm[] = {
"64 64 3 1",
" 	c None",
".	c #54586C",
"+	c #4F5466",
".+....++...++++++++.............++....++...++....++...+++++++...",
"+++.......+++++++.+.............+.+...+...++....+.+....+++++....",
"...+.....+++++++...+++++...+++++...+.....++....+...+....+++....+",
"...++....++++++....+++++...++++....++....+....+....++....+....++",
"...+++....++++....++++++...+++....++++.......+....++++.......+++",
"...++++....++....++.++++...++....++++++.....+....++.+++.....++++",
"...+++++...+....++...+++...+....++++++++...+....++...+++...+++++",
"........+.+....++...++..+++....+++++++..+.+....++...+++++++.....",
"........++....++...++....++...+++++++....+....++...++++++++.....",
"........+.+...+...++....+.+....+++++....+++.......+++++++.+.....",
"...+++++...+.....++....+...+....+++....+...+.....+++++++...+++++",
"...++++....++....+....+....++....+....++...++....++++++....+++++",
"...+++....++++.......+....++++.......+++...+++....++++....++++++",
"...++....++++++.....+....++.+++.....++++...++++....++....++.++++",
"...+....++++++++...+....++...+++...+++++...+++++...+....++...+++",
"+++....+++++++..+.+....++...+++++++.............+.+....++...++..",
".++...+++++++....+....++...++++++++.............++....++...++...",
"+.+....+++++....+++.......+++++++.+.............+.+...+...++....",
"...+....+++....+...+.....+++++++...+++++...+++++...+.....++....+",
"...++....+....++...++....++++++....+++++...++++....++....+....+.",
"..++++.......+++...+++....++++....++++++...+++....++++.......+..",
".++.+++.....++++...++++....++....++.++++...++....++++++.....+...",
"++...+++...+++++...+++++...+....++...+++...+....++++++++...+....",
"+...+++++++.............+.+....++...++..+++....+++++++..+.+....+",
"...++++++++.............++....++...++....++...+++++++....+....++",
"..+++++++.+.............+.+...+...++....+.+....+++++....+++.....",
".+++++++...+++++...+++++...+.....++....+...+....+++....+...+....",
".++++++....+++++...++++....++....+....+....++....+....++...++...",
"..++++....++++++...+++....++++.......+....++++.......+++...+++..",
"...++....++.++++...++....++++++.....+....++.+++.....++++...++++.",
"...+....++...+++...+....++++++++...+....++...+++...+++++...+++++",
"+.+....++...++..+++....+++++++..+.+....++...+++++++.............",
"++....++...++....++...+++++++....+....++...++++++++.............",
"+.+...+...++....+.+....+++++....+++.......+++++++.+.............",
"...+.....++....+...+....+++....+...+.....+++++++...+++++...+++++",
"...++....+....+....++....+....++...++....++++++....+++++...++++.",
"..++++.......+....++++.......+++...+++....++++....++++++...+++..",
".++++++.....+....++.+++.....++++...++++....++....++.++++...++...",
"++++++++...+....++...+++...+++++...+++++...+....++...+++...+....",
"++++++..+.+....++...+++++++.............+.+....++...++..+++....+",
"+++++....+....++...++++++++.............++....++...++....++...++",
"++++....+++.......+++++++.+.............+.+...+...++....+.+....+",
"+++....+...+.....+++++++...+++++...+++++...+.....++....+...+....",
".+....++...++....++++++....+++++...++++....++....+....+....++...",
".....+++...+++....++++....++++++...+++....++++.......+....++++..",
"....++++...++++....++....++.++++...++....++++++.....+....++.+++.",
"...+++++...+++++...+....++...+++...+....++++++++...+....++...+++",
"+++.............+.+....++...++..+++....+++++++..+.+....++...++++",
"+++.............++....++...++....++...+++++++....+....++...+++++",
"+.+.............+.+...+...++....+.+....+++++....+++.......++++++",
"...+++++...+++++...+.....++....+...+....+++....+...+.....+++++++",
"...+++++...++++....++....+....+....++....+....++...++....++++++.",
"..++++++...+++....++++.......+....++++.......+++...+++....++++..",
".++.++++...++....++++++.....+....++.+++.....++++...++++....++...",
"++...+++...+....++++++++...+....++...+++...+++++...+++++...+....",
"+...++..+++....+++++++..+.+....++...+++++++.............+.+....+",
"...++....++...+++++++....+....++...++++++++.............++....++",
"..++....+.+....+++++....+++.......+++++++.+.............+.+...+.",
".++....+...+....+++....+...+.....+++++++...+++++...+++++...+....",
".+....+....++....+....++...++....++++++....+++++...++++....++...",
".....+....++++.......+++...+++....++++....++++++...+++....++++..",
"....+....++.+++.....++++...++++....++....++.++++...++....++++++.",
"...+....++...+++...+++++...+++++...+....++...+++...+....++++++++",
"+.+....++...+++++++.............+.+....++...++..+++....+++++++.."};
