/* XPM */
static char *magick[] = {
/* columns rows colors chars-per-pixel */
"128 71 38 1",
"  c #b800ac009800",
". c #a8009c008000",
"X c #a00094007800",
"o c #a0008c007000",
"O c #980084006800",
"+ c #980078006000",
"@ c #900078006000",
"# c #900070005800",
"$ c #880070005000",
"% c #880068005000",
"& c #880068004800",
"* c #800068004800",
"= c #800060004800",
"- c #800060004000",
"; c #780058003800",
": c #700058003800",
"> c #700050003800",
", c #680050003000",
"< c #680048003000",
"1 c #600048003000",
"2 c #580040002800",
"3 c #500040002800",
"4 c #500038002800",
"5 c #480038002000",
"6 c #480030002000",
"7 c #400030002000",
"8 c #380028001800",
"9 c #300028001800",
"0 c #300020001800",
"q c #280020001000",
"w c #280018001000",
"e c #200018001000",
"r c #180010000800",
"t c #100010000800",
"y c #100008000800",
"u c #080008000000",
"i c #080000000000",
"p c Gray0",
/* pixels */
"457ew,70-1,;528e8rt54175;<4>498008ww5turr0yyruypqppyt6qeueprryprerieeye8uyypwr07e75typqepyque8qqeuturyyppriipupy9ppiq14pe40ry7qy",
"rreq2<132158488r68711812;6q689qe5ei0ypuywiurp8ypreeee9eupriru7ipreeeppueee07e007reepi8yrp05q0q00prqp8eyuuyiptepuyrq084p80tqt8,9q",
"i902<27047q<478q406172242r417qr88rquy0y7qr6y0qrepurpppuy6ppuepq00urppr85084yeqw0yqrpqrewr1rueq9ip4p8yyywyp0perqrpuwyerrry8073qpp",
"y6q;7644321-18094946,76756>eqpweypyp8i00pruuuerrewpryptryeyyruyeqpwtq0080qruywqeuwyep908qwp7q4rr7wrqrttrypiep0yyeqipyqrre2w6reet",
"046=7-723;4$yqy9r70%8wq426ureprteiqr8y6iqrqpre8qqpuprprripiryue8yprt8p709uqr495e8r0r845ere48w8r6uepptyqeypruyt8q0upe794e5783w7tp",
"48<,6876>322ytr85741i05>8er4pip5e8rwr0rq7epi0eppyrrpurp9utuerqq8prpu8456tqru578ryrru,6qp080u8qwepyipuyprqyuywrppri8w847y304reyyu",
"16,2q21;,617ry750921e5,2q08wpy7qtpuq8q87rpu8qupyyeupru8quyeyryrruriw20qyt0pr>7ypqqyy4qpu0rpu0teuurturuequup0quiie80038ur29e0e0q9",
"33;22:=3211ee<,64,-2e>>5q877p700t05,024qeq9eyyie8pppteprrrriiuururpq9ri0eupqqrriipyr4piyeiurrettiyw6u87rrq8qrrr94ee9qe4><9<88988",
"*1145-12-428e70q86207>79942ip0qrt82985terypuipppe9rpp0repperqtyrryr87ueeyuiuepteery7qitrue0yyrypir9yr9prrturprrtpir86-,q45ewr088",
"1q14,->1487ue8001,,6223867pie0rr9188eeerppppirypppqqrr7rt4urueyuu5e8rpuiutp4rpyrpppeipppterryeppt7triytrppryy8uee0<>,<y,<p808>7,",
"81<,>-8460t97481123542008pqq0eq82e8r09ruyyrueiuupurppeui2yppuywy9rrryp9uiywppyyuiuyruuypyyreeyyr8prprwryee0w7rr886246q12u8552703",
"17,>,61,7e28446:12242504u69ytee4p708qyreipppeywtppuurup0ruppryyyu9yuieprpreirupepppyippqu8quutu9eeyerurqirrrpr268747024r184706>2",
"41+;<#>20625481106122w7yqquyqr5p8480r09yperyi5eypipiyqpwyyyipwtueyeip0ryptwrtiypqtppyytirepiep0rr0eryq8pr6889;4e85842;5>80224-52",
"1=#,-478e56997585#15eqq8w8w8t7e6,188e9ii5ypiuyupep0erweyppeypuppuyepwpppurrpipiey0uprpuer8e0pqiw67rer8tr,8qe87w818;,1><076>8241>",
";;;<752056788812-2786520280r87433wqee0u8prywr6r0tq8rt0epppuppqrpuytyuueprryppuupepuiye7e59eyee000iyte8e2wy725;4,4,;22;e766721$-1",
"11>72<9707783-1>1>,122050wq7757497608w0tu04u8etqeteitpuepu7yewuypprpr0pypyupuqurirewq8r8eer0eqrqte9w796881-7>24<1410375,77@,*$2;",
"2:23>087652,*71211475t7ww660882785qqe8rer0iryqwrytptq7wur8ppepuppeuy8puyyyre9yupytyyep0rr89rer8rr9eqq5855<024<13w404,-,80#22&1>1",
"455:0047022,83>22142e84e56e8755w468w8w9prpeuw8uutt870rwpqyp8uepuppu8pprypryrrprpuerqpe8r78ueeqqu890q77294715<:6q44>;>2r5-61O,=1<",
"73;8q57w12,<2,14,24807rq5q77830730tee7yiyrprqyyrrqquuirr0u7pyuituy8pitiyeyrypyuperruyqir8rqqe8tq7wtq81r74162,4q43117581,w<X,>348",
"7490807121;32222>5708r87680e2qw8etre8uieippyuye9yrpypepry0pprppppypppipeyyeppppuqyyirpe09qey8yywrye02r825752442>64847,58>@2<7144",
"97420;<21:1;22428e08qq0e7yw49i8u0er0tyeypyrw0qeruppptypriyppirtyupreu8eyyeurppptpyirytey0pr7epqp0e058710411>;>1rw887214;24112>80",
"62,7<2q,52,7e7w8w440uyu7q839iwyq7r8eypyu0uupuyqrepwwrrieupryyprrpr0iwrrrupyr0yepueqtipp8eq5qpey05q467708-71480ye281<1>172,-45501",
"8<367q,17:586w5168rytw4764qterw8rtrpipytyryprqr0ye8petrpupyeyiriiqriprruyrurieiqrtpppr7875qyee060080q6818814<>2,52;6>,712148>2<5",
"848081178488e840t88090q50ryuuuiyyttpruiyuqeuwpytprppyuieeuuypipyptiyuyutrirrwprpyreeqww50rrrrrrq087028661*;1:60w72851627722>2270",
"648124806174487732eeru8quryuepe00rpppppe0piyyipuqpperee0upipuyuyiyirypreuuupypte86trri79rqee8y843607564;$2412585<85,,;792,22118q",
"484,q081417<t944w0p8ue8qe9y8up80rprr0ueruy0uquyuuy7rrq3ytwtqupeyyiyerrrypypqru08twp8pq5784q2qe125821;6;;,5$1;8q55q$<>0u3-8:&16e4",
"86%0q8>41416e73090rqpq09q0ueee90p0pqrpptyrpipqpepq9yp7ueep1yp0uppu6urueieyqrpe7e09e8y7535295i4118,7>932>5;225r717,;84r>%7< 74r47",
"7<5r05<,461ry9407yqtiy4q8ppptr0prppippeyptptiyqqi0pyypptu5pyepytpqyeyiewrt9pie506r8qy0>410q86418477434->2>1<74,<6>6271<42.27q744",
"e17q8;-28,7ee278pyypi37epyy8pyeyrui0prqyytpuepweiypeprpppipeiiruywuup75eu7eyr366yeqet;,48e6>0625255;2:&6>>22,6<r935q37111<2q454q",
",;70-12057qurw0pieepeqrypy0iyqrrrprqpurprurwquwr0eweppuqr8rpuprp87yp40qiqqrye07ye77w526705,7e142271>6182>58:r0ye>1r:21,8;@84484q",
"22r>073787yr999eerpptr8uerrprt0ryieiypyiieerprq78yr0uype7prepwee0qu7ur0ee9te764778rw75,7224834,45014851110>152<;;q1-7,3-O40<8134",
"4r70e15rrpieperyeuuqr8eeuiiuirupipwypupuyu7epupuptwuuurppqrepeeu0peyp69uypy8y88yp0026,427706037007<46221<1$>858q8w>26<>22e110460",
"e98085yuperue9ri78eeyt0iuuirrtrrwweyiteeyp0iutpert7upquuui8iy7yeurerw8pyp0qw728q1176871qqq723544111471>;12;7037122$22*5163;07,98",
"09qrwrpe80r0tqrrpppep7uptq45peqwrp8wrweyie7iyiuupr9yuruuieey8tuyeerurype77048477wew6e,785<%&021248:,1:>12>#4365572;818773,2719ee",
"q8rrqr7q80erqerpe08q08ww858py8erp65yeypyueyrepiuy8yripteq8wprpeyrqytwr596578578r74452132>&;0e,259;*4e12<1;10e8654-20741>,>2q8e9e",
"4epqrq9e6yu0iuer8eq9ueee8ypir0upq0rqp0rrueyrpeurwriyyreuqertuyry6rpwr07010w4eq804874q742>4704<70214y5;,>1;197<42,18221<4<2u8weqe",
"uyy8p780rpqrp0eeqr8pu78qrpqpyppeqwrpweuprur9ippippiueupryrprterrpry8i5670r68t589704r0<,<37,758021247>>12>18r77557658e4726yq0p9ew",
"er7eq2retwrpp0r8u8ye07uyywpeuprwyrpeptrpi0e9upuyeppwteruupeipeuprr7e01q9q70ry7q7r5w72,74q,8e0852547e58824q0e7780188t414w8q7yr9ri",
"er0e0e8yqiip894y0etyuitiiyeiuieeuy8urupuwperiyi6pppprep0epyttetret9e805e7rry772r80q99q3842e89722q4i8062>8188225&798842014w0pq0ee",
"rqwwt1yypurqp0iuipyiirepyrequpqwprprpprtpuripptreipueqeyrprppwiyrqq0e>eeype8i8ypyyq0w2,610qr87<y8e7922-41274252ey8q84258ueper8pr",
"eyeu0reiureir9pwwquppwpr9q7ppepuueeyiyy0teeqpppyqyet8riuieutryiwetqr7qyipwqpe8p075998:58eqy55<7051e74;;83680457w286817rrqpqp9wp0",
"uurpyuiqwrrrerryirrupue8uuurprpyrqqyrr08pywuryuuyipurutpepppeupwuywyepi88eeeweqwtur0518q23<,417q1re<;-89,28<<2q88qeq8yuepere8iyq",
"yrrpyy88urrpyepppyuyyytpyprypueiiyuyuq0iu8yupyyutpypypiiipuyppreuwqrew55pqqpe8rrw64<>;3,;,6754e8892,388,-0555we09rqrqrr00w9yrree",
"y9iyeqqipqiyyppiypiyrr9ry80yyyerperpyuyprqpyurpyypyy0ruprpreepetr6ei877rr8ieqeq8q45>4272200,79ew5q92211:27214re0eyew5i00uwup7yqy",
"ppep0uwypupuyipwpuur7yupewpp7y8yprw8rywyr0py8euepieurwirytyprp7yyrpe4q7iyeyyt98r4<220,,:47,1u9i270-O41514949ppw0yy0epp0yrtyr0u8p",
"ypurreyewirupuypyqreyr0800u78ytrtuw85w6y3wueuyyuurueppiweprieyer0qr7770p6wur0685>732>o57783ty9q202-ee5q1t87re0eyprpuee9uy0ue0tr0",
"ytureuiuy0eyrupyeeuqu51e8rr8yuyytyq9y8tyreypuuurytreiypurpueyrwe8re539008pye224464>3:9r4847y880301qq38217;00qptruru8wrqe4qy8ruup",
"ppu8yeueeeyriye8ee8q97ituyqrprriipputyuuyuyryiqutppeirqiipuqr00y876>727yyyq<2778427257:114q06w26463>41;:,7e7pywpupu8r7288ri0urie",
"erpppp77teuyqr8er8er0perq7eurpurptuyeyiyqqprrpurrpwrurpuuquet0r71w7790upqe77050417215;348r03e763511462>4etqpyppiyp0006qe0tyypirp",
"r7uyie0pp9rrrq9r77wwrr0y0priyrrrpptu0yrqqpypir7rurruiyyiertr8e770u898ry77r8757820843227304,8e4447684027qr0uuiu0upreq0r8euuupytpi",
"08ppp0pr85yqr0r9rrippuuuiytyptuirtpr8yupypipy8ryiyutrrpeppe8e87ert446r40ru58483842;;:1:3410q8677e248e556qquprwppptr0p7epuiiyruiq",
"0iup0ie880yirrryyrypure9pqppipywyu00yuiwyirpuryppeupurupeyewq400e514e20re03>454224->248e4r89ww7u48re6<2rryuipppupqeeq8yyeppyrpew",
"0ruepr883wuq7twrryeu8rryrupywyeupruyyyeqieyyrtey8ryyppiqurq8777ew87q49rru8>8e5877;-2e78,087rp8u77q2,77eueuurqpyp8eeqryrqpipuiyr8",
"eyypwq82tpyeiuiuypi0yupq9eu0rpyryup43r8e8rtue2wriipyprtriee878tp86740wrp6158454<,21q6,4eyrqpye74q44ppqiyrutrt7ryutupyqyeyurtte61",
"pqprte6iu0peyyppwuyqtq205pu8yeuurp45yeyeiypequpieuuryrwu7r950eu72w4879y45w4q7165w1,070prp8eir58we7pp8ewpyeprrppuerp0rr0wrrype95r",
"rpepp0rr0pyi7pppuee4e8uqyewyqeyippqperpirpp8p8ew8pirepr68e588w0782;42e88e217%6872>0i8e6e02ur247q77r4w29r0uiwuwre8pyerpieprpre0qr",
"ypu0828qpuppu8yetw40rr98pr0ypuyepyeerp0qyeppyryypeipieiteuwepuw2<47rrpte63770i0w8quq77ey7ep7q8et79ewq8pupruuryruprupyyyyt8e045qp",
"808787yppyyweqrey709e67qp8uriiqru76w6q2qyeripwtrpypippp0yuyir022reryyy867qqyryee8yqq8rre6pwrw8ue5pprpuquprrpieurpypputep48869epi",
"8w9wq9ur9wq0reey00r8q08pq8yyyt7p01r59w8upetyuqupueiuwpyepyp8rq7yrwrwer8quryuerw7w05080e4riwe7ru7yrwiiuuwyrtuieyppwyp7er2897t8eu8",
"r0ew7ri8trrpp8iq8085r<975rprr2re>756eeei8eppupryerpeeweyyieri5wr9rqwi08uqee87y6qq88w2pqrpe8rrerrqppprypeqrpiyiwi0wy87p3eq5e07pe0",
"88q8ru6t00uq588477881;q8etw706r278yrr6uq0iuyupurupupyip0utew84i4rtet07p0yy9rpret0877ti8rqqyipurrpi0wetryepirripierwete8p5qeeyp7p",
">e7ew28y5i07e67t676;18e787w988r8eye42wi7upyper9iqyupppeyeeyw8pe8r0t0qiy8p7ry8rw1988ir97rypypppepe0eueprepptyyiee690eeqyw1e0ey50r",
"707r76iy4e4032y6$w1484574uq50uw6e764rprerrrqpyu6iuueppieryr2ut2etwr8ry27p9iqyy18p1e07eryp0utpqyiepiyrwpueryrtiq,r9ru8801e0qu78p0",
"4eyp7ty,6r7rwry,er:547y7yp8tyuqyrryppeuruy8pueiqru0ure95ee>0r43iy732e5:ur5e551:r<>t8wq5u07pe6quqwww097uwyiqeyp0py8p72tpieeer8ip2",
"re032r51r88w361;2;;78e70ptqie9wqeyryyreuuuyypyiy8ipye27uy7eui8qy457rt4rp4084w8ey0yu887yt8eiwypuutwtr8pyitpq8q785>785rrp48u054e82",
"22230q84452>311;645ee5eep06eqwqqpr0p6qerpetprepuyeq085iwepri9,80rrre768ewqruqewt78947y0e9prppppp8rpeqrrey7894r85qetyup4eq473qp97",
",640q6<;2,;85342848r7wwqr2rpre0pp4i7eprrpieirrweut0trtyuewe84quiy8q549ypeyp7000w5084eqeut0ueupieeqreuiepr0u7ee,e80r0q887-07qr7<>",
",81r1111137r9546q7w0y898qeu8e5yt7wr0ueppeiyepwrey8ypyeuuy6r7tqqer5q,weerew81500849707uipppqrpwuuripeyqur474<6>qq1u857q545r5q2542",
"585r,9>1104i>4184q7y724wre50e8r6uepyper8piyyte6r7eye8e8p00w5w5ey727>e4yer6w>pey8r8e<irrpip0rirpwuuiup0i106029wp<u070t0r2087e502;",
"9387,-;>848w<24qewet>50p080u8qqepuyirptprpyy00rr0i7e08ey9y7yerrr2724eiuu8e97pyr878080tprrwreeyy9uryy0e78w711re88e5y0wr8>q4q12<<>",
"q382$13884e0%4et88re29yr8wuy8rrptqeipuiyprp88eru07qe8tru0rywe898<730pee90t7qwu86erqeepypetppwuqyuwqrr8qq5<4rr097eyw9e6;,04242534"
};
