/* XPM */
static char *magick[] = {
/* columns rows colors chars-per-pixel */
"64 64 4 1",
"  c Gray80",
". c #303000009898",
"X c #888888888888",
"o c Gray100",
/* pixels */
" .       .       .       .oXX..      ..      ..      ..   oXX   ",
" .   .   .   .   .   .   .oXX .     . .     . .     . .   oXX.  ",
". .     . .     . .     . oXX  . .     . .     . .     . .oXX   ",
"   .       .       .      oXX  .       .       .       .  oXX   ",
"      .       .       .   oXX      .       .       .      oXX . ",
"  .    .  .    .  .    .  oXX.    .  .    .  .    .  .    oXX  .",
"      ..      ..      ..  oXX   ..      ..      ..      ..oXX ..",
"    ..      ..      ..    oXX     .       .       .       oXX.  ",
" .       .       .       .oXX..      ..      ..      ..   oXX   ",
" .   .   .   .   .   .   .oXX .     . .     . .     . .   oXX.  ",
". .     . .     . .     . oXX  . .     . .     . .     . .oXX   ",
"   .       .       .      oXX  .       .       .       .  oXX   ",
"      .       .       .   oXX      .       .       .      oXX . ",
"  .    .  .    .  .    .  oXX.    .  .    .  .    .  .    oXX  .",
"      ..      ..      ..  oXX   ..      ..      ..      ..oXX ..",
"    ..      ..      ..    oXX     .       .       .       oXX.  ",
" .       .       .       .oXX..      ..      ..      ..   oXX   ",
" .   .   .   .   .   .   .oXX .     . .     . .     . .   oXX.  ",
". .     . .     . .     . oXX  . .     . .     . .     . .oXX   ",
"   .       .       .      oXX  .       .       .       .  oXX   ",
"      .       .       .   oXX      .       .       .      oXX . ",
"  .    .  .    .  .    .  oXX.    .  .    .  .    .  .    oXX  .",
"      ..      ..      ..  oXX   ..      ..      ..      ..oXX ..",
"    ..      ..      ..    oXX     .       .       .       oXX.  ",
" .       .       .       .oXX..      ..      ..      ..   oXX   ",
" .   .   .   .   .   .   .oXX .     . .     . .     . .   oXX.  ",
"oooooooooooooooooooooooooooXX  . .     . .     . .     . .oXXooo",
"XXXXXXXXXXXXXXXXXXXXXXXXXXXXXXXXXXXXXXXXXXXXXXXXXXXXXXXXXXXXXXXX",
"XXXXXXXXXXXXXXXXXXXXXXXXXXXXXXXXXXXXXXXXXXXXXXXXXXXXXXXXXXXXXXXX",
".     . .     . .     . .  XXooooooooooooooooooooooooooooooXXo. ",
" . .     . .     . .     . XXo.   .   .   .   .   .   .   .XXo  ",
" ..      ..      ..      ..XXo.       .       .       .    XXo  ",
"     .       .       .     XXo    ..      ..      ..      .XXo  ",
"      ..      ..      ..   XXo  ..      ..      ..      .. XXo..",
"  .  .    .  .    .  .    .XXo  .    .  .    .  .    .  .  XXo  ",
"    .       .       .      XXo   .       .       .       . XXo  ",
".       .       .       .  XXo      .       .       .      XXo  ",
".     . .     . .     . .  XXo .     . .     . .     . .   XXo. ",
" . .     . .     . .     . XXo.   .   .   .   .   .   .   .XXo  ",
" ..      ..      ..      ..XXo.       .       .       .    XXo  ",
"     .       .       .     XXo    ..      ..      ..      .XXo  ",
"      ..      ..      ..   XXo  ..      ..      ..      .. XXo..",
"  .  .    .  .    .  .    .XXo  .    .  .    .  .    .  .  XXo  ",
"    .       .       .      XXo   .       .       .       . XXo  ",
".       .       .       .  XXo      .       .       .      XXo  ",
".     . .     . .     . .  XXo .     . .     . .     . .   XXo. ",
" . .     . .     . .     . XXo.   .   .   .   .   .   .   .XXo  ",
" ..      ..      ..      ..XXo.       .       .       .    XXo  ",
"     .       .       .     XXo    ..      ..      ..      .XXo  ",
"      ..      ..      ..   XXo  ..      ..      ..      .. XXo..",
"  .  .    .  .    .  .    .XXo  .    .  .    .  .    .  .  XXo  ",
"    .       .       .      XXo   .       .       .       . XXo  ",
".       .       .       .  XXo      .       .       .      XXo  ",
".     . .     . .     . .  XXo .     . .     . .     . .   XXo. ",
" . .     . .     . .     . XXo.   .   .   .   .   .   .   .XXo  ",
" ..      ..      ..      ..XXo.       .       .       .    XXo  ",
"     .       .       .     XXo    ..      ..      ..      .XXo  ",
"      ..      ..      ..   XXo  ..      ..      ..      .. XXo..",
"oooooooooooooooooooooooooooXXo  .    .  .    .  .    .  .  XXooo",
"XXXXXXXXXXXXXXXXXXXXXXXXXXXXXXXXXXXXXXXXXXXXXXXXXXXXXXXXXXXXXXXX",
"XXXXXXXXXXXXXXXXXXXXXXXXXXXXXXXXXXXXXXXXXXXXXXXXXXXXXXXXXXXXXXXX",
"  .    .  .    .  .    .  oXXooooooooooooooooooooooooooooooXX  .",
"      ..      ..      ..  oXX   ..      ..      ..      ..oXX ..",
"    ..      ..      ..    oXX     .       .       .       oXX.  "
};
