/* XPM */
static char *magick[] = {
/* columns rows colors chars-per-pixel */
"61 61 4 1",
"  c #be00be00be00",
". c #800080008000",
"X c #800080008000",
"o c gainsboro",
/* pixels */
"             ..oo                          .. oo             ",
"             ..oo                          .. oo             ",
"             ..oo                          .. oo             ",
"             ..oo                          .. oo             ",
"            ... o                         ...  o             ",
"           ....                          ....                ",
"..............    XXXXXXXXXXXXXXXXXXXXXXXXXX     XXXXXXXXXXXX",
"XXXXXXXXXXXXX      XXXXXXXXXXXXXXXXXXXXXXXX       XXXXXXXXXXX",
"   ooooooooooooooooooooooo       ooooooooooooooooooooooo     ",
"  oooooooooooooooooooooooooo    oooooooooooooooooooooooooo   ",
" oooo                       o  oooo                       o  ",
" ooo                         X ooo                         X ",
" oo                          ..oo                          ..",
" oo                          ..oo                          ..",
" oo                          ..oo                          ..",
" oo                          ..oo                          ..",
" oo                          ..oo                          ..",
" oo                          ..oo                          ..",
" oo                          ..oo                          ..",
"  o                         ... o                         ...",
"                           ....  o                       ....",
"    XXXXXXXXXXXXXXXXXXXXXXXXXX    XXXXXXXXXXXXXXXXXXXXXXXXXX ",
"     XXXXXXXXXXXXXXXXXXXXXXXX      XXXXXXXXXXXXXXXXXXXXXXXX  ",
"oooooooooo       ooooooooooooooooooooooo        ooooooooooooo",
"oooooooooooo    oooooooooooooooooooooooooo     oooooooooooooo",
"            o  oooo                       o   oooo           ",
"             X ooo                         .  ooo            ",
"             ..oo                          .. oo             ",
"             ..oo                          .. oo             ",
"             ..oo                          .. oo             ",
"             ..oo                          .. oo             ",
"             ..oo                          .. oo             ",
"             ..oo                          .. oo             ",
"             ..oo                          .. oo             ",
"            ... o                         ...  o             ",
"           ....                          ....                ",
"..............    XXXXXXXXXXXXXXXXXXXXXXXXXX     XXXXXXXXXXXX",
"XXXXXXXXXXXXX      XXXXXXXXXXXXXXXXXXXXXXXX       XXXXXXXXXXX",
"   ooooooooooooooooooooooo       ooooooooooooooooooooooo     ",
"  oooooooooooooooooooooooooo    oooooooooooooooooooooooooo   ",
" oooo                       o  oooo                       o  ",
" ooo                         X ooo                         X ",
" oo                          ..oo                          ..",
" oo                          ..oo                          ..",
" oo                          ..oo                          ..",
" oo                          ..oo                          ..",
" oo                          ..oo                          ..",
" oo                          ..oo                          ..",
" oo                          ..oo                          ..",
"  o                         ... o                         ...",
"  o                        ....                          ....",
"    ..........................    XXXXXXXXXXXXXXXXXXXXXXXXXX ",
"    XXXXXXXXXXXXXXXXXXXXXXXXX      XXXXXXXXXXXXXXXXXXXXXXXX  ",
"                                                             ",
"ooooooooooo      oooooooooooooooooooooooo       ooooooooooooo",
"oooooooooooo    oooooooooooooooooooooooooo     oooooooooooooo",
"            o  oooo                           oooo           ",
"             X ooo                         X  ooo            ",
"             ..oo                          .. oo             ",
"             ..oo                          .. oo             ",
"             ..oo                          .. oo             "
};
