/* XPM */
static char * Whirl_xpm[] = {
"128 128 33 1",
" 	c None",
".	c #020305",
"+	c #1A3E44",
"@	c #0E232B",
"#	c #2E6064",
"$	c #14333B",
"%	c #07131A",
"&	c #1F4E56",
"*	c #0A1B23",
"=	c #112B33",
"-	c #1D4853",
";	c #163A43",
">	c #25565C",
",	c #133445",
"'	c #0E1E24",
")	c #112C3E",
"!	c #081624",
"~	c #122529",
"{	c #426E74",
"]	c #426A6C",
"^	c #366A70",
"/	c #050C13",
"(	c #49767C",
"_	c #23494D",
":	c #265156",
"<	c #2B585E",
"[	c #19404E",
"}	c #0D2436",
"|	c #0A1D2C",
"1	c #163A4C",
"2	c #1E4143",
"3	c #1A3539",
"4	c #0E1617",
"..........$$=!')==}*})@@}~*}}%@@*/*%!%/%..........//%/////////////!%//%%***4%4//..........%//%///////%/%!/*//!!%**%//!!!........",
"..........~=~4!@@@~*~@||~}%~~%}|*%*//!/%........../%/%%%/./////%/%%%//%44*'!/*/%..........//////.///////!/!/%//%!!%//%!/........",
"..........@~|!%|||*!@*|'@*!|@%}@!%*!!/%/........../%%%%%%///%//%/%4%%%4*@~''%*/%..........%////////%%//!%/!/%!%/%!%/%%!%........",
"..........'|@/%|***%!*|!*****%~||/*//!//..........%%%%%/%//%/%%/%/**%%@4~='*%*%/..........//.///.//%/*/%%/%/////%%////!/........",
"..........**!%%*%!*%!*%*%!!%*%*||%*%/%//........../%'!*%%%/%/%%%%%*%*%@'==~***%!..........////./////%!/%//!////%%%%/%%!/........",
"..........%%%/%%%!!/!/*!*%%%%/!*%%!/%///..........4%!!*%%/!%!%%%%%*'%'=433@**@%*..........//.//////%/%/%!/%//%//////////........",
"..........%%%/%%%%%%%%%%%%%/%/*%!%%/////..........*!'*@*%%%%!!*!!!@@@'=@==@'''!*........../////././%/%/%%//%////////%%//........",
"........../%%//%//%/%/%%%%%%//%///!///./..........!%@@@!!%%%*!*|%*''@@='=3@*@@!*..........////././///%////////////////%.........",
"..........//%///%%%////%///%//%%//////............*!@@@%!%%!*!|@%@@@~@=~=='*@@*'..........//////.//////%///./././//////.........",
"..........///./////%%///////////////.//...........**@|=*!*!!|*|||*@@~==*$=@*@}@|.........././//././/////////////....////........",
"/%!****|@|@@@}==$;;;+;$$$=$$$$,==}|@!!*/%////////.|@@|@*!*!*!@|@||@===='=$@*@=@|///%%%!%!*@||}}}}})),1,1,))}}))}}}}|@*!!!%%%///%",
"////%/%!%*|*|*@|=}$;$),=)$)}$$),}==|**!!%!!%!%////|@=@}**||!|*@|@|=====*$$@*==@@%%!!*!!**||}}}}}}}}}}})=}=}}|}}|**||}|@|*!!%%%%/",
"/%%%!!!**|@@=@=$,[---[,-,;;,)),)}}||*!!%%/////////@@$|}!|||!||@|@|}@$=='=)@|})==/%%%!*!**}}==}}))},,=))),}}}}||}%||****!!%%/////",
"////%%!%*||}|}==$[;-;;;,$$)}=}}}}*|**!!!//!//////.=})=}**|@*@@}}@@}====|$,@@$$$@%%%%%%*!*|@}}=)|}=))),,1,,)}))}}}}}}}}|@|*!*!!!%",
".//.///%%!|@@==);+-++++[1;,)$},}}}}|**!**%%!%%////==)@}||||**}}=}}}==)=@=,=|=;==//4%%!*!|'}~@}}}|*||||}!||***!!!%%!%%!!!!!!%*%//",
"%///%%!%**|@}});+;+[-1+[+,)}}}*|}||**|**%!!%%%%%%/,}$})||}|!}}})}})$$$=@$;=}$,$=/%%%**!|@@=)$)$))),))),,,),}}))}}||}*****!*|!**!",
"/////////!!!|@=};,$,;,[+;,=)}})}}}||||}|}*||*%%/%/$$$=,|}}|*|}=)$))$,,)}$))},[;$%%%***@|@=$)$))))}})}}}}}})}}}}}*|!!!%%%%!!!%!%%",
"///////!!%*|||=$$[;;,;[[,1}}}}}|||||**!|****%*%%/%,),},}}}}*})),$$,[;[$$);$=;;;=%%*%%*!|@|@==}}|*||*||)})}}})}}})}|***!**|*@@*!%",
"///.////%%!*|}=;-+&-&&-&[1)))}}}}}}*!!***!**%*%%/%;;,=)}|)|||)}1,;,-[[,)11,),-,$%/%%%***@@@===)|}}})}}|})}}}}))))})|||!*|*'|**!%",
"////////!%!*@|$$;----[-[[11)}})}}}||**!*%*%*%%%%%/;,1),}}}}|})),$;+-[-;,1;)$;[[$/%%%*%*|@@==$$)))))}}}))}})})}}))}}|**|!|*@@@**%",
"///////.///!*|}$;;-[&&&&[1,,))})}}|!*/!!*|%**%/%%/,$,))}}}}|}),,,;[&-1;$1,,=+[[$/%%%%***|||@@@@|}||}|}||}}})),),1,,}|*!**@@|**%%",
"///././///%/%*|==,;----&-1,,,)),))|!!!**|***!!%//%$1,,)})}}}))),$[;---,,1,$))-;$%%%%*%***@||}=}))}}}}||||}||}}==}}}}|!!%!%*'*!//",
"//%//././/%%!}}},,+--&--1[,))))}||*/%/%%%*!****///$),},|}}}|,,)1,,,[[-$,,1,==1;)/%%/%*%||||||}}|))}}|}!}}}})),,1,[,$}|**@}@@@'*%",
".//.////////*||==$;;[;;+,))}}}}}|!/%/%%%%%%%%%%%%%},))}}|)})},,[;$;--1,=11)))$$$///%%%*****|@*}}}})|}}|||}}),,,,;$=}}*!!%*'**%//",
"/.///.////!%|}}),11&&#>&--[11,,)}}|%!|%!!!%%%%%///}))})||}}},),1,$)1;,),,11),,=$/%%%%%%%|*@!|||=}}}}*||*|||},$$$=$=}@|**||*'**%/",
".//.//.././/!||}}=,,-[--[[111))}|%%!*%!!%%/%/%%%//,}}||||})),,1,),,,),)=111)))==////%%%%%%%!!!***}|}|||||}))),,,1),)}@!!*@@@*!%/",
".//////.//%%%|}}=});1[-[[[11,))}|!||!**!!%%%%%%%//@))}}}|),},,)1=,=,)),)11,1,)}=//%/%%%|*|||@}}},})})|}}}}))),1;;[,$)}@@|@@@**%%",
"///.//././//!|||}=)=,;,111,))}}|!|!*|||*%*!%**%%%/})|!|||})))1,,})),),)),)1))=)=.//%/%%%!*|||}})|)))})}}}})),),,[)$))@@|**@'*!%/",
".././//////**}})))),),111,),))}}!}|||}|**%!%%%%%//|})}|}}))),)),}}),),1),,,,)))}///%%*%@@@@}=@}=})}}})}))})})),);$$$=}****%*%//.",
"//.//...//%/!}|)}})))),),)))}|}|%|*}}|**!%%/%%%%/.|}|}||}},}),))))},)),1,),}))})//%%%%*|@@===}=})}}})}}||||}||}}|}}@|||!%****%%/",
"....////./!**})))))))))),))))}}||||||||*!!*%%%////|}|}}}}})}))})))),1,),1},}))}=///*%%*|@@}==)=))},)),))}}}}})),,)))=}@||****%%/",
"////.//////%!*}|)}|||}}})})}}}|}}|}}}}|*!**%%%%/%.|})}}}})}}})})},)1)11,,))}|}}@//%/%%*%||@|}|||}}}|}}}}}}||}}}==$)===@@'*'***//",
".....////%%!||}}*}}||!!||}}|}|!|}||}*@!|!!%%%/%///|})}|}}}|}}))})),,,)1,,}}}|}|}.///%%*%|%@@}@}}}}}}}}}}}|||*}|}}==}@=|***%%%%/.",
"../....////%%*|||*||%!|}|!}}}|}}|}}*}**!!%%%///./.|}}}||||}}),}=),),,,,,)|)|}!|*//%%*%*|*@|*@|}|||||||}|}||*}|),););$)=@@@@=@*!%",
"/.///////!!*|}}|||!!|!!%}!|!|}|!}||}|}|***!%%%%///|)}}|*}}}}),),},),,),=)|||%||*//%/%%*%%%!!*|||||}|}|}|}*||||}}}}==}=@|||@@@*%/",
".////////!!*}}|}}!|!!!!!!!!!|%|%**!*|!!*%%!%%%%%/.*}|||||})}),=)=$))),)}}}|!|!%*.//%*%%*%*|*|@}|}}||||*|||*|*}@|}}====@|@*@@@*!%",
".././//%%!*}}}}||||!|%|!|!|!%!|||||}}||||***!%%//.|||}*||})=,1))})@,===}}!|!%*%*///%%****@@==)$)}=}}|}}}|}}|||}|@@=}=@@*%!**@*%%",
"...//.///!!|*}|}}!!|!!!!/%%/%!!!!|**||}@@@@**!%%//*||||*|==)$;==}=@}=}}||!|%!%%!//%%*%*|@}=$,;$,1),))})|))}))))=})$,)==|@@*@%*//",
"/%//%//!%*|}|}}|}!|!|||%!%|/!%!!*%|!|||@||@***%%//*}|}|}*),=;;=}@@@}|||!*%%|/!!!.//%%%!*===)=);,11,,))))}),,,)),}=})=@@!%%%%/%./",
"%%%//%%%!*|*||}||!!|!%/|%/%%%!%!%/%*!****@%*%////.*|}|}}@)==$,@}*|@}}*!!%/%%!%!!//%/%%*%|@@$;;$,,,,))})})))}))}}=}=))@@|@@@*@*'!",
"..........///..//..../........../..//.//..........|}@=@@@=$@==@@|@*@|*%/%//%%!%%..........!%%%%%//////././//%///////////........",
"........../////..////../.........//./%%%..........@=}@@@@=@@@}@|*|*@*%%%//!%/!%%..........*%%**%!%%////////%////////////........",
"..........///////././/.//.../.....///%%%..........@@@|@@*==@@@*|*|!|!%/////%/%/%..........**%*%'%%///%%%%%%%%//////%%%%/........",
"..........///////////./..///../..///%%**..........*@*|@|*@**@|******%/%//.///%//..........*'*'*'**!/%%/%%%!!!%%%//%/*/%!........",
"........../%//%/%/%//.//././../...//%%!4..........****@**@*%****%*%%!///////.%//..........'*%**@@**/%%%!!*%*!!%%%%%%*%%%........",
"..........%/!////!/%%//.//../...///%%%**..........%%*%%*%*********/%///././/////..........*****'@|%!!!%%!*''**%%%%******........",
"..........!!*%!!%%%%////.////./..///!%!!..........*%*%**%*%%%%%*%%/%///././/.///..........'*!**'@@*!*!!*!'@@|*%!!%*****'........",
"..........%!!/%%%!!%//////./..././//%%!%..........%%%%%%%%%%%%%%/%///./../..//./..........*|***@@'!*****@@@@@@*|%**@@''@........",
"..........!**/!!%!!!/%/%/%///..//////!%%..........%/%/%/%%//%%%%///././.../../............*||**@@@*!@****=@=@@*||@@@@'@@........",
"..........*|*%!%!!!!!/%/%///../..///%%!!........../////%///%/%/%//.///../../.../..........|@||*@@@*@|@**@@==@@@|@@@==@=~........",
"@@@@*!%%//!*|/|!!!*!!/%%/%//%.//.%//%/|!///%**'*'@@@@@@====$$$=}}}|**!!%%!%/%!/%%%%!!!%///*@@*|@@@|@||*@=====@@@*=@=$@==////////",
"%%!%%%%//.}}|!!|!*!**%!/%%//././////%%!*//%*''~@@@@@==@@)==;$)==})}||!!///%!%%!%%!%**!!%//|@|*||@@=@@@||@==$==@=@@====$$.//////%",
"}=~~'**!%/||}%*!!*!|!!*%%%/%./..%%!%%*||/%%%*'*=@@=@@====)$$$)}||*||!%!%%//////%%!!!*%%///|@|@*@@@@=}@|@@$)$=)}}$==;$=$;/%/%!*'@",
"%/%%%%/%//|}}!|*|!||!!!!%!%///%//%%%|*@|//%*'~=@@====@$=),;,$==}|}||||!!!!!%%*%%!!!'**%%//@}=|||@@=)=@|})=$$=$=)=$=$;;;;//%%%**@",
"=}@@@@%%//|}|*|%||||}*|!|%%////%%!%||}||//%%*@@=@@@@==@====)}||*!*|||||%!%!%!%!!!***%%%///|=}|@|}|$=,}=@}),$=$)))$$;;$;;//%%**||",
"@||*'**%%/}}|||||||||||}%|%%%/%%/!||*}}@/%/%*@@$==$=$$,;+,[;;)}|||||||!|%%!%!%%!!****%%%/.}}}}|=}=}),}@}=,,)$,);$;++2$$$%%%**'|@",
"**%****%//})}|||||}|}|||||!!%!%|!!!|}},|//%%%*@@@@=@=====$==}}|!!!!!|*|||!%!!!!**|****////}}}}|}=@=$1))}=);$$;;,$;+--;$,////%%/!",
"%%%*%@%%//}})|)}|}}}})}}|}!/%/||!|||}}}}.///%**@@@@@=@=$$)}|}*||!!%*!!|!|||**||**|*@*!%%%.}}}}}}=})=[$$==;),););,+--_$$;//%%%!'!",
"|||*'@@*//}))}})})})}}}}|||!%!|!||}|}),}////%*@=$=$$;-+[&[;)))})}}}}}}))})}}}}***|*!%*%//.}}}|})}}),[,),,,);)-,-[-&:-$;$////////",
"**%**%%%//)))})}))}}))})||!%!%|}|!|}}}}=///%%*@~=;$;22-&-[),}))))})}}))))}}}}*@*|****%%///}|)|}}=},1-,,,1,,),1$[;&#&[;))///%%!!*",
"/%/%**%%//)))},))))))}}}%}!%/!|!}||}}))}///%%*@@=$$$2[2-;,1)))})))}),)),,),})}**||@**%%%/.}}}}}})|),[,,,),,),,,1-&#:[;,=////%%!!",
"*!*%*%|%%/),,),,,,)),}}||!|%!%!|!}|}}})@.///%%*@@=$$+2-+;,)))})})},)),,))))}}}**|*****%///}}}}})}},)-,,,,),)})=[-<#&;$=$///%%***",
"|****'*%%/,1,)),,,)))}}}||!!!%|!!||})}}@///%%%**@@=$$$$$$)=})})})})),)))))=}|}|||***%%///.}|}}})}}},[,$,,),,=),1[>>-;,,,//%%!**|",
"|!%%%%!%//11[11,,[)))}|}!||!!!%!!}*}}|}|.////%%****@@@@|||*|***||}}}}}}}}|}|@|'|*||%!%////|}}}}}}|,)-,,,),))},,[-&&+,,)+////%/%%",
"*!*%%%*%%/[-111[[,))}}}}!||!%%||!!}|)})|.//%%!**@==$$;,,1,,,,,,111)))))=}}}|@@||@|**%%////|}}|})}}),[,;=,,,,),,[--[;,,;-%****@*|",
"@|!%**%%%%[[--11[1)))}}}*}}!!!!!%||}}|*}/.////%%**@@==)$)))111111,,1,)})=}}}@|@|'**%%///..)}}})}}}),,,,,)1))),,-&[;,);,&%/%%!%%%",
"|*!!%%%%%%---[[[[1))}}}|!|}!%!|}%}||}}}*///%%%%**|@}==}=,,11111,,,,),,)})}}}||@***%%%/////})|}}}||),[,,,,,11,;,[-;1$,[[<*'@@'@'|",
"%/////%///&&&-[1-[,))}|}||!||%|||!!|||}!/.///%%%!**@|@}=},,,)))}}|}}}|}}}@|||**|%*%%///./.)}}||}}}},1,1,1,,,$[+&[),)$+-^/%4%4%!%",
"*|%%!%%%//>>-&[&11,))}|)*}}|||}|||!%}}}*///%%%!!**@}}),),1-1,,,))))),))=)=}}=@@@@**!*%%///)|}}}}|}},[,1,,1[11[-;,}=,1-&^4*'@*%4%",
"=**%%%//%%-&&&----),}}}|||}}|!|}%}!||!}|../////%%%!|@@}),,,,,})),))))),,)))$}}@|!*!!%/////}}|}}|||},1)[,1-;[,[1))}},$-:(444%4%%/",
"@|*%%%%%%/->#--[-1,1,||}||}}}!)}%!|%}|}|/.//%%%%*!*|}}=$,1,,)),),)1)1),1,,1)=)}}@*!*%%%///}}|}}|||})1111-1-;;$))=},[;:#(4~~@~*@@",
"%%%%%%%//%--&&[-[-,,)}}}||)}}|}|%}|!}}}}././////%!***|}=))}}}}|}}}}}})))=,}=}}@@!*!%%%///.}}}||!}|}}1),1[-,[)}})}},[-><(4444%%%/",
"}**%%%%%/%;-&-1&1[)1)}}}|}}}}!}|!!|%||}|.////%%!!|*}}=),,,,))),})))))),,,,)=,@}||!*%%////.}|||}}|||},);,11,=})}|}),[[&<{4~'@~'@@",
"%///////%/,,--;[11),)||}}|}}||}}*||!}|||///.//%!*!||}=)=))})))}}}})),})}|}|@|****!%%%%%///|||!||!|*})}$),,}}}}|}}}$[$_>]44''**@|",
"}|**%*%///;,,1);;,}))}}}}}}}!%}|!||!|*}*.//////!*|@}))}}))},}}})}}}))),,)))=}|}|**%!%///./|%|}}|||*})}}}=}}|}}}}}}$;+2:<44'@@'@'",
"|!%%%//%/%)),$$;))=}}}}}|}}|*!||!||!***}/.///%%!%**}|}@}}})|}}}|}|}}),)),)))=}}|}|**!!%//.%%%||!|!!*}*}}*}|}|=}=}})$+;2_4%%%%!!*",
"=@|***%%//=)$)@,==@}=|})}||!|!}}*||!|!!*/.//.//%!*|@=@}}}}}}}|}}}}||}}})}}}}}}@|||*!%%///.|%!||||*!*|!*|||||}}})$=)$$$+-%'**''|@",
"|@%*%%%/%/===}@}@}*}}}}=|*|!!!|||||!*|*!./////%%!**|||}}}}})}}|}|}}}})}}}}**|*!|*!%%///.///%!|||*!!%|!!!*|||@)=$===)==$$%%***'*|",
"}}@***%%//@|}}|}|}*=@@@=||*!*!}}*|**!!!*.///%%!!*|@=}}@=}}||}|||*!|||}}}|}|||||||*!!!/%/./!!!!|!!!!%*/%!****}}=}})=)}==$%///%%%/",
"@|%%%%%///||}|*@*|*|@}@}|*|*!!*}||*!*/!!/./%//%*!||*@}}}}}}}}||%||*|!***}*||!****!!!%%///.!!%!*!!//%!/!/!!%!|@@===@==|@=/%***'|~",
"..........||@|!|!**|@||@**!!*%|||*!!!%%/..........//////////../..././././/././/...........%%%!%!%/!/*/%%%!!!*}@@@=@=@@@@........",
"..........**@!!|!!!|||@*!*|*!!||!*!!%%/!..........////////////.///.//////////.//..........%%/!!//////%//%/%%%|*=@@@@@*'@........",
"..........!%|*!!!!%@|**!!!*!*!|***%%%///........../////%///////.//.///////////%/..........%!/%%/%/////%/%//%!**@*@|@|**|........",
"..........%!*%%|%%%****!*!!%!!*!!%%%///%..........!/%%%//%/%/%///.%.//%%%!%%/%/%..........!%%%/////////////%/%%****@*!!*........",
"..........%/*!%*%%%%*%!%*!!!!%*!%%!%%///..........%%!%!%%//%/%////////%%%%%%%%%!..........!//%/////////.////%%%******%%*........",
"..........%%%%/%%%/*%*%%!%%%!%!%%///%///..........!%!%!%%%%%/%%/%///%%%%*%!%!*!!........../%%/%././/..////////%%%*%*%%!%........",
"..........//%%/%/%/%%%*%%%%/%%%%!///%/%/..........*!!!!!!!%%/%!//%%//%!!**|*%*@*..........%///%//.//....///////%/%*%%%/%........",
"........../%/%/%/%///%%/%%/%%%/%/%/%//.%..........**|**!!%/%%%/!%%%%*!****@%|''|..........%//%/../.././/.././///%%%%%///........",
"..........////////////%//%//////////////..........*!**!!|!%%/!%//%!!!%*!**@|*@=@..........!%////./......///.//////////%/........",
"..........////.%.///////%/%/////////////..........||*|@!|!%%%//%/!%***!|||=|@@@~..........//////.../......./..././////./........",
"///%%%!!*!|@}=}))}$$$++;[+;;),),}}@@|@@*|!%%%/////@|}*@*!!!/*%/%/!!***|@@|@@@@)@/%/%%*@~)+,;)=}|}!%!!!|!}*||@@}@|*|**%*%%%%/%///",
"%''**'***|@@)}=)==),,,[-&-[[-[,,,=,),=~}~|*!%%////}|@}}!}%%!/%%!!*!*|*@|@==@=}=@%/%%**@=33;$))||%/%%/!%!!!*}|}|}|@***|!||*|'*'*!",
"%%%%!%!!***||@}|}}))))1[[[[,1,,},===}}@|*!%%/%///.}}}}|*|!%%/!/%%|!}**}}}@}|=}=}////%*'@=====||*!!%%%%!||!|}})}}}}|!||*|||@@@@@'",
"4%*%*!|*@@|)}|}}})}),,,[--[[,111,,,====@@*!!!/%///=}}|}*|%%!!%!!%||*|||@}})=@}}|///%*'@=$3;$}}||!!|!!|%|}|}|*!*}|%!!%/%!!*%%%%//",
"/%%%%***@|}|@|}|}}})=),,-[-[[,,,,,))=}@@@*!!%%%///=)}}*||!%|%||!/|||*}}}==)|}==|/%%*~~===3$$)|}!|||!!/!!!|!!|%|!!%%%%%%%%!*%%///",
"%%%%**@|'|@|||}}})})),1[;--&;,+;)=)}@=@|**%%%/////))|||||!|||!||*|||*||}}=)=}@@|//%%'@~@=~=||*!!|||!!|%%!|!}||!|!%!%%%!!***''@'!",
"%%%%**'@*!****||}}))))1[[&---;;$$)@||@@|!*%%%%%%//,,}}|!}%|||||%!||||}|}}})}}}}|.%%*'@~~@=@|**||}|||%//!%!|%|!%/%////!/!%*%%%%//",
".//%/%%%*!%!**|}}))),11--&&&-[[;,===)@=|@%*%%%%%//1)|}}||!}}|}|||!!*||}|)))|}}@=//%%*'@@=@|***|}})}|!%|%|!!|!!%!%%%%/%%%%%*%%///",
"%%*''@@@@@*|}}=})},,11,[[--[+1,))=}}}==@*!%%///%//,)|}||}!|||}}||!|}*}}|}}}}}}=}/%%**@@=@@|**||))})}}!%%|!|||!%////////%//%%///.",
"//%%*****!||}|||}})),,,;++;[,,))=},=}=}|||!|*%*!%/,,|}}}|||}|}}!|||}|}}}}})}|}==//*%'*'@@*}|}}})}))}!||%!||!|!%!%//%/%!!%%%%%%//",
"//%%%%%%%!@|@|}}|}},$+[,[[[11,,),)},}=@|**%/*%%%%/)1|}}||!|||}}||||}|}}|}}}}|},}//%/%%%%%!%***}||}}}|!!|!!%||!!%/%//%%/*!*!*!**4",
"%*%***%%!*|@||||||}=)$);;$,==}}=}=}@@@*|*!*%%%%%%/,)}}}!|||}!}}||}|}}}}}}!}|}))=/%%*******!*}*|}}|||}|!|||!!%!|!%./%%%%!%%!%%%%%",
"/%%%%%%**@|@}=|}}}))11[111),,),)))$))}=*|||***%*%/[,}}}}}||||}}}|)})|))|})}|}))}/%%%*%%!%!*!!*|**|||!|!!!|!!}!%!!%///%/***!*'**'",
"%%%%%%*!*|@@}|=|}}))=[,,,=)}}}}})}=}@}*!*%%%%/%/%/)1}}}}}|}}}}}|}|})}})})}}}}),=//%%!**!!**||||||||!||!!!!|}!|!|%%%%%%*!!!%*!***",
"***'**@@=@==$}}}}})),,,,)))))),,),,$)=}**%%%%%%/%/)1})}})|}||)}|})}})})}))))},)=/%%%%%!*!*|||||||!}|!}||!!}||}|!%//////*!*!!****",
"////%/***@@|***!!|@}@@@}}|*}}})=,,)$)=}|*|*%***%%/11))))}}}}})}}}}})})|})},}),$}///%%!%%!%%!%%!/%%%%!!!||}!|}}}}!!|/!!*!*****'**",
"%%%%**@=====@}}@}==)=)=})}}}}))),,,,$}=*|!*%%%%%%/,,)})))})}}})}})})})}},}))),))///%%%!**%!!|%!!!%|!!!|!!!}||||||%!%%%!*!*!****4",
"////%%@@@==}@@||}}}}}|}|}*}|})=,$=,===}**!%*%%%%%%,1),,)})})}))|)}})}|)})),)),,@////%%///%///%//%//%%%!%|||||}}}}|!%%%!*|*@@*!4!",
"////*%@===$=)$=)},,,[,)))),)),,1[-[;;$=@@@**|%*%%%,[},},))}}}})|)}})}|}},),,,,))/%%/%*!*%**%!*|!!!||||}|}}}})))))}|!||*|@}@|@@*!",
"..///**@=@=@@|}|}}))})}}}}}),,11[;-[,)@}*****%%///,[,),,)))}})}|}))}}}}|,)1,,[)=//%%%%!!!%!%/||!|!|!|!!}|}|}})))}||*!!!*!**@**%!",
"///%%*@===@=}}})=)}))))},))),,[[--[-;)=}@@|**%%%//[[,1,,,),}|))|}})})}}},)1,,[,$////%%!%%!!*!/%%|!!!!|!||||}}})})|||||*||@|@**%%",
"/.//%*'@=$$=)$}=))))))),)),[1[[-[[+;,)$$=@|**%%/%%,-,1),),}}|)}*}}|)}|)|1,,[[-,=///%/%%%/%%%%*!!/%%%%%!%/!!*!**|}}|}*||@@|@|'*!%",
"///%**@@$=$@))))))))}))},)))))=)$=====@@@|*%%/%///$[),,))))}|)}|}}|}}|}|,11;;&+,/%%%%!!*!!|||||||}!}|}|}}}})}),)})}}}|*@|*%*%%//",
"//%%%*@@@$=$,,,1),,,,,)1)1,1111;,,$;$$$==@|**%////)-)1),},)}}}}|||}|}|}}),$++-+$//%%%%%%!%%%%!!%|||||%%!%|||}}}}}}}}@@}@@@=|'!!%",
"//%%%**@@@@=@=}==)})))1111,,),,),;[,,=}=|@%%%%////}1),,))})||}|*|}|}}|}},,;;;&++/////%%%%!!%!/%%!!|!!}!|!|}|})),)}}|}}=@@|*%*///",
"///%%**@@==}==)))},,),,,))}}))))==))}=@|@*|*%%%///}=)=,}},}}}}}!||*||}}},,)2-&+2%%%!!%!!*!*!%!/!%!}}}!}||}|}),))}}|@@@@@@@@*!!!/",
"///%!*@=@=$$)$=,11[11,))}}}}|)})})}=*!|*%%%%//%/./|=}=))|)}}*}}!!|!}|*}|$,;;&>+$%%%%!!***||!%%%%%!%||%%|!|||!|}}||}**|}@@|@*%%%/",
"./%%%***@=}@)=);----1,,}})}|}}}=}}}***!!*%%%%%///.@}|}}}|)|}|||!|**||}@}$;$3_:;_/%%%%!!***%%/////!!!||||}||}},}}}}}||}@@@=@'*!/%",
"////%%**|@@|@=,,[&&[[,),}}})})),1$}}|@@@@***%%%%%/*}*@}||=|}|}*!*|*|*|@@$$$=__2;4%**|@@}|*!%/%%%/%||||}}}}))}))}}}|}}@@=@=@@**//",
"../%%%**@|*@|}=;---[1})}))}}})),1)}|@|||!!!%*%%/./!@*!|}*)@}|||%|*!*||@@$$=33_3;/%/%%%%!%%%/////%%!%!!|}}))},}}}}}}}}}}====@|!!%",
"..........///%%/%%%///.//.././//./././//..........!***@**=|}*||!!*!*||@|=$=3+3;;.........../........././..///././././///........",
"..........//%%%%%%%%%%/.///.////////////..........!|!!**!=@}||*%*|**!@*@=3=~33=3........../../....../././/////././//%.//........",
"..........//%*%%%%%%%%%///%////%//.//%%/..........%!!***%}|@|**!|!!|**@*====33==..........//./../....../////.///././%///........",
"..........%%***/%*%%!!//////%%*///////%!..........%*!!*%%@*@|!*!*@%*%|*'~=''3===........../././..././././////.//.//////%........",
"..........!%@'*/%**%'*%!%%!/!!*%/%////%%........../*!!*!%|***%%%%|%*****~=4~=3=@..........%//.///..////.//%%//.///./%///........",
"..........***@*%*@@*||!!/%!!**!!!//%.%%%..........%%%%*%/*%%%//%**%*%*''@~44=~'@........../////........///%/%/%/.//%%//%........",
"..........'%@@*%*~@*@@!@/!*!*|%!%%/!.%%!........../!%%*%/*%%%///%%%%%***@@4%~@'*..........////////.//////%%%/.%/////!%/%........",
"..........'%==*/*=@*=@*@!*|*@|||!%/%//%!........../%%%%%/%%%/////%/%****'@%%@**4..........%.%///././////!//%////////!/!/........"};
